<?xml version="1.0" encoding="utf-8"?>
<!-- Generator: Adobe Illustrator 16.0.3, SVG Export Plug-In . SVG Version: 6.00 Build 0)  -->
<!DOCTYPE svg PUBLIC "-//W3C//DTD SVG 1.1//EN" "http://www.w3.org/Graphics/SVG/1.1/DTD/svg11.dtd">
<svg version="1.1"
	 id="svg13076" inkscape:export-filename="portrait_layre.svg" xmlns:inkscape="http://www.inkscape.org/namespaces/inkscape" xmlns:sodipodi="http://sodipodi.sourceforge.net/DTD/sodipodi-0.dtd" xmlns:svg="http://www.w3.org/2000/svg" inkscape:export-ydpi="96" inkscape:export-xdpi="96" inkscape:version="1.2.2 (732a01da63, 2022-12-09)"
	 xmlns="http://www.w3.org/2000/svg" xmlns:xlink="http://www.w3.org/1999/xlink" x="0px" y="0px" width="100px" height="100px"
	 viewBox="0 0 100 100" enable-background="new 0 0 100 100" xml:space="preserve">
<sodipodi:namedview  id="namedview13078" inkscape:pagecheckerboard="0" inkscape:cy="64.755078" inkscape:zoom="4.185" inkscape:cx="70.728793" pagecolor="#505050" showgrid="true" borderopacity="1" bordercolor="#eeeeee" inkscape:document-units="mm" inkscape:deskcolor="#505050" inkscape:pageopacity="0" inkscape:showpageshadow="0" inkscape:current-layer="layer1" inkscape:window-y="-8" inkscape:window-x="-8" inkscape:window-height="1017" inkscape:window-width="1920" inkscape:window-maximized="1">
	<inkscape:grid  id="grid14286" type="xygrid"></inkscape:grid>
</sodipodi:namedview>
<g>
	<ellipse id="path23638" fill="#FFFFFF" cx="18.793" cy="33.473" rx="13.682" ry="14.261"/>
	<path id="path23636" sodipodi:nodetypes="ccccc" fill="#FFFFFF" d="M6.903,80.789c0-11.847,0-23.693,4.756-35.539h14.268
		c4.756,11.846,4.756,23.692,4.756,35.539H6.903"/>
	<ellipse id="ellipse23642" fill="#FFFFFF" cx="49.999" cy="33.473" rx="13.683" ry="14.261"/>
	<path id="path23640" sodipodi:nodetypes="ccccc" fill="#FFFFFF" d="M38.108,80.789c0-11.847,0-23.693,4.756-35.539h14.268
		c4.756,11.846,4.756,23.692,4.756,35.539H38.108"/>
	<path id="path23644" sodipodi:nodetypes="ccccc" fill="#FFFFFF" d="M69.316,80.789c0-11.847,0-23.693,4.756-35.539H88.34
		c4.757,11.846,4.757,23.692,4.757,35.539H69.316"/>
	<ellipse id="ellipse23646" fill="#FFFFFF" cx="81.206" cy="33.473" rx="13.683" ry="14.261"/>
</g>
</svg>
