<svg width="16" height="16" viewBox="0 0 16 16" fill="none" xmlns="http://www.w3.org/2000/svg">
<g clip-path="url(#clip0_3666_572)">
<path d="M11.1812 7.46591V8.57955H4.81756V7.46591H11.1812ZM7.99938 11.483C7.7508 11.483 7.53868 11.3968 7.36301 11.2244C7.19067 11.0488 7.10449 10.8366 7.10449 10.5881C7.10449 10.3494 7.19067 10.1439 7.36301 9.97159C7.53868 9.79924 7.7508 9.71307 7.99938 9.71307C8.23802 9.71307 8.44351 9.79924 8.61586 9.97159C8.7882 10.1439 8.87438 10.3494 8.87438 10.5881C8.87438 10.8366 8.7882 11.0488 8.61586 11.2244C8.44351 11.3968 8.23802 11.483 7.99938 11.483ZM7.99938 6.33239C7.83366 6.33239 7.68285 6.29261 7.54696 6.21307C7.41107 6.13352 7.30336 6.0258 7.22381 5.88991C7.14427 5.75402 7.10449 5.60322 7.10449 5.4375C7.10449 5.19886 7.19067 4.99337 7.36301 4.82102C7.53868 4.64867 7.7508 4.5625 7.99938 4.5625C8.23802 4.5625 8.44351 4.64867 8.61586 4.82102C8.7882 4.99337 8.87438 5.19886 8.87438 5.4375C8.87438 5.68608 8.7882 5.8982 8.61586 6.07386C8.44351 6.24621 8.23802 6.33239 7.99938 6.33239Z" fill="#2F80ED"/>
</g>
<defs>
<clipPath id="clip0_3666_572">
<rect width="16" height="16" fill="white"/>
</clipPath>
</defs>
</svg>
