<svg width="16" height="16" viewBox="0 0 16 16" fill="none" xmlns="http://www.w3.org/2000/svg">
<path fill-rule="evenodd" clip-rule="evenodd" d="M3.45082 5.30639L4.73587 5.26497L4.79109 6.97825L6.50437 6.92302L6.54579 8.20807L3.54747 8.30471L3.45082 5.30639Z" fill="#2F80ED"/>
<path fill-rule="evenodd" clip-rule="evenodd" d="M13.3458 12H12.0601L12.0601 10.2858H10.3459L10.3459 9.00012L13.3458 9.00012L13.3458 12Z" fill="#2F80ED"/>
<path fill-rule="evenodd" clip-rule="evenodd" d="M8.35461 11.7143C9.76618 11.7143 10.9724 10.8651 11.4559 9.66667H12.8546C12.3227 11.5864 10.5095 13 8.35461 13C6.1997 13 4.38656 11.5864 3.85461 9.66667H5.25336C5.73678 10.8651 6.94305 11.7143 8.35461 11.7143ZM5.41117 7C5.96903 5.98047 7.07784 5.28571 8.35461 5.28571C9.63139 5.28571 10.7402 5.98047 11.2981 7H12.7476C12.1082 5.25221 10.3828 4 8.35461 4C6.32646 4 4.60105 5.25221 3.96159 7H5.41117Z" fill="#2F80ED"/>
</svg>
