<?xml version="1.0" encoding="UTF-8" standalone="no"?>
<!-- Created with Inkscape (http://www.inkscape.org/) -->

<svg
   width="63.999996"
   height="63.999996"
   viewBox="0 0 16.933332 16.933332"
   version="1.1"
   id="svg5"
   inkscape:export-filename="save-icon.svg"
   inkscape:export-xdpi="96"
   inkscape:export-ydpi="96"
   xmlns:inkscape="http://www.inkscape.org/namespaces/inkscape"
   xmlns:sodipodi="http://sodipodi.sourceforge.net/DTD/sodipodi-0.dtd"
   xmlns="http://www.w3.org/2000/svg"
   xmlns:svg="http://www.w3.org/2000/svg">
  <sodipodi:namedview
     id="namedview7"
     pagecolor="#ffffff"
     bordercolor="#000000"
     borderopacity="0.25"
     inkscape:showpageshadow="2"
     inkscape:pageopacity="0.0"
     inkscape:pagecheckerboard="0"
     inkscape:deskcolor="#d1d1d1"
     inkscape:document-units="mm"
     showgrid="false"
     showguides="true" />
  <defs
     id="defs2" />
  <g
     inkscape:label="Capa 1"
     inkscape:groupmode="layer"
     id="layer1">
    <g
       id="g2568"
       transform="matrix(0.82460302,0,0,0.82460302,1.0713261,2.0200854)"
       style="stroke-width:1.28345;stroke-dasharray:none">
      <g
         id="g11286"
         transform="translate(0.10757865,0.26894662)">
        <g
           id="g11410"
           transform="translate(35.7699)">
          <path
             style="fill:none;stroke:#000000;stroke-width:1.28345;stroke-linecap:round;stroke-linejoin:round;stroke-dasharray:none"
             d="M 2.8777866,11.458977 1.7874178,14.970832 6.1505054,13.695186"
             id="path11402"
             sodipodi:nodetypes="ccc" />
          <path
             style="fill:none;stroke:#000000;stroke-width:1.28345;stroke-linecap:round;stroke-linejoin:round;stroke-dasharray:none"
             d="m 1.2745529,6.8789171 1.108871,2.3951608 1.108871,-2.4395156 z"
             id="path11404"
             sodipodi:nodetypes="cccc" />
          <path
             id="path11406"
             style="fill:none;stroke:#000000;stroke-width:1.28345;stroke-linecap:round;stroke-linejoin:round;stroke-dasharray:none"
             d="m 2.2551209,7.2977889 c 0,-3.968433 3.2170504,-7.18548348 7.1854834,-7.18548358 3.9684327,1e-7 7.1854837,3.21705058 7.1854837,7.18548358 -1e-6,3.9684331 -3.217051,7.1854831 -7.1854837,7.1854831 -1.1786351,0 -2.2909903,-0.283778 -3.2724681,-0.786736"
             sodipodi:nodetypes="csssc"
             inkscape:transform-center-x="-1.2545443"
             inkscape:transform-center-y="-1.034999" />
          <path
             style="fill:none;stroke:#000000;stroke-width:1.28345;stroke-linecap:round;stroke-linejoin:round;stroke-dasharray:none"
             d="M 6.472339,5.1493313 9.0127912,8.2543289 14.093695,9.3206918"
             id="path11408"
             inkscape:transform-center-x="-1.2545443"
             inkscape:transform-center-y="-1.034999" />
        </g>
        <g
           id="g19054">
          <path
             style="fill:none;stroke:#000000;stroke-width:2.07079;stroke-linecap:round;stroke-linejoin:round;stroke-dasharray:none"
             d="m 58.321651,12.698536 -0.558962,3.485814 4.876563,-1.469574"
             id="path289"
             sodipodi:nodetypes="ccc" />
          <path
             style="fill:none;stroke:#000000;stroke-width:2.07079;stroke-linecap:round;stroke-linejoin:round;stroke-dasharray:none"
             d="m 55.996236,7.7807585 1.228349,1.9317129 1.167703,-1.9718383 z"
             id="path953"
             sodipodi:nodetypes="cccc" />
          <path
             style="fill:none;stroke:#000000;stroke-width:2.07079;stroke-linecap:round;stroke-linejoin:round;stroke-dasharray:none"
             d="m 63.824761,5.993924 0.29361,2.1554114 3.593444,1.1319403"
             id="path2562"
             inkscape:transform-center-x="-1.1566618"
             inkscape:transform-center-y="-0.95424579"
             sodipodi:nodetypes="ccc" />
          <path
             id="path11412"
             style="fill:none;stroke:#000000;stroke-width:2.07079;stroke-linecap:round;stroke-linejoin:round"
             d="m 57.198151,7.6362197 c 0,-4.012519 3.25279,-7.26530838 7.265309,-7.26530838 4.012519,0 7.265308,3.25278938 7.265308,7.26530838 0,4.0125193 -3.252789,7.2653093 -7.265308,7.2653093 -0.578673,0 -1.141544,-0.06765 -1.681136,-0.195481"
             sodipodi:nodetypes="csssc" />
        </g>
        <g
           id="g18316"
           transform="matrix(1.2000168,0,0,1.2000168,51.372005,-27.18091)"
           style="fill:#000000;stroke:#000000">
          <path
             id="path12307"
             style="fill:#000000;stroke:#000000;stroke-width:0.962584;stroke-linecap:round;stroke-linejoin:round;stroke-dasharray:none"
             d="m 8.7212164,6.5290113 c 6.0447936,0 5.0696736,7.3718657 -4.3833312,7.3718657 13.2633818,0 13.7211048,-9.2604719 4.8637275,-9.2604719 z"
             sodipodi:nodetypes="cccc" />
          <path
             style="fill:#000000;stroke:#000000;stroke-width:0.936133;stroke-linecap:round;stroke-linejoin:round;stroke-dasharray:none"
             d="M 5.2443881,5.3787774 9.1771577,8.4914817 10.031255,2.6800823 Z"
             id="path18312" />
        </g>
        <g
           id="g18847"
           transform="translate(31.525294,-26.021366)">
          <path
             id="path18437"
             style="fill:#000000;stroke:#000000;stroke-width:0.590903;stroke-linecap:round;stroke-linejoin:round"
             d="M 7.3839349,-0.52330325 6.5545162,2.0628662 A 6.7010226,6.7010226 0 0 0 6.1171241,2.2424351 L 3.7033406,1.0013308 3.4492978,1.2553734 1.8169226,2.8873708 1.5628797,3.1414135 2.8039841,5.555575 A 6.7010226,6.7010226 0 0 0 2.6247936,5.9922109 l -2.58654753,0.830175 v 0.3591377 0.056705 H 5.9470063 A 3.2169489,3.2169489 0 0 1 8.8972276,5.3030441 3.2169489,3.2169489 0 0 1 11.84745,7.2382294 h 5.90876 V 7.1815236 6.8223859 L 15.175711,5.994101 A 6.7010226,6.7010226 0 0 0 14.992362,5.5517945 L 16.231576,3.1414135 15.977534,2.8873708 14.345535,1.2553734 14.091493,1.0013308 11.681112,2.2405449 A 6.7010226,6.7010226 0 0 0 11.238805,2.0571957 l -0.828283,-2.58049895 h -0.359139 -2.30831 z" />
          <path
             id="rect18752"
             style="fill:#000000;stroke:#000000;stroke-width:0.83604;stroke-linecap:round;stroke-linejoin:round;stroke-dasharray:none"
             d="M 0.15616538,9.3856597 V 10.387098 H 6.7100115 A 2.2453613,2.2453613 0 0 1 6.65173,9.886379 2.2453613,2.2453613 0 0 1 6.7100115,9.3856597 Z m 10.92997062,0 a 2.2453613,2.2453613 0 0 1 0.0564,0.5007193 2.2453613,2.2453613 0 0 1 -0.05766,0.500719 h 6.56074 V 9.3856597 Z" />
          <circle
             style="fill:#000000;stroke:#000000;stroke-width:0.288199;stroke-linecap:round;stroke-linejoin:round;stroke-dasharray:none"
             id="circle18515"
             cx="8.8973246"
             cy="9.8863935"
             r="1.2561564" />
          <path
             id="rect18754"
             style="fill:#000000;stroke:#000000;stroke-width:0.83604;stroke-linecap:round;stroke-linejoin:round;stroke-dasharray:none"
             d="m 0.15616538,13.3394 v 1.001439 H 11.25534 a 2.2453613,2.2453613 0 0 1 -0.05828,-0.50072 2.2453613,2.2453613 0 0 1 0.05828,-0.500719 z m 15.47529862,0 a 2.2453613,2.2453613 0 0 1 0.0564,0.500719 2.2453613,2.2453613 0 0 1 -0.05828,0.50072 h 2.016038 V 13.3394 Z" />
          <circle
             style="fill:#000000;stroke:#000000;stroke-width:0.288199;stroke-linecap:round;stroke-linejoin:round;stroke-dasharray:none"
             id="circle18762"
             cx="13.442522"
             cy="13.839909"
             r="1.2561564" />
        </g>
        <path
           id="rect18851"
           style="fill:#000000;stroke:#000000;stroke-width:0.592708;stroke-linecap:round;stroke-linejoin:round"
           inkscape:transform-center-y="-5.3964823"
           d="m 40.543796,24.054201 -0.941093,2.577502 a 6.5043077,6.5043077 0 0 0 -0.885905,0.369636 l -2.490868,-1.15864 -0.235194,0.235193 -1.079387,1.079387 -0.235193,0.235513 1.158639,2.490548 a 6.5043077,6.5043077 0 0 0 -0.369314,0.885585 l -2.577823,0.941414 v 0.332737 1.52635 0.332737 l 2.578144,0.941093 a 6.5043077,6.5043077 0 0 0 0.368993,0.885587 l -1.158639,2.491188 0.235193,0.235195 1.079387,1.079064 0.235514,0.235516 2.490868,-1.158642 a 6.5043077,6.5043077 0 0 0 0.885585,0.369315 l 0.941093,2.577501 h 0.332738 1.526349 0.332738 l 0.941093,-2.57782 a 6.5043077,6.5043077 0 0 0 0.885585,-0.368996 l 2.491187,1.15832 0.235192,-0.235194 1.079068,-1.079064 0.235514,-0.235516 -1.158639,-2.491188 a 6.5043077,6.5043077 0 0 0 0.368993,-0.885266 l 2.578142,-0.941414 V 33.569426 32.043076 31.71002 L 47.81618,30.769888 a 6.5043077,6.5043077 0 0 0 -0.369314,-0.891682 l 1.156074,-2.485735 -0.235194,-0.235192 -1.079068,-1.079387 -0.235512,-0.235193 -2.485414,1.156072 a 6.5043077,6.5043077 0 0 0 -0.892,-0.369314 l -0.940453,-2.575256 h -0.332416 -1.526349 z m 1.095752,4.643546 a 4.1082966,4.1082966 0 0 1 4.108343,4.108344 4.1082966,4.1082966 0 0 1 -4.108343,4.108344 4.1082966,4.1082966 0 0 1 -4.108023,-4.108344 4.1082966,4.1082966 0 0 1 4.108023,-4.108344 z" />
        <g
           id="g19162"
           transform="matrix(0.6183299,0,0,0.6183299,-28.564467,-14.770743)"
           style="fill:#000000;stroke:#000000">
          <path
             id="path19056"
             style="fill:#000000;stroke:#000000;stroke-width:0.962584;stroke-linecap:round;stroke-linejoin:round;stroke-dasharray:none"
             d="m 5.3927642,-5.3671579 a 10.973022,10.973022 0 0 0 -7.176141,10.2863675 10.973022,10.973022 0 0 0 10.973211,10.9732114 10.973022,10.973022 0 0 0 4.3773778,-0.91245 l -1.298487,-2.24979 A 8.3965635,8.3965635 0 0 1 9.1898342,13.316129 8.3965635,8.3965635 0 0 1 0.79354123,4.9192096 8.3965635,8.3965635 0 0 1 5.3927642,-2.5602467 Z m 10.3170748,1.470824 -1.299113,2.2491637 a 8.3965635,8.3965635 0 0 1 1.346114,1.34486073 l 2.249164,-1.29848623 a 10.973022,10.973022 0 0 0 -2.296165,-2.2955382 z m 3.540757,4.43753913 -2.251044,1.29911297 a 8.3965635,8.3965635 0 0 1 0.486306,1.8405666 h 2.598225 A 10.973022,10.973022 0 0 0 19.250596,0.54120523 Z M 17.493378,6.1581609 a 8.3965635,8.3965635 0 0 1 -0.493199,1.8405667 l 2.250417,1.2991129 A 10.973022,10.973022 0 0 0 20.09223,6.1581609 Z m -1.731524,3.9863281 a 8.3965635,8.3965635 0 0 1 -1.347368,1.347994 l 1.299113,2.249164 a 10.973022,10.973022 0 0 0 2.298045,-2.298672 z" />
          <path
             id="rect19147"
             style="fill:#000000;stroke:#000000;stroke-width:0.784896;stroke-linecap:round;stroke-linejoin:round"
             d="M 7.2414782,-5.7224759 V 2.7684462 H 11.11939 v -8.4909221 z m -1.648802,8.5686307 3.590264,4.2464009 3.8221368,-4.2464009 z" />
        </g>
        <g
           id="g19581"
           style="fill:#000000;stroke:#000000" />
        <g
           id="g19332"
           transform="translate(-21.831973)">
          <path
             id="path19324"
             style="stroke:#000000;stroke-width:0.962584;stroke-linecap:round;stroke-linejoin:round"
             d="M -18.99589,3.1443224 H -7.1622385 L -3.396986,6.7482072 V 19.711434 H -18.99589 Z"
             sodipodi:nodetypes="cccccc" />
          <circle
             style="fill:#ffffff;stroke:none;stroke-width:1.26339;stroke-linecap:round;stroke-linejoin:round;stroke-dasharray:none"
             id="circle19326"
             cx="-11.196438"
             cy="14.762817"
             r="2.2591515" />
          <rect
             style="fill:#ffffff;stroke:none;stroke-width:1.01394;stroke-linecap:round;stroke-linejoin:round;stroke-dasharray:none"
             id="rect19328"
             width="9.0219908"
             height="5.5293794"
             x="-17.378725"
             y="2.6630304" />
          <rect
             style="fill:#000000;stroke:none;stroke-width:1.19263;stroke-linecap:round;stroke-linejoin:round;stroke-dasharray:none"
             id="rect19330"
             width="3.0159905"
             height="4.8799753"
             x="-12.271337"
             y="2.9877324" />
        </g>
        <path
           id="path19705"
           style="fill:#ffffff;stroke:#ffffff;stroke-width:0.703602;stroke-linecap:round;stroke-linejoin:round"
           d="M 3.1598245,1.4940293 V 13.603677 H 14.561748 V 4.1279555 l -2.75211,-2.6339262 z m 1.1818312,0.81583 H 10.936549 V 5.5452368 H 4.3416557 Z M 8.861015,7.5286978 A 2.4575739,2.4575739 0 0 1 11.318583,9.9862656 2.4575739,2.4575739 0 0 1 8.861015,12.443833 2.4575739,2.4575739 0 0 1 6.4034473,9.9862656 2.4575739,2.4575739 0 0 1 8.861015,7.5286978 Z" />
      </g>
    </g>
  </g>
</svg>
