<svg width="64" height="64" viewBox="0 0 64 64" fill="none" xmlns="http://www.w3.org/2000/svg">
<path fill-rule="evenodd" clip-rule="evenodd" d="M19 37.0797V26.8444C19 26.2921 19.4477 25.8444 20 25.8444H24.8309C25.0183 25.8444 25.2019 25.7917 25.3608 25.6924L35.8229 19.1536C36.489 18.7373 37.3529 19.2162 37.3529 20.0016V32.2433C36.9725 32.0867 36.5663 32.0022 36.1561 31.9924L36.1382 31.992H36.1346C34.37 31.9622 32.7939 33.3333 32.7941 35.1917V35.1919V42.8775L25.3609 38.2317C25.2019 38.1324 25.0183 38.0797 24.8309 38.0797H20C19.4477 38.0797 19 37.632 19 37.0797ZM37.3529 35.7214V43.4961L36.2264 44.193C36.1205 44.2429 36.0067 44.2358 35.9092 44.1822C35.8585 44.1544 35.8286 44.1218 35.8138 44.0984C35.8021 44.0798 35.7942 44.0596 35.7941 44.025V35.1917V35.1914C35.7941 35.1598 35.8051 35.1184 35.8536 35.0732C35.9032 35.027 35.9822 34.9894 36.0854 34.9916C36.1378 34.993 36.1854 35.0051 36.225 35.0236L37.3529 35.7214Z" fill="white"/>
<path d="M35.8762 33.53C34.847 33.5077 33.9998 34.261 34 35.197V43.8615C34.0013 45.1442 35.5282 45.9449 36.7499 45.3038L44.083 40.9732C45.3057 40.3316 45.3057 38.7268 44.083 38.0851L36.7499 33.7546C36.484 33.614 36.1836 33.5371 35.8762 33.53H35.8762Z" fill="white"/>
</svg>
