<svg width="64" height="64" viewBox="0 0 64 64" fill="none" xmlns="http://www.w3.org/2000/svg">
<path fill-rule="evenodd" clip-rule="evenodd" d="M18.5845 18C17.7094 18 17 18.7094 17 19.5845V21.169C17 22.044 17.7094 22.7534 18.5845 22.7534H43.9361C44.8112 22.7534 45.5206 22.044 45.5206 21.169V19.5845C45.5206 18.7094 44.8112 18 43.9361 18H18.5845ZM18.5845 25.9224C17.7094 25.9224 17 26.6318 17 27.5069V29.0914C17 29.9664 17.7094 30.6758 18.5845 30.6758H43.9361C44.8112 30.6758 45.5206 29.9664 45.5206 29.0914V27.5069C45.5206 26.6318 44.8112 25.9224 43.9361 25.9224H18.5845ZM17 35.4293C17 34.5542 17.7094 33.8448 18.5845 33.8448H43.9361C44.8112 33.8448 45.5206 34.5542 45.5206 35.4293V36.2486L41.3652 36.1342C40.0043 36.0967 38.8707 37.1695 38.8332 38.5304C38.8326 38.553 38.8323 38.5757 38.8323 38.5982H30.2604C30.2553 38.5892 30.2503 38.5801 30.2452 38.571C29.5831 37.3815 28.0821 36.9539 26.8925 37.616C26.4662 37.8533 26.1377 38.1983 25.9222 38.5982H18.5845C17.7094 38.5982 17 37.8888 17 37.0137V35.4293ZM26.4209 41.7672H18.5845C17.7094 41.7672 17 42.4766 17 43.3517V44.9361C17 45.8112 17.7094 46.5206 18.5845 46.5206H32.2096C29.818 45.5861 27.8066 43.8788 26.4209 41.7672ZM40.5136 46.5206H43.9361C44.2719 46.5206 44.5834 46.4162 44.8396 46.2379C44.7445 46.2208 44.6493 46.1978 44.5545 46.1689C43.9714 45.9908 43.5024 45.6161 43.198 45.1397C42.3181 45.7177 41.4202 46.1769 40.5136 46.5206ZM39.117 41.7672H33.6294C34.2907 42.0729 34.9951 42.2699 35.72 42.3404C36.7308 42.4386 37.8855 42.2989 39.117 41.7672Z" fill="white"/>
<path d="M45.5836 39.6476C39.0394 47.2683 31.092 44.9157 28 39.6476M45.4319 43.5357L47 38.6669L41.3971 38.5205" stroke="white" stroke-width="2" stroke-linecap="round" stroke-linejoin="round"/>
</svg>
