<svg width="64" height="64" viewBox="0 0 64 64" fill="none" xmlns="http://www.w3.org/2000/svg">
<path d="M22.9494 21.1527C22.6742 21.1527 22.4403 21.0689 22.2477 20.9014C22.0826 20.7059 22 20.4685 22 20.1892V17.927C22 17.6477 22.0826 17.4104 22.2477 17.2149C22.4403 17.0194 22.6742 16.9216 22.9494 16.9216H25.55C25.8252 16.9216 26.0591 17.0194 26.2517 17.2149C26.4443 17.4104 26.5407 17.6477 26.5407 17.927V20.1892C26.5407 20.4685 26.4443 20.7059 26.2517 20.9014C26.0591 21.0689 25.8252 21.1527 25.55 21.1527H22.9494ZM23.2796 47C23.0044 47 22.7705 46.9162 22.5779 46.7486C22.4128 46.5532 22.3302 46.3158 22.3302 46.0365V26.1797C22.3302 25.9005 22.4128 25.677 22.5779 25.5095C22.7705 25.314 23.0044 25.2162 23.2796 25.2162H25.261C25.5362 25.2162 25.7564 25.314 25.9215 25.5095C26.1141 25.677 26.2104 25.9005 26.2104 26.1797V46.0365C26.2104 46.3158 26.1141 46.5532 25.9215 46.7486C25.7564 46.9162 25.5362 47 25.261 47H23.2796Z" fill="white"/>
<path d="M35.4233 47C35.1481 47 34.9142 46.9162 34.7216 46.7486C34.5565 46.5532 34.4739 46.3158 34.4739 46.0365V28.5676H30.9652C30.69 28.5676 30.4561 28.4838 30.2635 28.3162C30.0984 28.1207 30.0158 27.8833 30.0158 27.6041V26.1797C30.0158 25.9005 30.0984 25.677 30.2635 25.5095C30.4561 25.314 30.69 25.2162 30.9652 25.2162H34.4739V23.1216C34.4739 18.3739 36.8406 16 41.5739 16H44.0506C44.3258 16 44.5459 16.0977 44.7111 16.2932C44.9037 16.4608 45 16.6842 45 16.9635V18.3878C45 18.6671 44.9037 18.9045 44.7111 19.1C44.5459 19.2676 44.3258 19.3514 44.0506 19.3514H41.6564C40.4181 19.3514 39.5512 19.6865 39.0559 20.3568C38.5605 20.9991 38.3128 21.9905 38.3128 23.3311V25.2162H43.6378C43.913 25.2162 44.1331 25.314 44.2983 25.5095C44.4909 25.677 44.5872 25.9005 44.5872 26.1797V27.6041C44.5872 27.8833 44.4909 28.1207 44.2983 28.3162C44.1331 28.4838 43.913 28.5676 43.6378 28.5676H38.3128V46.0365C38.3128 46.3158 38.2165 46.5532 38.0239 46.7486C37.8588 46.9162 37.6386 47 37.3634 47H35.4233Z" fill="white"/>
</svg>
