<svg width="22" height="22" viewBox="0 0 22 22" fill="none" xmlns="http://www.w3.org/2000/svg">
<path fill-rule="evenodd" clip-rule="evenodd" d="M9.07144 4.21429V3H17.5714C18.2155 3 18.8333 3.25587 19.2887 3.71131C19.7441 4.16676 20 4.78447 20 5.42857V7.85714H16.3572V10.9992L14.5391 9.87441L14.5083 9.85535L14.4767 9.83781C14.0919 9.62475 13.6632 9.51113 13.2299 9.50075L13.2119 9.50032H13.2075C11.7898 9.47897 10.4999 10.5842 10.5 12.1117V12.1119V17.888L10.5 17.8894C10.5009 18.8225 10.9488 19.5532 11.5924 20H5.42858V18.7857C5.21534 18.7854 5.00594 18.729 4.82144 18.6221C4.63698 18.5156 4.48379 18.3624 4.37722 18.178C4.27065 17.9936 4.21446 17.7844 4.21429 17.5714V15.1429H6.64287V17.5714H7.85715V5.42857C7.85715 5.10652 7.98509 4.79766 8.21281 4.56994C8.44053 4.34222 8.74939 4.21429 9.07144 4.21429ZM16.3572 14.5269V15.4726L13.5 17.2403V12.7592L16.3572 14.5269Z" fill="white"/>
<path d="M9.07143 3C7.73013 3 6.64286 4.08731 6.64286 5.42857V13.9286H4.21429H3V15.1429V17.5714C3 18.9127 4.08731 20 5.42857 20C6.76984 20 7.85714 18.9127 7.85714 17.5714V5.42857C7.85714 4.75795 8.4008 4.21429 9.07143 4.21429C9.74205 4.21429 10.2857 4.75795 10.2857 5.42857V6.64286V7.85714V9.07143H11.5H16.3571V7.85714H11.5V6.64286V5.42857C11.5 4.08727 10.4127 3 9.07143 3ZM4.21429 15.1429H6.64286V17.5714C6.64286 18.2421 6.0992 18.7857 5.42857 18.7857C4.75795 18.7857 4.21429 18.2421 4.21429 17.5714V15.1429Z" fill="#B4B4B4"/>
<path d="M13.1939 11.0003C12.539 10.9855 11.9999 11.4877 12 12.1117V17.888C12.0008 18.7431 12.9725 19.2769 13.7499 18.8495L18.4164 15.9625C19.1945 15.5347 19.1945 14.4648 18.4164 14.0371L13.7499 11.15C13.5807 11.0563 13.3895 11.005 13.194 11.0003H13.1939Z" fill="#51B7FF"/>
</svg>
