<svg width="64" height="64" viewBox="0 0 64 64" fill="none" xmlns="http://www.w3.org/2000/svg">
<path d="M23.3333 19C22.7587 19 22.2076 19.2283 21.8013 19.6346C21.3949 20.0409 21.1667 20.592 21.1667 21.1667C21.1667 21.7413 21.3949 22.2924 21.8013 22.6987C22.2076 23.1051 22.7587 23.3333 23.3333 23.3333C32.9319 23.3333 40.6667 31.0681 40.6667 40.6667C40.6667 41.2413 40.8949 41.7924 41.3013 42.1987C41.7076 42.6051 42.2587 42.8333 42.8333 42.8333C43.408 42.8333 43.9591 42.6051 44.3654 42.1987C44.7717 41.7924 45 41.2413 45 40.6667C45 28.7262 35.2738 19 23.3333 19ZM23.3333 27.6667C22.7587 27.6667 22.2076 27.8949 21.8013 28.3013C21.3949 28.7076 21.1667 29.2587 21.1667 29.8333C21.1667 30.408 21.3949 30.9591 21.8013 31.3654C22.2076 31.7717 22.7587 32 23.3333 32C28.1455 32 32 35.8545 32 40.6667C32 41.2413 32.2283 41.7924 32.6346 42.1987C33.0409 42.6051 33.592 42.8333 34.1667 42.8333C34.7413 42.8333 35.2924 42.6051 35.6987 42.1987C36.1051 41.7924 36.3333 41.2413 36.3333 40.6667C36.3333 33.5128 30.4875 27.6667 23.3333 27.6667ZM23.3333 36.3333C22.1841 36.3333 21.0819 36.7899 20.2692 37.6025C19.4565 38.4152 19 39.5174 19 40.6667C19 41.8159 19.4565 42.9181 20.2692 43.7308C21.0819 44.5435 22.1841 45 23.3333 45C24.4826 45 25.5848 44.5435 26.3975 43.7308C27.2101 42.9181 27.6667 41.8159 27.6667 40.6667C27.6667 39.5174 27.2101 38.4152 26.3975 37.6025C25.5848 36.7899 24.4826 36.3333 23.3333 36.3333Z" fill="white"/>
</svg>
