<svg width="64" height="64" viewBox="0 0 64 64" fill="none" xmlns="http://www.w3.org/2000/svg">
<path d="M42.798 20.8647L40.6336 25.8797C40.2104 25.5338 39.739 25.236 39.2196 24.9862C38.7194 24.7172 38.1999 24.5827 37.6612 24.5827C37.238 24.5827 36.834 24.6692 36.4492 24.8421C36.0836 25.015 35.747 25.2456 35.4391 25.5338C35.1313 25.8221 34.862 26.1487 34.6311 26.5138C34.4003 26.8596 34.2079 27.2055 34.054 27.5514L33.4768 29.1942C33.8808 30.0397 34.2752 30.8467 34.66 31.6153C34.987 32.2686 35.3237 32.9315 35.67 33.604C36.0163 34.2573 36.3049 34.7761 36.5358 35.1604C36.9013 35.7176 37.2668 36.2941 37.6324 36.8897C37.9979 37.4662 38.4019 37.9946 38.8444 38.4749C39.0368 38.6863 39.2677 38.8304 39.537 38.9073C39.8256 38.9649 40.0853 38.9937 40.3162 38.9937C40.6817 38.9937 41.028 38.9457 41.3551 38.8496C41.6821 38.7536 41.99 38.6287 42.2785 38.4749L43 39.3972C42.7307 39.82 42.4036 40.2427 42.0188 40.6654C41.634 41.0881 41.2108 41.4724 40.7491 41.8183C40.3066 42.1642 39.8256 42.4428 39.3061 42.6541C38.8059 42.8847 38.2961 43 37.7767 43C37.3149 43 36.9013 42.9231 36.5358 42.7694C36.1895 42.6349 35.872 42.4524 35.5834 42.2218C35.2949 41.972 35.0255 41.6838 34.7754 41.3571C34.5253 41.0305 34.2656 40.6942 33.9962 40.3484C33.7846 40.0217 33.5537 39.6278 33.3036 39.1667C33.0728 38.6863 32.8323 38.1963 32.5822 37.6967C32.3321 37.1972 32.082 36.7168 31.8319 36.2556C31.5818 35.7753 31.3413 35.3718 31.1104 35.0451C31.0142 35.3718 30.9276 35.6984 30.8507 36.0251C30.7737 36.2941 30.6872 36.5727 30.591 36.8609C30.4948 37.1491 30.4082 37.3701 30.3312 37.5238C30.0427 38.1387 29.6771 38.7728 29.2346 39.4261C28.7921 40.0794 28.2823 40.675 27.7051 41.213C27.1472 41.7318 26.5316 42.1642 25.8582 42.51C25.1849 42.8367 24.473 43 23.7227 43C23.0494 43 22.3952 42.8655 21.7604 42.5965C21.1255 42.3467 20.5387 42.0104 20 41.5877L21.8181 36.8033C22.4337 37.1876 23.1071 37.5334 23.8381 37.8409C24.5692 38.1291 25.3003 38.2732 26.0314 38.2732C26.2622 38.2732 26.5027 38.254 26.7528 38.2155C27.0029 38.1579 27.2434 38.081 27.4743 37.985C27.7244 37.8697 27.9456 37.7352 28.138 37.5815C28.3304 37.4085 28.4747 37.2068 28.5709 36.9762C28.7056 36.7264 28.8499 36.3997 29.0038 35.9962C29.1577 35.5927 29.3116 35.1892 29.4655 34.7857C29.6386 34.3246 29.8118 33.8346 29.9849 33.3158L24.5596 24.6404C24.3095 24.3521 24.0017 24.1216 23.6361 23.9486C23.2898 23.7565 22.9243 23.6604 22.5395 23.6604C22.2125 23.6604 21.9046 23.7277 21.6161 23.8622C21.3275 23.9774 21.0485 24.1408 20.7792 24.3521L20 23.3434C20.2693 22.9398 20.5868 22.5459 20.9523 22.1617C21.3371 21.7581 21.7507 21.4027 22.1932 21.0952C22.6357 20.7686 23.1071 20.5092 23.6073 20.317C24.1075 20.1057 24.6173 20 25.1368 20C25.7716 20 26.3584 20.1633 26.8971 20.49C27.4358 20.7974 27.936 21.1817 28.3977 21.6429C28.8595 22.104 29.2827 22.6036 29.6675 23.1416C30.0523 23.6796 30.3986 24.1792 30.7064 24.6404C30.8603 24.8517 31.0238 25.1207 31.197 25.4474C31.3894 25.7548 31.5721 26.0622 31.7453 26.3697C31.9569 26.7155 32.1589 27.0902 32.3513 27.4937C32.5437 27.0326 32.7457 26.5714 32.9573 26.1103C33.1305 25.726 33.3036 25.3321 33.4768 24.9286C33.6692 24.5058 33.8423 24.1408 33.9962 23.8333C34.2848 23.2953 34.6119 22.7957 34.9774 22.3346C35.343 21.8734 35.747 21.4699 36.1895 21.1241C36.6512 20.7782 37.1514 20.5092 37.6901 20.317C38.2288 20.1057 38.8156 20 39.4504 20C40.0468 20 40.624 20.0769 41.1819 20.2306C41.7399 20.3843 42.2785 20.5957 42.798 20.8647Z" fill="white"/>
</svg>
