<svg width="64" height="64" viewBox="0 0 64 64" fill="none" xmlns="http://www.w3.org/2000/svg">
<path d="M20.25 16C19.9512 16.0003 19.6554 16.061 19.3799 16.1786C19.3784 16.1786 19.377 16.1786 19.3755 16.1786C19.3704 16.1808 19.3674 16.1853 19.3623 16.1875C19.1019 16.3007 18.8648 16.4627 18.6636 16.6652C18.6607 16.6681 18.6577 16.6712 18.6548 16.6741C18.46 16.8753 18.3035 17.1115 18.1934 17.3706C18.1866 17.3862 18.1778 17.3994 18.1714 17.4152C18.0588 17.6912 18.0006 17.987 18 18.2857C18 21.7143 20.1757 24.285 22.2143 26.6519C23.9261 28.6393 25.4005 30.4062 26.433 32C25.4005 33.5941 23.9263 35.3653 22.2143 37.3527C20.1756 39.7196 18 42.2857 18 45.7143C17.9997 46.0194 18.0594 46.3214 18.1758 46.6027V46.6072C18.1779 46.6122 18.1824 46.6155 18.1846 46.6206C18.2969 46.8819 18.4564 47.1197 18.6548 47.3214C18.6571 47.3238 18.6613 47.3325 18.6636 47.3348C18.8594 47.5302 19.0888 47.6876 19.3403 47.7991C19.3613 47.8085 19.3805 47.8171 19.4018 47.8259C19.6708 47.9391 19.9588 47.9983 20.25 48H42.75C43.0394 47.9991 43.3258 47.9415 43.5937 47.8304C43.6166 47.821 43.6372 47.8092 43.6597 47.7991C43.9043 47.6884 44.1275 47.5342 44.3188 47.3437C44.3296 47.3331 44.339 47.3234 44.3496 47.3125C44.5391 47.1172 44.6924 46.8889 44.8022 46.6384C44.8115 46.6171 44.82 46.5975 44.8286 46.5759C44.9401 46.3027 44.9983 46.0101 45 45.7143C45 42.2857 42.8243 39.7195 40.7857 37.3527C39.0738 35.3653 37.5995 33.5941 36.567 32C37.5995 30.4062 39.0739 28.6393 40.7857 26.6519C42.8244 24.285 45 21.7143 45 18.2857C45.0009 17.9791 44.9411 17.6755 44.8242 17.3929C44.7104 17.1225 44.5462 16.8769 44.3408 16.6697C44.14 16.4656 43.9029 16.302 43.6421 16.1875C43.6333 16.183 43.6245 16.1785 43.6157 16.1741C43.3413 16.0586 43.047 15.9994 42.75 16H20.25L20.25 16ZM23.8228 20.5715H39.1772C38.6422 21.579 38.4899 22.3753 37.4019 23.6384C35.503 25.843 33.1307 28.1465 31.7373 30.9776C31.5811 31.2951 31.4999 31.6451 31.5 32C31.5 31.6451 31.4188 31.2951 31.2626 30.9776C29.8693 28.1465 27.4968 25.843 25.598 23.6384C24.51 22.3753 24.3577 21.579 23.8227 20.5715H23.8228Z" fill="white"/>
</svg>
