<svg width="32" height="32" viewBox="0 0 32 32" fill="none" xmlns="http://www.w3.org/2000/svg">
<path d="M2.90912 4.36366C2.90912 3.56034 3.56034 2.90912 4.36366 2.90912H27.6364C28.4397 2.90912 29.0909 3.56034 29.0909 4.36366V20.3637C29.0909 21.8182 27.6364 22.5455 27.6364 22.5455L13.0909 29.0909L16 21.8182H4.36366C3.56034 21.8182 2.90912 21.167 2.90912 20.3637V4.36366Z" fill="white"/>
<path d="M12.1155 8.9193C12.6391 8.68658 13.2791 8.49458 14.0355 8.3433C14.8035 8.19203 15.5948 8.11639 16.4093 8.11639C17.0493 8.11639 17.5846 8.19203 18.0151 8.3433C18.4573 8.49458 18.8064 8.71567 19.0624 9.00658C19.3184 9.28585 19.4988 9.62912 19.6035 10.0364C19.7198 10.432 19.778 10.8742 19.778 11.3629C19.778 11.9564 19.7548 12.544 19.7082 13.1258C19.6617 13.7077 19.6384 14.3244 19.6384 14.976C19.6384 15.4182 19.6675 15.8488 19.7257 16.2677C19.7838 16.6866 19.8769 17.088 20.0049 17.472H18.0151L17.6137 16.1106H17.4042C17.1017 16.5178 16.7177 16.8669 16.2522 17.1578C15.7868 17.4488 15.1875 17.5942 14.4544 17.5942C14.0122 17.5942 13.6049 17.5302 13.2326 17.4022C12.8718 17.2742 12.5577 17.0938 12.29 16.8611C12.034 16.6168 11.8304 16.3317 11.6791 16.0058C11.5395 15.68 11.4697 15.3251 11.4697 14.9411C11.4697 13.9055 11.8129 13.1258 12.4995 12.6022C13.1977 12.0669 14.2508 11.7993 15.6588 11.7993C15.9846 11.7993 16.3104 11.8284 16.6362 11.8866C16.962 11.9331 17.1889 11.968 17.3169 11.9913C17.3518 11.7469 17.3693 11.5375 17.3693 11.3629C17.3693 10.9208 17.2588 10.5949 17.0377 10.3855C16.8166 10.176 16.4035 10.0713 15.7984 10.0713C15.2398 10.0713 14.6929 10.1411 14.1577 10.2808C13.634 10.4088 13.1686 10.5717 12.7613 10.7695L12.1155 8.9193ZM15.3097 15.6393C15.8566 15.6393 16.2929 15.5113 16.6188 15.2553C16.9446 14.9993 17.1831 14.7317 17.3344 14.4524V13.4051C17.2762 13.3818 17.1831 13.3586 17.0551 13.3353C16.9388 13.312 16.8049 13.2888 16.6537 13.2655C16.514 13.2422 16.3686 13.2248 16.2173 13.2131C16.0777 13.2015 15.9497 13.1957 15.8333 13.1957C15.2049 13.1957 14.7395 13.312 14.4369 13.5448C14.1344 13.7658 13.9831 14.0451 13.9831 14.3826C13.9831 14.8015 14.0995 15.1157 14.3322 15.3251C14.5766 15.5346 14.9024 15.6393 15.3097 15.6393Z" fill="#939393"/>
</svg>
