<svg width="22" height="22" viewBox="0 0 22 22" fill="none" xmlns="http://www.w3.org/2000/svg">
<path fill-rule="evenodd" clip-rule="evenodd" d="M11 18C14.866 18 18 14.866 18 11C18 7.13401 14.866 4 11 4C7.13401 4 4 7.13401 4 11C4 14.866 7.13401 18 11 18ZM6.64645 10.0607C7.00543 9.70168 7.49232 9.5 8 9.5C8.50768 9.5 8.99457 9.70168 9.35355 10.0607L9.64645 10.3536L10.3536 9.64645L10.0607 9.35355C9.51414 8.80703 8.7729 8.5 8 8.5C7.2271 8.5 6.48586 8.80703 5.93934 9.35355L5.64645 9.64645L6.35355 10.3536L6.64645 10.0607ZM14 9.5C13.4923 9.5 13.0054 9.70168 12.6464 10.0607L12.3536 10.3536L11.6464 9.64645L11.9393 9.35355C12.4859 8.80703 13.2271 8.5 14 8.5C14.7729 8.5 15.5141 8.80703 16.0607 9.35355L16.3536 9.64645L15.6464 10.3536L15.3536 10.0607C14.9946 9.70168 14.5077 9.5 14 9.5ZM11 16C9 16 7.5 14 7 13H15C14.5 14 13 16 11 16Z" fill="white"/>
</svg>
