<svg width="16" height="16" xmlns="http://www.w3.org/2000/svg" version="1.1">
 <g>
  <title>Layer 1</title>
  <g stroke="null" stroke-width="0" id="surface1">
   <path stroke="null" d="m8,15.08759c3.83344,0 6.94107,-3.17238 6.94107,-7.08759c0,-3.91521 -3.10764,-7.08759 -6.94107,-7.08759c-3.83343,0 -6.94107,3.17238 -6.94107,7.08759c0,3.91521 3.10764,7.08759 6.94107,7.08759zm-4.31729,-8.03829c0.35438,-0.3646 0.83824,-0.56905 1.34255,-0.56905c0.5043,0 0.98476,0.20445 1.34255,0.56905l0.28964,0.29646l0.70195,-0.71558l-0.28964,-0.29986c-0.5418,-0.55201 -1.27782,-0.8621 -2.0445,-0.8621c-0.76669,0 -1.50271,0.31008 -2.0445,0.8621l-0.28964,0.29986l0.70194,0.71558l0.28964,-0.29646zm7.29203,-0.56905c-0.5043,0 -0.98477,0.20445 -1.34255,0.56905l-0.28964,0.29646l-0.70195,-0.71558l0.28964,-0.29986c0.54179,-0.55201 1.27781,-0.8621 2.0445,-0.8621c0.76669,0 1.50271,0.31008 2.0445,0.8621l0.28964,0.29986l-0.70195,0.71558l-0.28964,-0.29646c-0.35438,-0.3646 -0.83824,-0.56905 -1.34255,-0.56905zm-2.97475,6.57987c-1.98316,0 -3.47223,-2.02405 -3.96632,-3.03608l7.93265,0c-0.49409,1.01203 -1.98316,3.03608 -3.96633,3.03608zm0,0" fill-rule="evenodd" fill="rgb(100%,100%,100%)" id="svg_1"/>
  </g>
 </g>

</svg>