<?xml version="1.0" encoding="UTF-8" standalone="no"?>
<svg width="22" height="22" viewBox="0 0 22 22" fill="none" version="1.1" id="svg4" sodipodi:docname="portrait.svg" inkscape:version="1.2.2 (732a01da63, 2022-12-09)" xmlns:inkscape="http://www.inkscape.org/namespaces/inkscape" xmlns:sodipodi="http://sodipodi.sourceforge.net/DTD/sodipodi-0.dtd" xmlns="http://www.w3.org/2000/svg" xmlns:svg="http://www.w3.org/2000/svg">
  <defs id="defs8" />
  <sodipodi:namedview id="namedview6" pagecolor="#505050" bordercolor="#eeeeee" borderopacity="1" inkscape:showpageshadow="0" inkscape:pageopacity="0" inkscape:pagecheckerboard="0" inkscape:deskcolor="#505050" showgrid="true" inkscape:zoom="16" inkscape:cx="24.90625" inkscape:cy="14.0625" inkscape:window-width="1920" inkscape:window-height="1017" inkscape:window-x="-8" inkscape:window-y="-8" inkscape:window-maximized="1" inkscape:current-layer="svg4">
    <inkscape:grid type="xygrid" id="grid6918" originx="0" originy="0" />
  </sodipodi:namedview>
  <path fill-rule="evenodd" clip-rule="evenodd" d="m 11.111095,18.651229 c 4.02883,0 7.294832,-3.334617 7.294832,-7.448091 0,-4.1134631 -3.266002,-7.4480904 -7.294832,-7.4480904 -4.0288224,0 -7.2948341,3.3346273 -7.2948341,7.4480904 0,4.113474 3.2660117,7.448091 7.2948341,7.448091 z M 6.5741771,10.203711 C 6.948277,9.821709 7.4556743,9.607119 7.9847375,9.607119 c 0.5290631,0 1.0364603,0.21459 1.4105605,0.596592 l 0.305236,0.31165 0.736935,-0.752417 -0.305237,-0.31165 C 9.562652,8.86979 8.7901913,8.5431061 7.9847375,8.5431061 c -0.805454,0 -1.5779143,0.3266839 -2.1474532,0.9081879 l -0.3052264,0.31165 0.7368825,0.752417 z M 14.237451,9.607119 c -0.529084,0 -1.036491,0.21459 -1.410613,0.596592 l -0.30513,0.31165 -0.736987,-0.752417 0.305235,-0.31165 c 0.569624,-0.581504 1.342041,-0.9081879 2.147495,-0.9081879 0.805454,0 1.577873,0.3266839 2.147496,0.9081879 l 0.305236,0.31165 -0.736986,0.752417 -0.305134,-0.31165 C 15.273943,9.821709 14.766534,9.607119 14.237451,9.607119 Z m -3.126356,6.916084 c -2.0842384,0 -3.6474173,-2.128026 -4.1684767,-3.192038 h 8.3369507 c -0.521059,1.064012 -2.084236,3.192038 -4.168474,3.192038 z" fill="#ffffff" id="path2" style="display:inline;stroke-width:1.05302" inkscape:label="Portrait" />
</svg>
