<svg width="16" height="16" viewBox="0 0 16 16" fill="none" xmlns="http://www.w3.org/2000/svg">
<path d="M1.45454 2.18183C1.45454 1.78017 1.78016 1.45456 2.18182 1.45456H13.8182C14.2198 1.45456 14.5455 1.78017 14.5455 2.18183V10.1818C14.5455 10.9091 13.8182 11.2727 13.8182 11.2727L6.54545 14.5455L8 10.9091H2.18182C1.78016 10.9091 1.45454 10.5835 1.45454 10.1818V2.18183Z" fill="white"/>
<path d="M6.05774 4.45965C6.31956 4.34329 6.63956 4.24729 7.01774 4.17165C7.40174 4.09602 7.79738 4.0582 8.20465 4.0582C8.52465 4.0582 8.79229 4.09602 9.00756 4.17165C9.22865 4.24729 9.4032 4.35783 9.5312 4.50329C9.6592 4.64292 9.74938 4.81456 9.80174 5.0182C9.85992 5.21601 9.88901 5.43711 9.88901 5.68147C9.88901 5.9782 9.87738 6.27202 9.85411 6.56292C9.83083 6.85383 9.8192 7.1622 9.8192 7.48801C9.8192 7.70911 9.83374 7.92438 9.86283 8.13383C9.89192 8.34329 9.93847 8.54402 10.0025 8.73602H9.00756L8.80683 8.05529H8.70211C8.55083 8.25892 8.35883 8.43347 8.12611 8.57892C7.89338 8.72438 7.59374 8.79711 7.2272 8.79711C7.00611 8.79711 6.80247 8.76511 6.61629 8.70111C6.43592 8.63711 6.27883 8.54692 6.14501 8.43056C6.01701 8.30838 5.9152 8.16583 5.83956 8.00292C5.76974 7.84001 5.73483 7.66256 5.73483 7.47056C5.73483 6.95274 5.90647 6.56292 6.24974 6.30111C6.59883 6.03347 7.12538 5.89965 7.82938 5.89965C7.99229 5.89965 8.1552 5.9142 8.31811 5.94329C8.48101 5.96656 8.59447 5.98401 8.65847 5.99565C8.67592 5.87347 8.68465 5.76874 8.68465 5.68147C8.68465 5.46038 8.62938 5.29747 8.51883 5.19274C8.40829 5.08801 8.20174 5.03565 7.8992 5.03565C7.61992 5.03565 7.34647 5.07056 7.07883 5.14038C6.81701 5.20438 6.58429 5.28583 6.38065 5.38474L6.05774 4.45965ZM7.65483 7.81965C7.92829 7.81965 8.14647 7.75565 8.30938 7.62765C8.47229 7.49965 8.59156 7.36583 8.6672 7.2262V6.70256C8.63811 6.69092 8.59156 6.67929 8.52756 6.66765C8.46938 6.65602 8.40247 6.64438 8.32683 6.63274C8.25701 6.62111 8.18429 6.61238 8.10865 6.60656C8.03883 6.60074 7.97483 6.59783 7.91665 6.59783C7.60247 6.59783 7.36974 6.65602 7.21847 6.77238C7.0672 6.88292 6.99156 7.02256 6.99156 7.19129C6.99156 7.40074 7.04974 7.55783 7.16611 7.66256C7.28829 7.76729 7.4512 7.81965 7.65483 7.81965Z" fill="#939393"/>
</svg>
