<svg width="32" height="32" viewBox="0 0 32 32" fill="none" xmlns="http://www.w3.org/2000/svg">
<path d="M26.4626 19.4346L28.9999 21.8617L27.3818 23.5533L24.8445 21.1262L22.4174 23.6635L20.7258 22.0454L23.1529 19.5081L20.6156 17.081L22.2337 15.3895L24.771 17.8165L27.1981 15.2792L28.8897 16.8973L26.4626 19.4346Z" fill="white"/>
<path fill-rule="evenodd" clip-rule="evenodd" d="M6.32831 7H25.5688C25.7502 7 25.8971 7.14702 25.8971 7.32831V14.9461L24.7343 16.1618L22.1969 13.7347L18.9608 17.1178L21.4982 19.5449L19.071 22.0822L20.0129 22.9831L17.1075 26.2518C16.9069 26.4774 16.5338 26.3355 16.5338 26.0336V21.9573C16.5338 21.7765 16.3875 21.6297 16.2067 21.629L6.32706 21.5924C6.14623 21.5918 6 21.445 6 21.2641V7.32831C6 7.14702 6.14702 7 6.32831 7Z" fill="white"/>
</svg>
