<svg width="22" height="22" viewBox="0 0 22 22" fill="none" xmlns="http://www.w3.org/2000/svg">
<path d="M19.2012 3.61523L17.6631 7.18359C17.3623 6.9375 17.0273 6.72559 16.6582 6.54785C16.3027 6.35645 15.9336 6.26074 15.5508 6.26074C15.25 6.26074 14.9629 6.32227 14.6895 6.44531C14.4297 6.56836 14.1904 6.73242 13.9717 6.9375C13.7529 7.14258 13.5615 7.375 13.3975 7.63477C13.2334 7.88086 13.0967 8.12695 12.9873 8.37305L12.5771 9.54199C12.8643 10.1436 13.1445 10.7178 13.418 11.2646C13.6504 11.7295 13.8896 12.2012 14.1357 12.6797C14.3818 13.1445 14.5869 13.5137 14.751 13.7871C15.0107 14.1836 15.2705 14.5938 15.5303 15.0176C15.79 15.4277 16.0771 15.8037 16.3916 16.1455C16.5283 16.2959 16.6924 16.3984 16.8838 16.4531C17.0889 16.4941 17.2734 16.5146 17.4375 16.5146C17.6973 16.5146 17.9434 16.4805 18.1758 16.4121C18.4082 16.3438 18.627 16.2549 18.832 16.1455L19.3447 16.8018C19.1533 17.1025 18.9209 17.4033 18.6475 17.7041C18.374 18.0049 18.0732 18.2783 17.7451 18.5244C17.4307 18.7705 17.0889 18.9688 16.7197 19.1191C16.3643 19.2832 16.002 19.3652 15.6328 19.3652C15.3047 19.3652 15.0107 19.3105 14.751 19.2012C14.5049 19.1055 14.2793 18.9756 14.0742 18.8115C13.8691 18.6338 13.6777 18.4287 13.5 18.1963C13.3223 17.9639 13.1377 17.7246 12.9463 17.4785C12.7959 17.2461 12.6318 16.9658 12.4541 16.6377C12.29 16.2959 12.1191 15.9473 11.9414 15.5918C11.7637 15.2363 11.5859 14.8945 11.4082 14.5664C11.2305 14.2246 11.0596 13.9375 10.8955 13.7051C10.8271 13.9375 10.7656 14.1699 10.7109 14.4023C10.6562 14.5938 10.5947 14.792 10.5264 14.9971C10.458 15.2021 10.3965 15.3594 10.3418 15.4688C10.1367 15.9062 9.87695 16.3574 9.5625 16.8223C9.24805 17.2871 8.88574 17.7109 8.47559 18.0938C8.0791 18.4629 7.6416 18.7705 7.16309 19.0166C6.68457 19.249 6.17871 19.3652 5.64551 19.3652C5.16699 19.3652 4.70215 19.2695 4.25098 19.0781C3.7998 18.9004 3.38281 18.6611 3 18.3604L4.29199 14.9561C4.72949 15.2295 5.20801 15.4756 5.72754 15.6943C6.24707 15.8994 6.7666 16.002 7.28613 16.002C7.4502 16.002 7.62109 15.9883 7.79883 15.9609C7.97656 15.9199 8.14746 15.8652 8.31152 15.7969C8.48926 15.7148 8.64648 15.6191 8.7832 15.5098C8.91992 15.3867 9.02246 15.2432 9.09082 15.0791C9.18652 14.9014 9.28906 14.6689 9.39844 14.3818C9.50781 14.0947 9.61719 13.8076 9.72656 13.5205C9.84961 13.1924 9.97266 12.8438 10.0957 12.4746L6.24023 6.30176C6.0625 6.09668 5.84375 5.93262 5.58398 5.80957C5.33789 5.67285 5.07812 5.60449 4.80469 5.60449C4.57227 5.60449 4.35352 5.65234 4.14844 5.74805C3.94336 5.83008 3.74512 5.94629 3.55371 6.09668L3 5.37891C3.19141 5.0918 3.41699 4.81152 3.67676 4.53809C3.9502 4.25098 4.24414 3.99805 4.55859 3.7793C4.87305 3.54688 5.20801 3.3623 5.56348 3.22559C5.91895 3.0752 6.28125 3 6.65039 3C7.10156 3 7.51855 3.11621 7.90137 3.34863C8.28418 3.56738 8.63965 3.84082 8.96777 4.16895C9.2959 4.49707 9.59668 4.85254 9.87012 5.23535C10.1436 5.61816 10.3896 5.97363 10.6084 6.30176C10.7178 6.45215 10.834 6.64355 10.957 6.87598C11.0938 7.09473 11.2236 7.31348 11.3467 7.53223C11.4971 7.77832 11.6406 8.04492 11.7773 8.33203C11.9141 8.00391 12.0576 7.67578 12.208 7.34766C12.3311 7.07422 12.4541 6.79395 12.5771 6.50684C12.7139 6.20605 12.8369 5.94629 12.9463 5.72754C13.1514 5.34473 13.3838 4.98926 13.6436 4.66113C13.9033 4.33301 14.1904 4.0459 14.5049 3.7998C14.833 3.55371 15.1885 3.3623 15.5713 3.22559C15.9541 3.0752 16.3711 3 16.8223 3C17.2461 3 17.6562 3.05469 18.0527 3.16406C18.4492 3.27344 18.832 3.42383 19.2012 3.61523Z" fill="white"/>
</svg>
