<svg width="22" height="22" viewBox="0 0 22 22" fill="none" xmlns="http://www.w3.org/2000/svg">
<path d="M2 3C2 2.44772 2.44772 2 3 2H19C19.5523 2 20 2.44772 20 3V14C20 15 19 15.5 19 15.5L9 20L11 15H3C2.44772 15 2 14.5523 2 14V3Z" fill="white"/>
<path d="M8.32939 6.132C8.68939 5.972 9.12939 5.84 9.64939 5.736C10.1774 5.632 10.7214 5.58 11.2814 5.58C11.7214 5.58 12.0894 5.632 12.3854 5.736C12.6894 5.84 12.9294 5.992 13.1054 6.192C13.2814 6.384 13.4054 6.62 13.4774 6.9C13.5574 7.172 13.5974 7.476 13.5974 7.812C13.5974 8.22 13.5814 8.624 13.5494 9.024C13.5174 9.424 13.5014 9.848 13.5014 10.296C13.5014 10.6 13.5214 10.896 13.5614 11.184C13.6014 11.472 13.6654 11.748 13.7534 12.012H12.3854L12.1094 11.076H11.9654C11.7574 11.356 11.4934 11.596 11.1734 11.796C10.8534 11.996 10.4414 12.096 9.93739 12.096C9.63339 12.096 9.35339 12.052 9.09739 11.964C8.84939 11.876 8.63339 11.752 8.44939 11.592C8.27339 11.424 8.13339 11.228 8.02939 11.004C7.93339 10.78 7.88539 10.536 7.88539 10.272C7.88539 9.56 8.12139 9.024 8.59339 8.664C9.07339 8.296 9.79739 8.112 10.7654 8.112C10.9894 8.112 11.2134 8.132 11.4374 8.172C11.6614 8.204 11.8174 8.228 11.9054 8.244C11.9294 8.076 11.9414 7.932 11.9414 7.812C11.9414 7.508 11.8654 7.284 11.7134 7.14C11.5614 6.996 11.2774 6.924 10.8614 6.924C10.4774 6.924 10.1014 6.972 9.73339 7.068C9.37339 7.156 9.05339 7.268 8.77339 7.404L8.32939 6.132ZM10.5254 10.752C10.9014 10.752 11.2014 10.664 11.4254 10.488C11.6494 10.312 11.8134 10.128 11.9174 9.936V9.216C11.8774 9.2 11.8134 9.184 11.7254 9.168C11.6454 9.152 11.5534 9.136 11.4494 9.12C11.3534 9.104 11.2534 9.092 11.1494 9.084C11.0534 9.076 10.9654 9.072 10.8854 9.072C10.4534 9.072 10.1334 9.152 9.92539 9.312C9.71739 9.464 9.61339 9.656 9.61339 9.888C9.61339 10.176 9.69339 10.392 9.85339 10.536C10.0214 10.68 10.2454 10.752 10.5254 10.752Z" fill="#939393"/>
</svg>
