<svg width="32" height="32" viewBox="0 0 32 32" fill="none" xmlns="http://www.w3.org/2000/svg">
<path d="M2.90912 4.36366C2.90912 3.56034 3.56034 2.90912 4.36366 2.90912H27.6364C28.4397 2.90912 29.0909 3.56034 29.0909 4.36366V5.81821C29.0909 6.62153 28.4397 7.27276 27.6364 7.27276H4.36366C3.56034 7.27276 2.90912 6.62153 2.90912 5.81821V4.36366Z" fill="white"/>
<path d="M2.90912 11.6364C2.90912 10.8331 3.56034 10.1818 4.36366 10.1818H27.6364C28.4397 10.1818 29.0909 10.8331 29.0909 11.6364V13.0909C29.0909 13.8943 28.4397 14.5455 27.6364 14.5455H4.36366C3.56034 14.5455 2.90912 13.8943 2.90912 13.0909V11.6364Z" fill="white"/>
<path d="M2.90912 18.9091C2.90912 18.1058 3.56034 17.4546 4.36366 17.4546H27.6364C28.4397 17.4546 29.0909 18.1058 29.0909 18.9091V20.3637C29.0909 21.167 28.4397 21.8182 27.6364 21.8182H4.36366C3.56034 21.8182 2.90912 21.167 2.90912 20.3637V18.9091Z" fill="white"/>
<path d="M2.90912 26.1818C2.90912 25.3785 3.56034 24.7273 4.36366 24.7273H27.6364C28.4397 24.7273 29.0909 25.3785 29.0909 26.1818V27.6364C29.0909 28.4397 28.4397 29.0909 27.6364 29.0909H4.36366C3.56034 29.0909 2.90912 28.4397 2.90912 27.6364V26.1818Z" fill="white"/>
</svg>
