<svg width="22" height="22" viewBox="0 0 22 22" fill="none" xmlns="http://www.w3.org/2000/svg">
<path d="M5.5 3C5.16848 3 4.85054 3.1317 4.61612 3.36612C4.3817 3.60054 4.25 3.91848 4.25 4.25C4.25 4.58152 4.3817 4.89946 4.61612 5.13388C4.85054 5.3683 5.16848 5.5 5.5 5.5C11.0376 5.5 15.5 9.96238 15.5 15.5C15.5 15.8315 15.6317 16.1495 15.8661 16.3839C16.1005 16.6183 16.4185 16.75 16.75 16.75C17.0815 16.75 17.3995 16.6183 17.6339 16.3839C17.8683 16.1495 18 15.8315 18 15.5C18 8.61125 12.3888 3 5.5 3ZM5.5 8C5.16848 8 4.85054 8.1317 4.61612 8.36612C4.3817 8.60054 4.25 8.91848 4.25 9.25C4.25 9.58152 4.3817 9.89946 4.61612 10.1339C4.85054 10.3683 5.16848 10.5 5.5 10.5C8.27625 10.5 10.5 12.7238 10.5 15.5C10.5 15.8315 10.6317 16.1495 10.8661 16.3839C11.1005 16.6183 11.4185 16.75 11.75 16.75C12.0815 16.75 12.3995 16.6183 12.6339 16.3839C12.8683 16.1495 13 15.8315 13 15.5C13 11.3727 9.62737 8 5.5 8ZM5.5 13C4.83696 13 4.20107 13.2634 3.73223 13.7322C3.26339 14.2011 3 14.837 3 15.5C3 16.163 3.26339 16.7989 3.73223 17.2678C4.20107 17.7366 4.83696 18 5.5 18C6.16304 18 6.79893 17.7366 7.26777 17.2678C7.73661 16.7989 8 16.163 8 15.5C8 14.837 7.73661 14.2011 7.26777 13.7322C6.79893 13.2634 6.16304 13 5.5 13Z" fill="white"/>
</svg>
