<svg width="22" height="22" viewBox="0 0 22 22" fill="none" xmlns="http://www.w3.org/2000/svg">
<path d="M3.07188 2C2.7876 2 2.51496 2.10536 2.31395 2.29289C2.11293 2.48043 2 2.73478 2 3V19C2 19.2652 2.11293 19.5196 2.31395 19.7071C2.51496 19.8946 2.7876 20 3.07188 20H18.9281C18.9281 20 19.485 19.8946 19.6861 19.7071C19.8871 19.5196 20 19.2652 20 19C20 18.7348 20 3 20 3C20 2.73478 19.8871 2.48043 19.6861 2.29289C19.485 2.10536 19.2124 2 18.9281 2H3.07188ZM4 4H18V16H4V4Z" fill="white"/>
<path d="M14.9894 14.3602H7.17412C6.49264 14.3602 5.98862 13.761 6.14272 13.1341L6.68913 10.9111C6.80974 10.4204 7.29797 10.0911 7.82855 10.1425L9.53217 10.3075C9.87368 10.3406 10.211 10.2152 10.437 9.97121L12.5385 7.70295C13.0832 7.11506 14.0993 7.31757 14.346 8.06318L16 13.062C16.2131 13.7059 15.7037 14.3602 14.9894 14.3602Z" fill="white"/>
</svg>
