<svg width="32" height="32" viewBox="0 0 32 32" fill="none" xmlns="http://www.w3.org/2000/svg">
<path d="M8 19.5854V13.0267C8 12.6728 8.29274 12.3859 8.65385 12.3859H11.8125C11.935 12.3859 12.0551 12.3521 12.159 12.2885L18.9996 8.09843C19.4351 7.83168 20 8.13852 20 8.64182V16.4862C19.7513 16.3859 19.4857 16.3318 19.2175 16.3255L19.2057 16.3252H19.2034C18.0496 16.3061 17.0191 17.1847 17.0192 18.3755V23.3006L12.159 20.3236C12.0551 20.2599 11.935 20.2262 11.8125 20.2262H8.65385C8.29274 20.2262 8 19.9393 8 19.5854Z" fill="white"/>
<path d="M20 18.715V23.697L19.2634 24.1436C19.1942 24.1755 19.1198 24.171 19.056 24.1367C19.0229 24.1188 19.0033 24.0979 18.9936 24.0829C18.986 24.071 18.9808 24.0581 18.9808 24.0359V18.3755C18.9808 18.3553 18.9879 18.3286 19.0196 18.2997C19.0521 18.27 19.1037 18.2459 19.1713 18.2473C19.2055 18.2482 19.2366 18.256 19.2625 18.2678L20 18.715Z" fill="white"/>
<path d="M19.0344 17.3108C18.3615 17.2965 17.8076 17.7792 17.8077 18.379V23.9311C17.8085 24.7531 18.8069 25.2662 19.6057 24.8553L24.4004 22.0803C25.1999 21.6692 25.1999 20.6408 24.4004 20.2297L19.6057 17.4547C19.4318 17.3646 19.2354 17.3153 19.0344 17.3108Z" fill="white"/>
</svg>
