<?xml version="1.0" encoding="UTF-8" standalone="no"?>
<svg width="31" height="22" viewBox="0 0 31 22" fill="none" version="1.1" id="svg4" sodipodi:docname="update_mirror.svg" inkscape:version="1.2.2 (732a01da63, 2022-12-09)" xmlns:inkscape="http://www.inkscape.org/namespaces/inkscape" xmlns:sodipodi="http://sodipodi.sourceforge.net/DTD/sodipodi-0.dtd" xmlns="http://www.w3.org/2000/svg" xmlns:svg="http://www.w3.org/2000/svg">
  <defs id="defs8" />
  <sodipodi:namedview id="namedview6" pagecolor="#505050" bordercolor="#eeeeee" borderopacity="1" inkscape:showpageshadow="0" inkscape:pageopacity="0" inkscape:pagecheckerboard="0" inkscape:deskcolor="#505050" showgrid="true" inkscape:zoom="16" inkscape:cx="21.84375" inkscape:cy="14.0625" inkscape:window-width="1920" inkscape:window-height="1017" inkscape:window-x="-8" inkscape:window-y="-8" inkscape:window-maximized="1" inkscape:current-layer="svg4">
    <inkscape:grid type="xygrid" id="grid6918" originx="0" originy="0" />
  </sodipodi:namedview>
  <g inkscape:groupmode="layer" id="layer2" inkscape:label="Mirror" style="display:inline">
    <path id="path8742" style="fill:#ffffff;fill-opacity:1;stroke-width:0.759831" d="m 10.967882,3.1351682 c 0.863708,-0.038595 2.312143,1.467492 2.312143,3.2198562 v 0 c 0,1.7523639 -1.491571,3.2198509 -2.312143,3.2198509" sodipodi:nodetypes="cssc" class="UnoptimicedTransforms" transform="matrix(1.1995187,0,0,1.1995187,-2.6822942,-1.4596729)" />
    <path id="path16944" style="fill:#ffffff;fill-opacity:1;stroke-width:0.914608" d="m 7.5210109,10.015357 c -0.023367,7.6e-4 -0.046802,8.86e-4 -0.070302,0.0012 -0.9139878,0.009 -2.8630987,-1.7296781 -2.8630987,-3.8633837 0,-2.1337061 1.9491109,-3.8466572 2.8630988,-3.8634194 0.023497,-4.31e-4 0.046938,3.82e-4 0.070302,0.00113" sodipodi:nodetypes="csssc" />
    <path id="path8744" style="display:inline;fill:#ffffff;fill-opacity:1;stroke-width:0.866873" d="m 10.468766,9.4004107 c 0.0017,-5.3e-6 0.0035,-8.8e-6 0.0051,-8.8e-6 1.704613,0 3.086415,2.9100071 3.086415,6.4996661 v 0 c 0,1.999827 -1.381802,1.999829 -3.086415,1.999829 h -0.0052" />
    <path id="path16885" style="display:inline;fill:#ffffff;fill-opacity:1;stroke-width:0.874663" d="m 7.5210109,17.899897 c -1.7328976,-2e-6 -3.1367969,-0.002 -3.1367969,-1.999829 0,-3.586045 1.4039606,-6.4938047 3.1369101,-6.4996573" />
    <path style="display:none;fill:none;fill-opacity:0.980952;stroke:#ffffff;stroke-width:1.4;stroke-linecap:round;stroke-linejoin:round;stroke-dasharray:none" d="M 4.3862586,18.660184 H 13.902208" id="path11459" />
    <path style="display:none;fill:none;fill-opacity:0.980952;stroke:#ffffff;stroke-width:1.4;stroke-linecap:round;stroke-linejoin:round;stroke-dasharray:none" d="m 5.0553488,16.987459 -1.3381805,1.635554 1.3010089,1.970099" id="path11461" />
    <path style="display:none;fill:none;fill-opacity:0.980952;stroke:#ffffff;stroke-width:1.4;stroke-linecap:round;stroke-linejoin:round;stroke-dasharray:none" d="m 13.567664,16.875944 0.854949,1.821412 -0.817777,1.9701" id="path11463" />
    <path style="fill:#ffffff;fill-opacity:1;stroke:#ffffff;stroke-width:1.37801;stroke-linecap:round;stroke-linejoin:round;stroke-dasharray:none;stroke-opacity:0.981752" d="m 9.0131471,1.539982 -0.03659,16.903546" id="path16998" />
  </g>
  <path id="path26928" style="display:inline;fill:#ff4596;fill-opacity:1;stroke-width:0.613366" inkscape:label="path26928" d="m 17.19844,8.281361 c -0.272575,-8.2e-6 -0.500185,9.5e-6 -0.687018,0.012976 -0.194489,0.013249 -0.37819,0.041877 -0.556302,0.1156474 -0.4133,0.1711984 -0.741702,0.4995528 -0.912902,0.9128597 -0.08914,0.2151709 -0.113203,0.4419435 -0.122463,0.6884219 -0.0075,0.198126 -0.107439,0.363433 -0.25499,0.44863 -0.147562,0.08519 -0.340728,0.08912 -0.516018,-0.0037 -0.218061,-0.115251 -0.426533,-0.207727 -0.657444,-0.238134 -0.443521,-0.05839 -0.892077,0.06181 -1.246989,0.33413 -0.152944,0.117382 -0.269558,0.262171 -0.378298,0.423977 -0.104461,0.155439 -0.218268,0.352519 -0.354578,0.588618 l -0.01552,0.02687 c -0.136286,0.236087 -0.250093,0.433158 -0.332475,0.601337 -0.08575,0.17508 -0.152839,0.348492 -0.178013,0.53963 -0.05839,0.443529 0.06182,0.892086 0.334128,1.247025 0.141774,0.184685 0.326035,0.319018 0.534849,0.450213 0.167922,0.105499 0.261112,0.274802 0.2611,0.445256 -4e-6,0.170395 -0.09319,0.339684 -0.2611,0.445179 -0.208839,0.131218 -0.393112,0.265542 -0.534887,0.450286 -0.272334,0.354894 -0.39255,0.803431 -0.334165,1.246956 0.02519,0.191135 0.09222,0.364576 0.178014,0.53963 0.08239,0.168183 0.196157,0.365293 0.332477,0.601374 l 0.01552,0.02687 c 0.136299,0.236083 0.250113,0.433152 0.354577,0.588576 0.108764,0.161802 0.225385,0.306641 0.378336,0.423982 0.35491,0.272332 0.803465,0.392553 1.246989,0.334165 0.230896,-0.03043 0.439318,-0.122887 0.657371,-0.238137 0.175301,-0.09269 0.368508,-0.08873 0.516089,-0.0034 0.147577,0.08519 0.247617,0.250486 0.255026,0.448666 0.0092,0.246453 0.03333,0.473216 0.122463,0.688386 0.171199,0.413282 0.4996,0.741708 0.912902,0.912899 0.178115,0.0738 0.361807,0.102372 0.556303,0.115607 0.186836,0.01298 0.414443,0.01298 0.687018,0.01298 h 0.03098 c 0.272641,0 0.500197,0 0.687087,-0.01298 0.194489,-0.01325 0.378223,-0.04182 0.556344,-0.11562 0.413285,-0.171184 0.741671,-0.499617 0.912862,-0.912901 0.08914,-0.21517 0.113203,-0.441908 0.122409,-0.68842 0.0075,-0.198111 0.107425,-0.36345 0.254987,-0.448709 0.147577,-0.08522 0.340795,-0.08914 0.516092,0.0034 0.218051,0.115251 0.426474,0.207726 0.657404,0.2381 0.443522,0.05839 0.892099,-0.06174 1.246993,-0.334094 0.152961,-0.117441 0.269546,-0.262206 0.378297,-0.424009 0.104448,-0.155439 0.218252,-0.352497 0.354541,-0.588579 l 0.01569,-0.02687 c 0.136272,-0.236049 0.2501,-0.433192 0.332472,-0.601376 0.08573,-0.17506 0.152807,-0.348467 0.178015,-0.539596 0.05839,-0.443585 -0.06185,-0.89213 -0.334163,-1.247026 C 22.966705,15.585721 22.782388,15.451451 22.573601,15.320252 22.405679,15.214753 22.3125,15.045453 22.3125,14.875 c 0,-0.170395 0.09314,-0.339612 0.261028,-0.445112 0.208903,-0.131191 0.393243,-0.265477 0.534992,-0.450283 0.272333,-0.354903 0.392559,-0.803461 0.334166,-1.246992 -0.0252,-0.191132 -0.09228,-0.364516 -0.178014,-0.539595 -0.08236,-0.168164 -0.196157,-0.365264 -0.332511,-0.601337 l -0.01552,-0.02685 c -0.136362,-0.236031 -0.25012,-0.433148 -0.354576,-0.588582 -0.108763,-0.161803 -0.225359,-0.306611 -0.378332,-0.423976 -0.354895,-0.27233 -0.80344,-0.392521 -1.247026,-0.33413 -0.230874,0.03042 -0.439283,0.122886 -0.657331,0.238135 -0.17532,0.09266 -0.368517,0.08873 -0.516097,0.0034 -0.147577,-0.0852 -0.247635,-0.250542 -0.25506,-0.448696 C 19.499068,9.7645223 19.474933,9.5377607 19.385811,9.3226061 19.21463,8.9093853 18.886236,8.5810255 18.472951,8.4098311 18.294838,8.336061 18.111106,8.3074462 17.916607,8.2941837 17.729734,8.281208 17.502159,8.281208 17.229518,8.281208 Z m 0.01569,4.293575 c 1.270347,0 2.300127,1.029802 2.300127,2.300124 0,1.270344 -1.02978,2.300124 -2.300127,2.300124 -1.270314,0 -2.300123,-1.02978 -2.300123,-2.300124 0,-1.270322 1.029809,-2.300124 2.300123,-2.300124 z" />
</svg>
