<?xml version="1.0" encoding="UTF-8" standalone="no"?>
<svg width="31" height="22" viewBox="0 0 31 22" fill="none" version="1.1" id="svg4" sodipodi:docname="update_portrait.svg" inkscape:version="1.2.2 (732a01da63, 2022-12-09)" xmlns:inkscape="http://www.inkscape.org/namespaces/inkscape" xmlns:sodipodi="http://sodipodi.sourceforge.net/DTD/sodipodi-0.dtd" xmlns="http://www.w3.org/2000/svg" xmlns:svg="http://www.w3.org/2000/svg">
  <defs id="defs8" />
  <sodipodi:namedview id="namedview6" pagecolor="#505050" bordercolor="#eeeeee" borderopacity="1" inkscape:showpageshadow="0" inkscape:pageopacity="0" inkscape:pagecheckerboard="0" inkscape:deskcolor="#505050" showgrid="true" inkscape:zoom="16" inkscape:cx="23.75" inkscape:cy="14.0625" inkscape:window-width="1920" inkscape:window-height="1017" inkscape:window-x="-8" inkscape:window-y="-8" inkscape:window-maximized="1" inkscape:current-layer="svg4">
    <inkscape:grid type="xygrid" id="grid6918" originx="0" originy="0" />
  </sodipodi:namedview>
  <path fill-rule="evenodd" clip-rule="evenodd" d="m 9.9375,15.875 c 3.576743,0 6.476256,-2.960429 6.476256,-6.612317 0,-3.6518789 -2.899513,-6.612317 -6.476256,-6.612317 -3.5767353,0 -6.4762575,2.9604381 -6.4762575,6.612317 0,3.651888 2.8995222,6.612317 6.4762575,6.612317 z M 5.9096842,8.375405 c 0.332121,-0.339136 0.7825817,-0.5296473 1.2522769,-0.5296473 0.4696953,0 0.9201559,0.1905113 1.2522768,0.5296473 L 8.6852232,8.652084 9.339464,7.984097 9.0684787,7.7074187 C 8.5628126,7.1911667 7.8770324,6.9011417 7.1619611,6.9011417 c -0.7150713,0 -1.4008514,0.290025 -1.9064807,0.806277 L 4.9845045,7.984097 5.6386991,8.652084 Z M 12.713037,7.8457577 c -0.469713,0 -0.920183,0.1905113 -1.252322,0.5296473 L 11.189823,8.652084 10.535537,7.984097 10.806521,7.7074187 c 0.505703,-0.516252 1.191445,-0.806277 1.906516,-0.806277 0.715072,0 1.400815,0.290025 1.906519,0.806277 L 14.890541,7.984097 14.236254,8.652084 13.965361,8.375405 C 13.633222,8.036269 13.182751,7.8457577 12.713037,7.8457577 Z M 9.9375,13.985766 c -1.8503592,0 -3.2381288,-1.889233 -3.7007186,-2.833849 h 7.4014356 c -0.46259,0.944616 -1.850358,2.833849 -3.700717,2.833849 z" fill="#ffffff" id="path2" style="display:inline;stroke-width:0.934854" inkscape:label="Portrait" />
  <path id="path26928" style="display:inline;fill:#ff4596;fill-opacity:1;stroke-width:0.613366" inkscape:label="path26928" d="m 19.13594,6.968861 c -0.272575,-8.2e-6 -0.500185,9.5e-6 -0.687018,0.012976 -0.194489,0.013249 -0.37819,0.041877 -0.556302,0.1156474 -0.4133,0.1711984 -0.741702,0.4995528 -0.912902,0.9128597 -0.08914,0.2151709 -0.113203,0.4419435 -0.122463,0.6884214 -0.0075,0.1981263 -0.107439,0.3634338 -0.25499,0.4486307 -0.147562,0.085189 -0.340728,0.089123 -0.516018,-0.00369 -0.218061,-0.1152514 -0.426533,-0.207727 -0.657444,-0.2381338 -0.443521,-0.058391 -0.892077,0.061805 -1.246989,0.3341293 -0.152944,0.1173821 -0.269558,0.2621716 -0.378298,0.4239769 -0.104461,0.1554392 -0.218268,0.3525194 -0.354578,0.5886184 l -0.01552,0.02687 c -0.136286,0.236087 -0.250093,0.433158 -0.332475,0.601337 -0.08575,0.17508 -0.152839,0.348492 -0.178013,0.53963 -0.05839,0.443529 0.06182,0.892086 0.334128,1.247025 0.141774,0.184685 0.326035,0.319018 0.534849,0.450213 0.167922,0.105499 0.261112,0.274802 0.2611,0.445256 -4e-6,0.170395 -0.09319,0.339684 -0.2611,0.445179 -0.208839,0.131218 -0.393112,0.265542 -0.534887,0.450286 -0.272334,0.354894 -0.39255,0.803431 -0.334165,1.246956 0.02519,0.191135 0.09222,0.364576 0.178014,0.53963 0.08239,0.168183 0.196157,0.365293 0.332477,0.601374 l 0.01552,0.02687 c 0.136299,0.236083 0.250113,0.433152 0.354577,0.588576 0.108764,0.161802 0.225385,0.306641 0.378336,0.423982 0.35491,0.272332 0.803465,0.392553 1.246989,0.334165 0.230896,-0.03043 0.439318,-0.122887 0.657371,-0.238137 0.175301,-0.09269 0.368508,-0.08873 0.516089,-0.0034 0.147577,0.08519 0.247617,0.250486 0.255026,0.448666 0.0092,0.246453 0.03333,0.473216 0.122463,0.688386 0.171199,0.413282 0.4996,0.741708 0.912902,0.912899 0.178115,0.0738 0.361807,0.102372 0.556303,0.115607 0.186836,0.01298 0.414443,0.01298 0.687018,0.01298 h 0.03098 c 0.272641,0 0.500197,0 0.687087,-0.01298 0.194489,-0.01325 0.378223,-0.04182 0.556344,-0.11562 0.413285,-0.171184 0.741671,-0.499617 0.912862,-0.912901 0.08914,-0.21517 0.113203,-0.441908 0.122409,-0.68842 0.0075,-0.198111 0.107425,-0.36345 0.254987,-0.448709 0.147577,-0.08522 0.340795,-0.08914 0.516092,0.0034 0.218051,0.115251 0.426474,0.207726 0.657404,0.2381 0.443522,0.05839 0.892099,-0.06174 1.246993,-0.334094 0.152961,-0.117441 0.269546,-0.262206 0.378297,-0.424009 0.104448,-0.155439 0.218252,-0.352497 0.354541,-0.588579 l 0.01569,-0.02687 c 0.136272,-0.236049 0.2501,-0.433192 0.332472,-0.601376 0.08573,-0.17506 0.152807,-0.348467 0.178015,-0.539596 0.05839,-0.443585 -0.06185,-0.89213 -0.334163,-1.247026 C 24.904205,14.273221 24.719888,14.138951 24.511101,14.007752 24.343179,13.902253 24.25,13.732953 24.25,13.5625 c 0,-0.170395 0.09314,-0.339612 0.261028,-0.445112 0.208903,-0.131191 0.393243,-0.265477 0.534992,-0.450283 0.272333,-0.354903 0.392559,-0.803461 0.334166,-1.246992 -0.0252,-0.191132 -0.09228,-0.364516 -0.178014,-0.539595 -0.08236,-0.168164 -0.196157,-0.365264 -0.332511,-0.601337 l -0.01552,-0.02685 C 24.717779,10.016297 24.604021,9.8191797 24.499565,9.6637461 24.390802,9.5019435 24.274206,9.3571349 24.121233,9.2397705 23.766338,8.9674396 23.317793,8.8472493 22.874207,8.9056399 22.643333,8.9360576 22.434924,9.0285264 22.216876,9.143775 22.041556,9.236435 21.848359,9.232501 21.700779,9.147185 21.553202,9.0619873 21.453144,8.8966429 21.445719,8.6984893 21.436568,8.4520223 21.412433,8.2252607 21.323311,8.0101061 21.15213,7.5968853 20.823736,7.2685255 20.410451,7.0973311 20.232338,7.023561 20.048606,6.9949462 19.854107,6.9816837 19.667234,6.968708 19.439659,6.968708 19.167018,6.968708 Z m 0.01569,4.293575 c 1.270347,0 2.300127,1.029802 2.300127,2.300124 0,1.270344 -1.02978,2.300124 -2.300127,2.300124 -1.270314,0 -2.300123,-1.02978 -2.300123,-2.300124 0,-1.270322 1.029809,-2.300124 2.300123,-2.300124 z" />
</svg>
