<?xml version="1.0" encoding="UTF-8" standalone="no"?>
<svg width="31" height="22" viewBox="0 0 31 22" fill="none" version="1.1" id="svg4" sodipodi:docname="update_position.svg" inkscape:version="1.2.2 (732a01da63, 2022-12-09)" xmlns:inkscape="http://www.inkscape.org/namespaces/inkscape" xmlns:sodipodi="http://sodipodi.sourceforge.net/DTD/sodipodi-0.dtd" xmlns="http://www.w3.org/2000/svg" xmlns:svg="http://www.w3.org/2000/svg">
  <defs id="defs8" />
  <sodipodi:namedview id="namedview6" pagecolor="#505050" bordercolor="#eeeeee" borderopacity="1" inkscape:showpageshadow="0" inkscape:pageopacity="0" inkscape:pagecheckerboard="0" inkscape:deskcolor="#505050" showgrid="true" inkscape:zoom="16" inkscape:cx="23.84375" inkscape:cy="14.0625" inkscape:window-width="1920" inkscape:window-height="1017" inkscape:window-x="-8" inkscape:window-y="-8" inkscape:window-maximized="1" inkscape:current-layer="svg4">
    <inkscape:grid type="xygrid" id="grid6918" originx="0" originy="0" />
  </sodipodi:namedview>
  <path fill-rule="evenodd" clip-rule="evenodd" d="m 9.6329576,18.73815 c 4.1893454,0 7.5854694,-3.467473 7.5854694,-7.744834 0,-4.2773499 -3.396124,-7.7448337 -7.5854694,-7.7448337 -4.1893365,0 -7.5854711,3.4674838 -7.5854711,7.7448337 0,4.277361 3.3961346,7.744834 7.5854711,7.744834 z M 4.9152823,9.9540703 c 0.3890046,-0.397221 0.9166174,-0.6203616 1.4667592,-0.6203616 0.5501418,0 1.0777545,0.2231406 1.4667591,0.6203616 L 8.1661985,10.278137 8.9324937,9.4957421 8.6150957,9.1716755 C 8.0228222,8.5670037 7.2195858,8.2273042 6.3820415,8.2273042 c -0.8375444,0 -1.6407807,0.3396995 -2.233011,0.9443713 l -0.317387,0.3240666 0.766241,0.7823949 z M 12.883872,9.3337087 c -0.550163,0 -1.077787,0.2231406 -1.466813,0.6203616 L 11.099771,10.278137 10.333423,9.4957421 10.650819,9.1716755 c 0.592317,-0.6046718 1.395509,-0.9443713 2.233053,-0.9443713 0.837545,0 1.640738,0.3396995 2.233056,0.9443713 l 0.317397,0.3240666 -0.766349,0.7823949 -0.31729,-0.3240667 C 13.96166,9.5568493 13.434035,9.3337087 12.883872,9.3337087 Z M 9.6329576,16.52534 c -2.1672773,0 -3.7927356,-2.21281 -4.3345549,-3.319213 h 8.6691083 c -0.54182,1.106403 -2.167276,3.319213 -4.3345534,3.319213 z" fill="#ffffff" id="path2" style="display:none;stroke-width:1.09497" inkscape:label="Portrait" />
  <path style="display:none;fill:none;fill-opacity:0.980952;stroke:#ffffff;stroke-width:2.5;stroke-linecap:round;stroke-linejoin:round;stroke-dasharray:none" d="m 17.531776,3.4508426 1.936447,3.0983145 3.063553,4.9016859 -5,8" id="path4576" sodipodi:nodetypes="cccc" />
  <g inkscape:groupmode="layer" id="layer3" inkscape:label="Position" style="display:inline">
    <path d="m 15.435727,5.7204944 c 0,2.118883 -1.717741,3.8365686 -3.836615,3.8365686 -2.1188833,0 -3.8365806,-1.7176856 -3.8365806,-3.8365686 0,-2.1188838 1.7176973,-3.8365775 3.8365806,-3.8365775 2.118874,0 3.836615,1.7176937 3.836615,3.8365775 z" fill="#ffffff" id="path19723" style="stroke-width:1.05506" />
    <path d="m 16.202965,15.244259 c 0,1.985936 -2.061163,1.985936 -4.603853,1.985936 -2.542658,0 -4.6038923,0 -4.6038923,-1.985936 0,-3.564724 2.0612343,-6.454507 4.6038923,-6.454507 2.54269,0 4.603853,2.889783 4.603853,6.454507 z" fill="#ffffff" id="path19725" style="stroke-width:1.05506" />
    <path style="fill:none;stroke:#ffffff;stroke-width:1.744;stroke-linecap:round;stroke-linejoin:round;stroke-dasharray:none;stroke-dashoffset:0.236785;stroke-opacity:1" d="m 7.2613947,9.27472 h -4" id="path22754" sodipodi:nodetypes="cc" />
    <path style="fill:none;stroke:#ffffff;stroke-width:1.7;stroke-linecap:round;stroke-linejoin:round;stroke-dasharray:none;stroke-dashoffset:0.236785;stroke-opacity:1" d="m 5.2613947,6.2747209 -2,2.9999991 2,3" id="path22756" sodipodi:nodetypes="ccc" />
    <path style="fill:none;stroke:#ffffff;stroke-width:1.64208;stroke-linecap:round;stroke-linejoin:round;stroke-dasharray:none;stroke-dashoffset:0.236785;stroke-opacity:1" d="m 15.767666,9.21222 h 3.487458" id="path25041" sodipodi:nodetypes="cc" />
    <path style="fill:none;stroke:#ffffff;stroke-width:1.60066;stroke-linecap:round;stroke-linejoin:round;stroke-dasharray:none;stroke-dashoffset:0.236785;stroke-opacity:1" d="M 17.511395,6.1617262 19.255124,9.21222 17.511395,12.262715" id="path25043" sodipodi:nodetypes="ccc" />
  </g>
  <path id="path26928" style="display:inline;fill:#ff4596;fill-opacity:1;stroke-width:0.613366" inkscape:label="path26928" d="m 20.13594,8.406361 c -0.272575,-8.2e-6 -0.500185,9.5e-6 -0.687018,0.012976 -0.194489,0.013249 -0.37819,0.041877 -0.556302,0.1156474 -0.4133,0.1711984 -0.741702,0.4995528 -0.912902,0.9128597 -0.08914,0.2151709 -0.113203,0.4419435 -0.122463,0.6884219 -0.0075,0.198126 -0.107439,0.363433 -0.25499,0.44863 -0.147562,0.08519 -0.340728,0.08912 -0.516018,-0.0037 -0.218061,-0.115251 -0.426533,-0.207727 -0.657444,-0.238134 -0.443521,-0.05839 -0.892077,0.06181 -1.246989,0.33413 -0.152944,0.117382 -0.269558,0.262171 -0.378298,0.423977 -0.104461,0.155439 -0.218268,0.352519 -0.354578,0.588618 l -0.01552,0.02687 c -0.136286,0.236087 -0.250093,0.433158 -0.332475,0.601337 -0.08575,0.17508 -0.152839,0.348492 -0.178013,0.53963 -0.05839,0.443529 0.06182,0.892086 0.334128,1.247025 0.141774,0.184685 0.326035,0.319018 0.534849,0.450213 0.167922,0.105499 0.261112,0.274802 0.2611,0.445256 -4e-6,0.170395 -0.09319,0.339684 -0.2611,0.445179 -0.208839,0.131218 -0.393112,0.265542 -0.534887,0.450286 -0.272334,0.354894 -0.39255,0.803431 -0.334165,1.246956 0.02519,0.191135 0.09222,0.364576 0.178014,0.53963 0.08239,0.168183 0.196157,0.365293 0.332477,0.601374 l 0.01552,0.02687 c 0.136299,0.236083 0.250113,0.433152 0.354577,0.588576 0.108764,0.161802 0.225385,0.306641 0.378336,0.423982 0.35491,0.272332 0.803465,0.392553 1.246989,0.334165 0.230896,-0.03043 0.439318,-0.122887 0.657371,-0.238137 0.175301,-0.09269 0.368508,-0.08873 0.516089,-0.0034 0.147577,0.08519 0.247617,0.250486 0.255026,0.448666 0.0092,0.246453 0.03333,0.473216 0.122463,0.688386 0.171199,0.413282 0.4996,0.741708 0.912902,0.912899 0.178115,0.0738 0.361807,0.102372 0.556303,0.115607 0.186836,0.01298 0.414443,0.01298 0.687018,0.01298 h 0.03098 c 0.272641,0 0.500197,0 0.687087,-0.01298 0.194489,-0.01325 0.378223,-0.04182 0.556344,-0.11562 0.413285,-0.171184 0.741671,-0.499617 0.912862,-0.912901 0.08914,-0.21517 0.113203,-0.441908 0.122409,-0.68842 0.0075,-0.198111 0.107425,-0.36345 0.254987,-0.448709 0.147577,-0.08522 0.340795,-0.08914 0.516092,0.0034 0.218051,0.115251 0.426474,0.207726 0.657404,0.2381 0.443522,0.05839 0.892099,-0.06174 1.246993,-0.334094 0.152961,-0.117441 0.269546,-0.262206 0.378297,-0.424009 0.104448,-0.155439 0.218252,-0.352497 0.354541,-0.588579 l 0.01569,-0.02687 c 0.136272,-0.236049 0.2501,-0.433192 0.332472,-0.601376 0.08573,-0.17506 0.152807,-0.348467 0.178015,-0.539596 0.05839,-0.443585 -0.06185,-0.89213 -0.334163,-1.247026 C 25.904205,15.710721 25.719888,15.576451 25.511101,15.445252 25.343179,15.339753 25.25,15.170453 25.25,15 c 0,-0.170395 0.09314,-0.339612 0.261028,-0.445112 0.208903,-0.131191 0.393243,-0.265477 0.534992,-0.450283 0.272333,-0.354903 0.392559,-0.803461 0.334166,-1.246992 -0.0252,-0.191132 -0.09228,-0.364516 -0.178014,-0.539595 -0.08236,-0.168164 -0.196157,-0.365264 -0.332511,-0.601337 l -0.01552,-0.02685 c -0.136362,-0.236031 -0.25012,-0.433148 -0.354576,-0.588582 -0.108763,-0.161803 -0.225359,-0.306611 -0.378332,-0.423976 -0.354895,-0.27233 -0.80344,-0.392521 -1.247026,-0.33413 -0.230874,0.03042 -0.439283,0.122886 -0.657331,0.238135 -0.17532,0.09266 -0.368517,0.08873 -0.516097,0.0034 -0.147577,-0.0852 -0.247635,-0.250542 -0.25506,-0.448696 C 22.436568,9.8895223 22.412433,9.6627607 22.323311,9.4476061 22.15213,9.0343853 21.823736,8.7060255 21.410451,8.5348311 21.232338,8.461061 21.048606,8.4324462 20.854107,8.4191837 20.667234,8.406208 20.439659,8.406208 20.167018,8.406208 Z m 0.01569,4.293575 c 1.270347,0 2.300127,1.029802 2.300127,2.300124 0,1.270344 -1.02978,2.300124 -2.300127,2.300124 -1.270314,0 -2.300123,-1.02978 -2.300123,-2.300124 0,-1.270322 1.029809,-2.300124 2.300123,-2.300124 z" />
</svg>
