<?xml version="1.0" encoding="UTF-8" standalone="no"?>
<!-- Created with Inkscape (http://www.inkscape.org/) -->

<svg width="63.999996" height="63.999996" viewBox="0 0 16.933332 16.933332" version="1.1" id="svg5" inkscape:export-filename="return-icon.svg" inkscape:export-xdpi="96" inkscape:export-ydpi="96" sodipodi:docname="icon.svg" inkscape:version="1.2.2 (732a01da63, 2022-12-09)" xmlns:inkscape="http://www.inkscape.org/namespaces/inkscape" xmlns:sodipodi="http://sodipodi.sourceforge.net/DTD/sodipodi-0.dtd" xmlns="http://www.w3.org/2000/svg" xmlns:svg="http://www.w3.org/2000/svg">
  <sodipodi:namedview id="namedview7" pagecolor="#464646" bordercolor="#000000" borderopacity="0.25" inkscape:showpageshadow="2" inkscape:pageopacity="0" inkscape:pagecheckerboard="0" inkscape:deskcolor="#d1d1d1" inkscape:document-units="mm" showgrid="false" showguides="true" inkscape:zoom="1.5898438" inkscape:cx="16.039312" inkscape:cy="-62.899263" inkscape:window-width="1920" inkscape:window-height="1017" inkscape:window-x="-8" inkscape:window-y="-8" inkscape:window-maximized="1" inkscape:current-layer="g22577" />
  <defs id="defs2" />
  <g inkscape:label="Capa 1" inkscape:groupmode="layer" id="layer1">
    <g id="g2568" transform="matrix(0.82460302,0,0,0.82460302,1.0713261,2.0200854)" style="stroke-width:1.28345;stroke-dasharray:none">
      <g id="g11286" transform="translate(0.10757865,0.26894662)">
        <path id="rect18851" style="fill:#ffffff;stroke:#ffffff;stroke-width:0.523063;stroke-linecap:round;stroke-linejoin:round" inkscape:transform-center-y="-4.7623743" d="M 7.8936486,-0.17465501 7.0631377,2.0999802 A 5.7400259,5.7400259 0 0 0 6.2813299,2.4261824 L 4.0831488,1.4036873 3.8755911,1.6112442 2.9230364,2.563799 2.7154794,2.7716383 3.7379737,4.9695371 A 5.7400259,5.7400259 0 0 0 3.4120557,5.7510623 L 1.1371371,6.5818565 v 0.293639 1.3469982 0.2936385 L 3.412339,9.3466428 A 5.7400259,5.7400259 0 0 0 3.7379737,10.12817 l -1.0224943,2.198464 0.207557,0.207559 0.9525547,0.952269 0.2078403,0.207842 2.1981811,-1.022496 a 5.7400259,5.7400259 0 0 0 0.7815252,0.325919 l 0.8305109,2.274634 h 0.2936398 1.346997 0.29364 l 0.8305106,-2.274916 a 5.7400259,5.7400259 0 0 0 0.781525,-0.325637 l 2.198464,1.022211 0.207556,-0.207557 0.952273,-0.952269 0.207839,-0.207842 -1.022493,-2.198463 a 5.7400259,5.7400259 0 0 0 0.325635,-0.7812452 l 2.2752,-0.8307936 V 8.2224937 6.8754955 6.5815749 L 14.311498,5.7519122 A 5.7400259,5.7400259 0 0 0 13.98558,4.9650064 L 15.005812,2.7713551 14.798254,2.563799 13.845981,1.6112442 13.638142,1.4036873 11.444774,2.4239163 A 5.7400259,5.7400259 0 0 0 10.657587,2.0979982 L 9.8276414,-0.17465501 H 9.5342854 8.1872884 Z M 8.8606453,3.9232559 A 3.6255555,3.6255555 0 0 1 12.486242,7.5488532 3.6255555,3.6255555 0 0 1 8.8606453,11.174451 3.6255555,3.6255555 0 0 1 5.2353313,7.5488532 3.6255555,3.6255555 0 0 1 8.8606453,3.9232559 Z" />
        <g id="g19581" style="fill:#000000;stroke:#000000" />
        <g id="g21754" transform="matrix(0.23576423,0,0,0.23576423,22.48277,9.5952281)">
          <g id="g22577" style="fill:#000000" />
        </g>
      </g>
    </g>
  </g>
</svg>
