<svg width="32" height="32" viewBox="0 0 32 32" fill="none" xmlns="http://www.w3.org/2000/svg">
<path d="M8.5 6C8.3008 6.0002 8.1036 6.04003 7.91993 6.11721C7.91893 6.11721 7.918 6.11721 7.917 6.11721C7.9136 6.11865 7.9116 6.12161 7.9082 6.12305C7.7346 6.19734 7.57653 6.30365 7.4424 6.43654C7.44047 6.43844 7.43847 6.44048 7.43653 6.44238C7.30667 6.57442 7.20233 6.72942 7.12893 6.89946C7.1244 6.9097 7.11853 6.91836 7.11427 6.92873C7.0392 7.10985 7.0004 7.30397 7 7.49999C7 9.75001 8.45047 11.437 9.80953 12.9903C10.9507 14.2945 11.9337 15.4541 12.622 16.5C11.9337 17.5461 10.9509 18.7085 9.80953 20.0127C8.4504 21.566 7 23.25 7 25.5C6.9998 25.7002 7.0396 25.8984 7.1172 26.083V26.086C7.1186 26.0893 7.1216 26.0914 7.12307 26.0948C7.19793 26.2662 7.30427 26.4223 7.43653 26.5547C7.43807 26.5562 7.44087 26.562 7.4424 26.5635C7.57293 26.6917 7.72587 26.795 7.89353 26.8682C7.90753 26.8743 7.92033 26.88 7.93453 26.8857C8.11387 26.96 8.30587 26.9989 8.5 27H23.5C23.6929 26.9994 23.8839 26.9616 24.0625 26.8887C24.0777 26.8825 24.0915 26.8748 24.1065 26.8682C24.2695 26.7955 24.4183 26.6943 24.5459 26.5693C24.5531 26.5623 24.5593 26.556 24.5664 26.5488C24.6927 26.4207 24.7949 26.2708 24.8681 26.1065C24.8743 26.0925 24.88 26.0796 24.8857 26.0654C24.9601 25.8861 24.9989 25.6941 25 25.5C25 23.25 23.5495 21.5659 22.1905 20.0127C21.0492 18.7085 20.0663 17.5461 19.378 16.5C20.0663 15.4541 21.0493 14.2945 22.1905 12.9903C23.5496 11.437 25 9.75001 25 7.49999C25.0006 7.29879 24.9607 7.09955 24.8828 6.91409C24.8069 6.73664 24.6975 6.57547 24.5605 6.43949C24.4267 6.30555 24.2686 6.19819 24.0947 6.12305C24.0889 6.1201 24.083 6.11714 24.0771 6.11426C23.8942 6.03846 23.698 5.99961 23.5 6H8.5ZM10.8819 9.00005H21.1181C20.7615 9.66122 20.6599 10.1838 19.9346 11.0127C18.6687 12.4595 17.0871 13.9711 16.1582 15.8291C16.0541 16.0374 15.9999 16.2671 16 16.5C16 16.2671 15.9459 16.0374 15.8417 15.8291C14.9129 13.9711 13.3312 12.4595 12.0653 11.0127C11.34 10.1838 11.2385 9.66122 10.8818 9.00005H10.8819Z" fill="white"/>
</svg>
