<svg width="16" height="16" viewBox="0 0 16 16" fill="none" xmlns="http://www.w3.org/2000/svg">
<path d="M6.00003 3C5.73484 3.00006 5.48052 3.10545 5.29303 3.293L1.29303 7.293C1.10556 7.48053 1.00024 7.73484 1.00024 8C1.00024 8.26516 1.10556 8.51947 1.29303 8.707L5.29303 12.707C5.48052 12.8945 5.73484 12.9999 6.00003 13H14C14.2652 13 14.5196 12.8946 14.7071 12.7071C14.8947 12.5196 15 12.2652 15 12V4C15 3.73478 14.8947 3.48043 14.7071 3.29289C14.5196 3.10536 14.2652 3 14 3H6.00003ZM5.00003 7C5.26525 7 5.5196 7.10536 5.70714 7.29289C5.89467 7.48043 6.00003 7.73478 6.00003 8C6.00003 8.26522 5.89467 8.51957 5.70714 8.70711C5.5196 8.89464 5.26525 9 5.00003 9C4.73481 9 4.48046 8.89464 4.29292 8.70711C4.10539 8.51957 4.00003 8.26522 4.00003 8C4.00003 7.73478 4.10539 7.48043 4.29292 7.29289C4.48046 7.10536 4.73481 7 5.00003 7Z" fill="#7DFFF7"/>
</svg>
