<?xml version="1.0" encoding="UTF-8" standalone="no"?>
<svg
  width="16"
  height="16"
  viewBox="0 0 16 16"
  fill="none"
  version="1.1"
  id="svg1"
  sodipodi:docname="node_type_sound_icon.svg"
  inkscape:version="1.4 (86a8ad7, 2024-10-11)"
  xml:space="preserve"
  xmlns:inkscape="http://www.inkscape.org/namespaces/inkscape"
  xmlns:sodipodi="http://sodipodi.sourceforge.net/DTD/sodipodi-0.dtd"
  xmlns="http://www.w3.org/2000/svg"
  xmlns:svg="http://www.w3.org/2000/svg"><defs
   id="defs1" /><sodipodi:namedview
   id="namedview1"
   pagecolor="#505050"
   bordercolor="#eeeeee"
   borderopacity="1"
   inkscape:showpageshadow="0"
   inkscape:pageopacity="0"
   inkscape:pagecheckerboard="0"
   inkscape:deskcolor="#d1d1d1"
   inkscape:zoom="22.627417"
   inkscape:cx="-0.088388347"
   inkscape:cy="1.5467961"
   inkscape:window-width="1920"
   inkscape:window-height="1017"
   inkscape:window-x="-8"
   inkscape:window-y="-8"
   inkscape:window-maximized="1"
   inkscape:current-layer="svg1"
   showgrid="true"><inkscape:grid
    id="grid1"
    units="px"
    originx="0"
    originy="0"
    spacingx="1"
    spacingy="1"
    empcolor="#0099e5"
    empopacity="0.30196078"
    color="#0099e5"
    opacity="0.14901961"
    empspacing="4"
    enabled="true"
    visible="true" /></sodipodi:namedview><path
   fill="#e0e0e0"
   d="M 1.252,0.15 A 0.1,0.1 0 0 0 1.17,0.18 L 0.6,0.75 H 0.318 C 0.225,0.75 0.15,0.817 0.15,0.9 v 0.6 c 0,0.083 0.075,0.15 0.168,0.15 H 0.6 L 1.17,2.22 C 1.236,2.287 1.35,2.24 1.35,2.146 V 0.256 A 0.106,0.106 0 0 0 1.252,0.15"
   paint-order="markers stroke fill"
   id="path1-4"
   transform="matrix(6.6666667,0,0,6.6666667,-0.0216304,-0.00330333)"
   style="fill:#62aeff;fill-opacity:1" /><path
   fill="none"
   stroke="#e0e0e0"
   stroke-linecap="round"
   stroke-linejoin="round"
   stroke-width="0.165"
   d="m 1.575,0.675 c 0.45,0.525 0,1.05 0,1.05 m 0.3,-1.35 c 0.675,0.825 0,1.65 0,1.65"
   paint-order="markers stroke fill"
   id="path2"
   transform="matrix(6.6666667,0,0,6.6666667,-0.0216304,-0.00330333)"
   style="stroke:#62aeff;stroke-opacity:1" /></svg>
