<svg width="64" height="64" viewBox="0 0 64 64" fill="none" xmlns="http://www.w3.org/2000/svg">
<path d="M28.0339 34.0213L28.0847 33.617C28.0847 32.1684 28.4915 31.023 29.3051 30.1809C30.1525 29.3387 31.0678 28.7828 32.0508 28.5133C33.0339 28.2438 33.9322 27.789 34.7458 27.1489C35.5932 26.5089 36.017 25.6498 36.017 24.5718C36.017 23.4601 35.6949 22.6011 35.0508 21.9947C34.4407 21.3883 33.5085 21.0851 32.2542 21.0851C31 21.0851 30.0678 21.2872 29.4576 21.6915C28.8814 22.0621 28.5254 22.4495 28.3898 22.8537L28.2373 23.4601C27.9322 24.336 27.5763 25.0098 27.1695 25.4814C26.7627 25.9193 26.2373 26.1383 25.5932 26.1383C24.9492 26.1383 24.1017 25.9362 23.0508 25.5319C21.0169 24.7571 20 23.797 20 22.6516C20 22.1463 20.1017 21.641 20.3051 21.1356C20.5085 20.5966 20.678 20.1587 20.8136 19.8218C20.9492 19.4512 21.3051 18.828 21.8814 17.9521C22.4915 17.0762 23.1695 16.3183 23.9153 15.6782C24.6949 15.0044 25.7797 14.398 27.1695 13.859C28.5593 13.2863 30.1017 13 31.7966 13C35.3898 13 38.322 14.1454 40.5932 16.4362C42.8644 18.727 44 21.3883 44 24.4202C44 25.8688 43.7288 27.2163 43.1864 28.4628C42.678 29.6755 42.0508 30.6356 41.3051 31.3431C39.8136 32.758 38.4237 33.7012 37.1356 34.1729L36.322 34.4255C36.322 34.9982 36.2881 35.4362 36.2203 35.7394C36.1864 36.0426 36.0339 36.3794 35.7627 36.75C35.5254 37.0869 35.1017 37.3395 34.4915 37.508C33.9153 37.6427 33.1356 37.7101 32.1525 37.7101C31.1695 37.7101 30.3729 37.6259 29.7627 37.4574C29.1864 37.289 28.7797 37.0027 28.5424 36.5984C28.3051 36.1941 28.1525 35.8404 28.0847 35.5372C28.0508 35.2004 28.0339 34.695 28.0339 34.0213ZM27.8305 43.0665C28.1017 42.5275 28.5763 42.1401 29.2542 41.9043C29.9661 41.6684 31.0678 41.5505 32.5593 41.5505C34.0508 41.5505 35.1186 41.8874 35.7627 42.5612C36.4407 43.2012 36.7797 44.4645 36.7797 46.3511C36.7797 47.6986 36.6102 48.7092 36.2712 49.383C35.9322 50.023 35.4068 50.461 34.6949 50.6968C34.0169 50.8989 32.9492 51 31.4915 51C30.0339 51 28.9153 50.6463 28.1356 49.9388C27.5593 49.3661 27.2712 48.3892 27.2712 47.008V46.1995C27.2712 45.4246 27.2881 44.8351 27.322 44.4308C27.3898 44.0266 27.5593 43.5718 27.8305 43.0665Z" fill="white"/>
</svg>
