<svg width="16" height="16" viewBox="0 0 16 16" fill="none" xmlns="http://www.w3.org/2000/svg">
<path d="M13 10H16V12H13V15H11V12H8V10H11V7H13V10Z" fill="#A5EFAC"/>
<path fill-rule="evenodd" clip-rule="evenodd" d="M1.29289 2.29289C1.48043 2.10536 1.73478 2 2 2H8C8.26522 2 8.51957 2.10536 8.70711 2.29289C8.89464 2.48043 9 2.73478 9 3V4C9 4.26522 9.10536 4.51957 9.29289 4.70711C9.48043 4.89464 9.73478 5 10 5H14C14.2652 5 14.5196 5.10536 14.7071 5.29289C14.8946 5.48043 15 5.73478 15 6V9H14V6H10V9H7V9.5V13H10V14H2C1.73478 14 1.48043 13.8946 1.29289 13.7071C1.10536 13.5196 1 13.2652 1 13V11V5V3C1 2.73478 1.10536 2.48043 1.29289 2.29289ZM14 14C14.2652 14 14.5196 13.8946 14.7071 13.7071C14.8946 13.5196 15 13.2652 15 13H14V14Z" fill="#E0E0E0"/>
</svg>
