<svg width="22" height="22" viewBox="0 0 22 22" fill="none" xmlns="http://www.w3.org/2000/svg">
<path d="M17.8535 4L15.6094 4.32812L16.4278 6.22852L18.1426 5.97852L17.8535 4ZM13.6308 4.61523L11.6523 4.90429L12.4707 6.80659L14.4492 6.51753L13.6308 4.61523ZM9.6718 5.19335L7.6933 5.48241L8.51166 7.38471L10.4902 7.09565L9.6718 5.19335ZM5.7148 5.77147L4 6.02147L4.28906 7.99997L6.53316 7.67185L5.7148 5.77147ZM4.289 8.99997V15C4.289 16.1046 5.18443 17 6.289 17H18.289V8.99997H4.289Z" fill="white"/>
<path d="M18.5 11V13C16.8038 13.9451 15.8145 14.1267 14 14V16L11 13L14 10V12C15.904 12.0262 16.8791 11.7785 18.5 11Z" fill="#72DDFF"/>
</svg>
