<svg width="22" height="22" viewBox="0 0 22 22" fill="none" xmlns="http://www.w3.org/2000/svg">
<g clip-path="url(#clip0)">
<path d="M19.4832 13.6241L21.6511 15.6978L20.2686 17.143L18.1007 15.0693L16.027 17.2372L14.5818 15.8547L16.6555 13.6869L14.4876 11.6132L15.87 10.1679L18.0379 12.2416L20.1116 10.0737L21.5569 11.4562L19.4832 13.6241Z" fill="#FF7272"/>
<path fill-rule="evenodd" clip-rule="evenodd" d="M2.5 3H18.5C18.7761 3 19 3.22386 19 3.5V9.78913L18.0065 10.8277L15.8386 8.75402L13.0737 11.6445L15.2416 13.7182L13.1679 15.8861L13.9726 16.6559L11.8737 19.0171C11.5683 19.3607 11 19.1447 11 18.6849V15.9982C11 15.7227 10.7773 15.4992 10.5019 15.4982L2.49815 15.4685C2.22273 15.4675 2 15.2439 2 14.9685V3.5C2 3.22386 2.22386 3 2.5 3Z" fill="white"/>
</g>
<defs>
<clipPath id="clip0">
<rect width="22" height="22" fill="white"/>
</clipPath>
</defs>
</svg>
