<svg width="22" height="22" viewBox="0 0 22 22" fill="none" xmlns="http://www.w3.org/2000/svg">
<circle cx="11" cy="11" r="8" stroke="white" stroke-width="2"/>
<path d="M9.752 12.456C9.704 12.008 9.724 11.632 9.812 11.328C9.9 11.024 10.02 10.768 10.172 10.56C10.332 10.352 10.508 10.18 10.7 10.044C10.892 9.9 11.072 9.764 11.24 9.636C11.416 9.508 11.56 9.376 11.672 9.24C11.792 9.096 11.852 8.924 11.852 8.724C11.852 8.444 11.768 8.228 11.6 8.076C11.44 7.916 11.144 7.836 10.712 7.836C10.576 7.836 10.424 7.852 10.256 7.884C10.096 7.916 9.936 7.96 9.776 8.016C9.616 8.072 9.46 8.136 9.308 8.208C9.164 8.28 9.04 8.356 8.936 8.436L8.288 7.188C8.616 6.972 8.992 6.792 9.416 6.648C9.848 6.504 10.372 6.432 10.988 6.432C11.796 6.432 12.432 6.616 12.896 6.984C13.368 7.352 13.604 7.848 13.604 8.472C13.604 8.904 13.544 9.256 13.424 9.528C13.312 9.792 13.164 10.016 12.98 10.2C12.804 10.376 12.612 10.532 12.404 10.668C12.204 10.796 12.012 10.936 11.828 11.088C11.652 11.232 11.504 11.412 11.384 11.628C11.272 11.836 11.216 12.112 11.216 12.456H9.752ZM9.5 14.184C9.5 13.888 9.596 13.656 9.788 13.488C9.98 13.32 10.232 13.236 10.544 13.236C10.864 13.236 11.12 13.32 11.312 13.488C11.504 13.656 11.6 13.888 11.6 14.184C11.6 14.464 11.504 14.692 11.312 14.868C11.12 15.044 10.864 15.132 10.544 15.132C10.232 15.132 9.98 15.044 9.788 14.868C9.596 14.692 9.5 14.464 9.5 14.184Z" fill="white"/>
</svg>
