<svg width="22" height="22" viewBox="0 0 22 22" fill="none" xmlns="http://www.w3.org/2000/svg">
<path d="M6.00001 4.00001C5.86719 4.00011 5.73573 4.02667 5.61329 4.07813C5.61264 4.07813 5.61198 4.07813 5.61133 4.07813C5.60906 4.07909 5.60774 4.08107 5.60547 4.08204C5.48973 4.13154 5.38437 4.20244 5.29492 4.29102C5.29364 4.2923 5.2923 4.29364 5.29102 4.29493C5.20444 4.38296 5.1349 4.48626 5.08594 4.59962C5.08295 4.60647 5.07901 4.61222 5.07617 4.61915C5.02614 4.7399 5.00026 4.8693 5 5.00001C5 6.50001 5.96697 7.62471 6.873 8.66021C7.63381 9.52971 8.2891 10.3027 8.748 11C8.28911 11.6974 7.6339 12.4723 6.873 13.3418C5.96692 14.3773 5 15.5 5 17C4.99985 17.1335 5.02641 17.2656 5.07813 17.3887V17.3906C5.07905 17.3928 5.08109 17.3943 5.08203 17.3965C5.13195 17.5108 5.20283 17.6148 5.29101 17.7031C5.29203 17.7042 5.2939 17.708 5.29492 17.709C5.38195 17.7945 5.48389 17.8633 5.5957 17.9121C5.60502 17.9162 5.61358 17.92 5.62304 17.9238C5.74258 17.9734 5.8706 17.9992 5.99999 18H16C16.1286 17.9996 16.2559 17.9744 16.375 17.9258C16.3852 17.9217 16.3943 17.9165 16.4043 17.9121C16.513 17.8637 16.6122 17.7962 16.6973 17.7129C16.702 17.7082 16.7062 17.704 16.7109 17.6992C16.7951 17.6138 16.8633 17.5139 16.9121 17.4043C16.9162 17.395 16.92 17.3864 16.9238 17.377C16.9734 17.2574 16.9992 17.1294 17 17C17 15.5 16.033 14.3773 15.127 13.3418C14.3661 12.4723 13.7109 11.6974 13.252 11C13.7109 10.3027 14.3662 9.5297 15.127 8.6602C16.0331 7.6247 17 6.5 17 5C17.0004 4.86587 16.9738 4.73303 16.9219 4.60938C16.8713 4.49107 16.7983 4.38364 16.707 4.29297C16.6178 4.20369 16.5124 4.13211 16.3965 4.08203C16.3926 4.08005 16.3887 4.0781 16.3848 4.07617C16.2628 4.02563 16.132 3.99975 16 4H5.99999L6.00001 4.00001ZM7.58791 6.00001H14.4121C14.1743 6.44081 14.1066 6.78921 13.623 7.34181C12.7791 8.30631 11.7247 9.31411 11.1054 10.5527C11.0361 10.6916 10.9999 10.8447 11 11C11 10.8447 10.9639 10.6916 10.8945 10.5527C10.2752 9.31411 9.22081 8.30631 8.37691 7.34181C7.89335 6.78921 7.82565 6.44081 7.58785 6.00001H7.58791Z" fill="white"/>
</svg>
