<svg width="32" height="32" viewBox="0 0 32 32" fill="none" xmlns="http://www.w3.org/2000/svg">
<path d="M26.1818 18.9091H30.5455V21.8182H26.1818V26.1818H23.2727V21.8182H18.9091V18.9091H23.2727V14.5455H26.1818V18.9091Z" fill="#A5EFAC"/>
<path fill-rule="evenodd" clip-rule="evenodd" d="M21.8187 13.0909C22.7317 11.8754 23.2727 10.3645 23.2727 8.72726C23.2727 4.71064 20.0166 1.45453 16 1.45453C11.9834 1.45453 8.72727 4.71064 8.72727 8.72726C8.72727 11.6475 10.4485 14.1658 12.9317 15.323C9.62549 17.064 7.27273 21.5372 7.27273 26.7807C7.27273 30.5454 11.1801 30.5454 16 30.5454C20.423 30.5454 24.0775 30.5454 24.6494 27.6363H21.8182V23.2727H17.4545V17.4545H21.6494C20.8899 16.5494 20.0185 15.8234 19.0683 15.323C20.159 14.8147 21.1028 14.0438 21.8182 13.0916V13.0909H21.8187Z" fill="white"/>
</svg>
