<svg width="22" height="22" viewBox="0 0 22 22" fill="none" xmlns="http://www.w3.org/2000/svg">
<path fill-rule="evenodd" clip-rule="evenodd" d="M3 14V8C3 7.44772 3.44772 7 4 7H6.7132C6.90062 7 7.08427 6.94733 7.2432 6.848L13.47 2.95625C14.136 2.53997 15 3.01881 15 3.80425V10.6313C14.7507 10.5508 14.4911 10.507 14.2299 10.5008L14.2119 10.5003H14.2075C12.7898 10.479 11.4999 11.5842 11.5 13.1117V13.112V17.8125L7.2432 15.152C7.08427 15.0527 6.90062 15 6.7132 15H4C3.44772 15 3 14.5523 3 14ZM15 14.0686V17.9309L14.5 18.2403V13.7592L15 14.0686Z" fill="white"/>
<path d="M14.1939 12.0003C13.539 11.9855 12.9999 12.4877 13 13.1117V18.888C13.0008 19.7431 13.9725 20.2769 14.7499 19.8495L19.4164 16.9625C20.1945 16.5347 20.1945 15.4648 19.4164 15.0371L14.7499 12.15C14.5807 12.0563 14.3895 12.005 14.194 12.0003H14.1939Z" fill="#51B7FF"/>
</svg>
