<svg width="22" height="22" viewBox="0 0 22 22" fill="none" xmlns="http://www.w3.org/2000/svg">
<path d="M13.5287 11C12.827 10.9838 12.2494 11.5331 12.2495 12.2156V18.5333C12.2503 19.4686 13.2915 20.0524 14.1245 19.5849L19.1245 16.4273C19.9582 15.9594 19.9582 14.7893 19.1245 14.3214L14.1245 11.1638C13.9432 11.0613 13.7383 11.0052 13.5288 11H13.5287Z" fill="#51B7FF"/>
<path d="M15.9637 2.25251C15.8597 2.2551 15.7563 2.27069 15.6561 2.2989L6.90613 4.7989C6.64523 4.87366 6.41574 5.03129 6.25234 5.24799C6.08894 5.46468 6.00049 5.72867 6.00037 6.00007V12.9386C5.79469 12.8965 5.5853 12.8752 5.37537 12.8751C4.54656 12.8751 3.75171 13.2043 3.16566 13.7904C2.57961 14.3764 2.25037 15.1713 2.25037 16.0001C2.25037 16.8289 2.57961 17.6238 3.16566 18.2098C3.75171 18.7959 4.54656 19.1251 5.37537 19.1251C6.18463 19.1243 6.96205 18.8097 7.544 18.2473C8.12594 17.6849 8.46704 16.9187 8.49549 16.11C8.49873 16.0734 8.50036 16.0368 8.50037 16.0001V6.94498L14.7504 5.16036V9.12523L17.2504 7.87523V3.50023C17.2501 3.33316 17.2163 3.16784 17.1511 3.01404C17.0859 2.86024 16.9904 2.72107 16.8705 2.60477C16.7505 2.48847 16.6085 2.39739 16.4528 2.33691C16.297 2.27644 16.1307 2.24779 15.9637 2.25267L15.9637 2.25251Z" fill="white"/>
</svg>
