<svg width="64" height="64" viewBox="0 0 64 64" fill="none" xmlns="http://www.w3.org/2000/svg">
<path d="M41.0797 16.0007C40.8894 16.0055 40.7004 16.034 40.5172 16.0856L24.5147 20.6577C24.0376 20.7944 23.6179 21.0827 23.319 21.479C23.0202 21.8753 22.8584 22.3581 22.8582 22.8545V35.544C22.4821 35.467 22.0991 35.4281 21.7152 35.4279C20.1994 35.4279 18.7457 36.03 17.6739 37.1018C16.6021 38.1736 16 39.6273 16 41.143C16 42.6588 16.6021 44.1125 17.6739 45.1843C18.7457 46.2561 20.1994 46.8582 21.7152 46.8582C23.1952 46.8568 24.617 46.2813 25.6813 45.2528C26.7456 44.2243 27.3694 42.8231 27.4214 41.344C27.4273 41.2772 27.4303 41.2101 27.4303 41.143V24.5826L38.8607 21.3187V28.5699L43.4328 26.2839V18.2826C43.4323 17.9771 43.3706 17.6747 43.2512 17.3934C43.1319 17.1122 42.9574 16.8577 42.738 16.645C42.5187 16.4323 42.2589 16.2657 41.9741 16.1551C41.6893 16.0445 41.3851 15.9918 41.0797 16.0007Z" fill="white"/>
<path d="M38.8607 34.0083L38.8607 21.3187L43.4328 23.0469V39.6074C43.4328 39.6744 43.4298 39.7415 43.4239 39.8083C43.3718 41.2874 42.748 42.6887 41.6837 43.7171C40.6194 44.7456 39.1976 45.3211 37.7176 45.3225C36.2019 45.3225 34.7482 44.7204 33.6764 43.6486C32.6046 42.5768 32.0025 41.1231 32.0025 39.6073C32.0025 38.0916 32.6046 36.6379 33.6764 35.5661C34.7482 34.4943 36.2019 33.8922 37.7176 33.8922C38.1016 33.8924 38.4845 33.9313 38.8607 34.0083Z" fill="white"/>
</svg>
