<svg width="22" height="22" viewBox="0 0 22 22" fill="none" xmlns="http://www.w3.org/2000/svg">
<path d="M9.07142 3V4.21429C8.74937 4.21429 8.44052 4.34222 8.21279 4.56994C7.98507 4.79766 7.85714 5.10652 7.85714 5.42857V17.5714H6.64285V15.1429H4.21428V17.5714C4.21445 17.7844 4.27064 17.9936 4.3772 18.178C4.48377 18.3624 4.63697 18.5156 4.82142 18.6221C5.00592 18.729 5.21533 18.7854 5.42856 18.7857V20H13.9286C14.5727 20 15.1904 19.7441 15.6458 19.2887C16.1013 18.8332 16.3571 18.2155 16.3571 17.5714V7.85714H20V5.42857C20 4.78447 19.7441 4.16676 19.2887 3.71131C18.8332 3.25587 18.2155 3 17.5714 3H9.07142Z" fill="white"/>
<path d="M9.07143 3C7.73013 3 6.64286 4.08731 6.64286 5.42857V13.9286H4.21429H3V15.1429V17.5714C3 18.9127 4.08731 20 5.42857 20C6.76984 20 7.85714 18.9127 7.85714 17.5714V5.42857C7.85714 4.75795 8.4008 4.21429 9.07143 4.21429C9.74205 4.21429 10.2857 4.75795 10.2857 5.42857V6.64286V7.85714V9.07143H11.5H16.3571V7.85714H11.5V6.64286V5.42857C11.5 4.08727 10.4127 3 9.07143 3ZM4.21429 15.1429H6.64286V17.5714C6.64286 18.2421 6.0992 18.7857 5.42857 18.7857C4.75795 18.7857 4.21429 18.2421 4.21429 17.5714V15.1429Z" fill="#B4B4B4"/>
</svg>
