<svg width="64" height="64" viewBox="0 0 64 64" fill="none" xmlns="http://www.w3.org/2000/svg">
<path d="M28 18V20C27.4696 20 26.9609 20.2107 26.5858 20.5858C26.2107 20.9609 26 21.4696 26 22V42H24V38H20V42C20.0003 42.3508 20.0928 42.6954 20.2683 42.9991C20.4439 43.3028 20.6962 43.5551 21 43.7305C21.3039 43.9066 21.6488 43.9995 22 44V46H36C37.0609 46 38.0783 45.5786 38.8284 44.8284C39.5786 44.0783 40 43.0609 40 42V26H46V22C46 20.9391 45.5786 19.9217 44.8284 19.1716C44.0783 18.4214 43.0609 18 42 18H28Z" fill="white"/>
<path d="M28 18C25.7908 18 24 19.7909 24 22V36H20H18V38V42C18 44.2092 19.7909 46 22 46C24.2091 46 26 44.2091 26 42V22C26 20.8954 26.8954 20 28 20C29.1046 20 30 20.8954 30 22V24V26V28H32H40V26H32V24V22C32 19.7908 30.2091 18 28 18ZM20 38H24V42C24 43.1046 23.1046 44 22 44C20.8954 44 20 43.1046 20 42V38Z" fill="#B4B4B4"/>
</svg>
