<svg width="64" height="64" viewBox="0 0 64 64" fill="none" xmlns="http://www.w3.org/2000/svg">
<path d="M20.5483 19C20.1376 19 19.7438 19.1522 19.4535 19.4231C19.1631 19.694 19 20.0614 19 20.4444V43.5556C19 43.9386 19.1631 44.306 19.4535 44.5769C19.7438 44.8478 20.1376 45 20.5483 45H43.4517C43.4517 45 44.2562 44.8478 44.5465 44.5769C44.8369 44.306 45 43.9386 45 43.5556C45 43.1725 45 20.4444 45 20.4444C45 20.0614 44.8369 19.694 44.5465 19.4231C44.2562 19.1522 43.8624 19 43.4517 19H20.5483ZM21.8889 21.8889H42.1111V39.2222H21.8889V21.8889Z" fill="white"/>
<path d="M37.7624 36.8537H26.4737C25.4894 36.8537 24.7613 35.9882 24.9839 35.0826L25.7732 31.8716C25.9474 31.1628 26.6526 30.6871 27.419 30.7613L29.8798 30.9997C30.3731 31.0475 30.8603 30.8664 31.1868 30.514L34.2223 27.2376C35.009 26.3884 36.4767 26.6809 36.8331 27.7579L39.2222 34.9784C39.53 35.9085 38.7942 36.8537 37.7624 36.8537Z" fill="white"/>
</svg>
