<svg width="64" height="64" viewBox="0 0 64 64" fill="none" xmlns="http://www.w3.org/2000/svg">
<path fill-rule="evenodd" clip-rule="evenodd" d="M39.9492 18.7027L44.5786 18L45.1749 22.237L41.6374 22.7724L39.9492 18.7027ZM31.7861 19.9365L35.8675 19.3175L37.5558 23.3913L33.4743 24.0103L31.7861 19.9365ZM23.619 21.1746L27.7005 20.5556L29.3887 24.6293L25.3072 25.2484L23.619 21.1746ZM16 22.329L19.5375 21.7936L21.2257 25.8633L16.5963 26.5659L16 22.329ZM16.5962 41.5564V28.7074H45.477V36.9433L41.1799 36.8249C39.8191 36.7874 38.6855 37.8602 38.648 39.2211C38.615 40.4205 39.4444 41.4434 40.5734 41.6949C38.6645 43.0234 36.8525 43.3859 35.3397 43.2389C32.9877 43.0103 30.8465 41.5097 29.6171 39.301C28.9551 38.1115 27.454 37.6839 26.2645 38.346C25.0749 39.0081 24.6474 40.5091 25.3094 41.6987C26.2072 43.3117 27.4462 44.7373 28.9351 45.8394H20.722C18.4434 45.8394 16.5962 43.9219 16.5962 41.5564Z" fill="white"/>
<path d="M45.509 40.1543C38.6204 49.0451 30.2547 46.3004 27 40.1543M45.3494 44.6905L47 39.0101L41.1022 38.8394" stroke="white" stroke-width="2" stroke-linecap="round" stroke-linejoin="round"/>
</svg>
