<svg width="64" height="64" viewBox="0 0 64 64" fill="none" xmlns="http://www.w3.org/2000/svg">
<path d="M38.9941 36.6762V40.4645H45.6235V46.1468L53.2 38.5704L45.6235 30.9939V36.6762H38.9941Z" fill="white"/>
<path d="M41.8352 22.4706C41.8352 27.701 37.5951 31.9411 32.3647 31.9411C27.1342 31.9411 22.8941 27.701 22.8941 22.4706C22.8941 17.2401 27.1342 13 32.3647 13C37.5951 13 41.8352 17.2401 41.8352 22.4706Z" fill="white"/>
<path d="M37.1 42.3588V34.7823H40.4494C38.3891 31.8587 35.5278 30.047 32.3647 30.047C26.0881 30.047 21 37.1804 21 45.9799C21 50.8823 26.0881 50.8823 32.3647 50.8823C38.6412 50.8823 43.7294 50.8823 43.7294 45.9799C43.7294 44.7343 43.6274 43.5221 43.4346 42.3588H37.1Z" fill="white"/>
</svg>
