<svg width="64" height="64" viewBox="0 0 64 64" fill="none" xmlns="http://www.w3.org/2000/svg">
<path d="M26.2058 36.6762V40.4645H19.5764V46.1468L12 38.5704L19.5764 30.9939V36.6762H26.2058Z" fill="white"/>
<path d="M23.3647 22.4706C23.3647 27.701 27.6048 31.9411 32.8353 31.9411C38.0657 31.9411 42.3058 27.701 42.3058 22.4706C42.3058 17.2401 38.0657 13 32.8353 13C27.6048 13 23.3647 17.2401 23.3647 22.4706Z" fill="white"/>
<path d="M28.1 42.3588V34.7823H24.7505C26.8109 31.8587 29.6722 30.047 32.8353 30.047C39.1118 30.047 44.2 37.1804 44.2 45.9799C44.2 50.8823 39.1118 50.8823 32.8353 50.8823C26.5587 50.8823 21.4706 50.8823 21.4706 45.9799C21.4706 44.7343 21.5725 43.5221 21.7654 42.3588H28.1Z" fill="white"/>
</svg>
