<svg width="64" height="64" viewBox="0 0 64 64" fill="none" xmlns="http://www.w3.org/2000/svg">
<path d="M48.164 38.9376L52.0283 42.634L49.564 45.2102L45.6997 41.5138L42.0033 45.3781L39.4271 42.9138L43.1235 39.0495L39.2592 35.3531L41.7235 32.7769L45.5878 36.4733L49.2842 32.609L51.8604 35.0733L48.164 38.9376Z" fill="white"/>
<path fill-rule="evenodd" clip-rule="evenodd" d="M17.5 20H46.8028C47.079 20 47.3028 20.2239 47.3028 20.5V32.1017L45.5318 33.9531L41.6675 30.2567L36.739 35.4091L40.6033 39.1055L36.9068 42.9698L38.3412 44.3419L33.9164 49.3199C33.6109 49.6635 33.0427 49.4475 33.0427 48.9877V42.7796C33.0427 42.5042 32.8199 42.2807 32.5445 42.2796L17.4981 42.2239C17.2227 42.2229 17 41.9993 17 41.7239V20.5C17 20.2239 17.2239 20 17.5 20Z" fill="white"/>
</svg>
