<svg width="22" height="22" viewBox="0 0 22 22" fill="none" xmlns="http://www.w3.org/2000/svg">
<path d="M6.45407 6.49324C6.32245 6.49324 6.21058 6.4527 6.11845 6.37162C6.03948 6.27703 6 6.16216 6 6.02703V4.93243C6 4.7973 6.03948 4.68243 6.11845 4.58784C6.21058 4.49324 6.32245 4.44595 6.45407 4.44595H7.69781C7.82943 4.44595 7.9413 4.49324 8.03343 4.58784C8.12556 4.68243 8.17162 4.7973 8.17162 4.93243V6.02703C8.17162 6.16216 8.12556 6.27703 8.03343 6.37162C7.9413 6.4527 7.82943 6.49324 7.69781 6.49324H6.45407ZM6.612 19C6.48039 19 6.36852 18.9595 6.27639 18.8784C6.19742 18.7838 6.15794 18.6689 6.15794 18.5338V8.92568C6.15794 8.79054 6.19742 8.68243 6.27639 8.60135C6.36852 8.50676 6.48039 8.45946 6.612 8.45946H7.55962C7.69123 8.45946 7.79652 8.50676 7.87549 8.60135C7.96762 8.68243 8.01369 8.79054 8.01369 8.92568V18.5338C8.01369 18.6689 7.96762 18.7838 7.87549 18.8784C7.79652 18.9595 7.69123 19 7.55962 19H6.612Z" fill="white"/>
<path d="M12.4199 19C12.2882 19 12.1764 18.9595 12.0842 18.8784C12.0053 18.7838 11.9658 18.6689 11.9658 18.5338V10.0811H10.2877C10.1561 10.0811 10.0442 10.0405 9.9521 9.95946C9.87314 9.86486 9.83365 9.75 9.83365 9.61486V8.92568C9.83365 8.79054 9.87314 8.68243 9.9521 8.60135C10.0442 8.50676 10.1561 8.45946 10.2877 8.45946H11.9658V7.44594C11.9658 5.14865 13.0977 4 15.3614 4H16.5459C16.6775 4 16.7828 4.0473 16.8618 4.14189C16.9539 4.22297 17 4.33108 17 4.46622V5.1554C17 5.29054 16.9539 5.40541 16.8618 5.5C16.7828 5.58108 16.6775 5.62162 16.5459 5.62162H15.4009C14.8086 5.62162 14.3941 5.78378 14.1572 6.10811C13.9202 6.41892 13.8018 6.89865 13.8018 7.5473V8.45946H16.3485C16.4801 8.45946 16.5854 8.50676 16.6644 8.60135C16.7565 8.68243 16.8026 8.79054 16.8026 8.92568V9.61486C16.8026 9.75 16.7565 9.86486 16.6644 9.95946C16.5854 10.0405 16.4801 10.0811 16.3485 10.0811H13.8018V18.5338C13.8018 18.6689 13.7557 18.7838 13.6636 18.8784C13.5846 18.9595 13.4793 19 13.3477 19H12.4199Z" fill="white"/>
</svg>
