<svg width="64" height="64" viewBox="0 0 64 64" fill="none" xmlns="http://www.w3.org/2000/svg">
<path fill-rule="evenodd" clip-rule="evenodd" d="M27.9999 19.9998V17.9998H41.9999C43.0608 17.9998 44.0784 18.4212 44.8284 19.1713C45.5785 19.9215 46 20.9389 46 21.9998V25.9998H40.0001V31.175L37.0055 29.3224L36.9548 29.291L36.9028 29.2621C36.269 28.9112 35.5629 28.724 34.8492 28.7069L34.8195 28.7062H34.8123C32.4772 28.6711 30.3527 30.4914 30.3529 33.0073V33.0077V42.5213V42.5236C30.3543 44.0605 31.0921 45.264 32.1521 45.9999H21.9999V43.9999C21.6487 43.9994 21.3038 43.9065 20.9999 43.7304C20.6961 43.555 20.4438 43.3027 20.2682 42.9989C20.0927 42.6952 20.0002 42.3506 19.9999 41.9998V37.9999H23.9999V41.9998H25.9999V21.9998C25.9999 21.4693 26.2106 20.9606 26.5857 20.5856C26.9608 20.2105 27.4695 19.9998 27.9999 19.9998ZM40.0001 36.9853V38.543L35.2941 41.4545V34.0738L40.0001 36.9853Z" fill="white"/>
<path d="M28.0001 18C25.7908 18 24 19.7909 24 22V36.0001H20H18V38.0002V42.0001C18 44.2093 19.7909 46.0001 22 46.0001C24.2092 46.0001 26 44.2093 26 42.0001V22C26 20.8955 26.8955 20 28.0001 20C29.1046 20 30 20.8955 30 22V24V26V28.0001H32.0001H40V26H32.0001V24V22C32.0001 19.7908 30.2092 18 28.0001 18ZM20 38.0002H24V42.0001C24 43.1048 23.1046 44.0001 22 44.0001C20.8955 44.0001 20 43.1048 20 42.0001V38.0002Z" fill="#B4B4B4"/>
<path d="M34.7899 31.1768C33.7113 31.1524 32.8233 31.9796 32.8235 33.0073V42.5213C32.8248 43.9297 34.4253 44.8089 35.7057 44.105L43.3917 39.3499C44.6733 38.6453 44.6733 36.8831 43.3917 36.1786L35.7057 31.4234C35.427 31.269 35.1121 31.1845 34.7901 31.1768H34.7899Z" fill="#51B7FF"/>
</svg>
