<svg width="22" height="22" viewBox="0 0 22 22" fill="none" xmlns="http://www.w3.org/2000/svg">
<path fill-rule="evenodd" clip-rule="evenodd" d="M2 6V15C2 16.1046 2.89543 17 4 17H6.88085C6.8692 16.9795 6.85763 16.9589 6.84615 16.9382C6.18406 15.7487 6.61165 14.2477 7.80118 13.5856C8.99072 12.9235 10.4918 13.3511 11.1538 14.5406C11.7699 15.6475 12.8164 16.3512 13.9025 16.4567C14.2827 16.4937 14.7353 16.4628 15.2399 16.3C14.9935 15.9038 14.8567 15.4334 14.8705 14.9321C14.908 13.5713 16.0416 12.4985 17.4024 12.5359L19.4706 12.5929L20.1377 11.68C20.6513 10.9772 20.6513 10.0228 20.1377 9.31997L16.8492 4.81997C16.4726 4.30464 15.8727 4 15.2344 4H4C2.89543 4 2 4.89543 2 6ZM18 10.5C18 11.3284 17.3284 12 16.5 12C15.6716 12 15 11.3284 15 10.5C15 9.67157 15.6716 9 16.5 9C17.3284 9 18 9.67157 18 10.5Z" fill="white"/>
<path d="M19.939 15.7394C15.8678 20.7388 10.9236 19.1954 9 15.7394M19.8447 18.2901L20.8202 15.096L17.3346 15" stroke="#51B7FF" stroke-width="2" stroke-linecap="round" stroke-linejoin="round"/>
</svg>
