<svg width="64" height="64" viewBox="0 0 64 64" fill="none" xmlns="http://www.w3.org/2000/svg">
<path fill-rule="evenodd" clip-rule="evenodd" d="M19 25.0702V38.8861C19 40.5817 20.3746 41.9563 22.0702 41.9563H28.0356C27.8792 41.716 27.7312 41.4703 27.5918 41.22C26.9298 40.0304 27.3573 38.5294 28.5469 37.8673C29.7364 37.2052 31.2375 37.6328 31.8995 38.8223C32.6953 40.252 33.9044 41.3553 35.2997 41.9563H39.3162C40.1178 41.9563 40.88 41.6433 41.4473 41.0963C40.6122 40.6827 40.0487 39.8109 40.076 38.8182C40.1135 37.4573 41.2471 36.3845 42.608 36.422L44.8739 36.4844L46.8431 33.7896C47.6316 32.7107 47.6316 31.2456 46.8431 30.1667L41.795 23.2587C41.2169 22.4677 40.296 22 39.3162 22H22.0702C20.3746 22 19 23.3746 19 25.0702ZM43.5616 31.9782C43.5616 33.2499 42.5307 34.2808 41.259 34.2808C39.9872 34.2808 38.9563 33.2499 38.9563 31.9782C38.9563 30.7064 39.9872 29.6755 41.259 29.6755C42.5307 29.6755 43.5616 30.7064 43.5616 31.9782Z" fill="white"/>
<path d="M46.6581 40.1271C40.4584 47.7478 32.9292 45.3952 30 40.1271M46.5145 44.0152L48 39.1464L42.692 39" stroke="white" stroke-width="2" stroke-linecap="round" stroke-linejoin="round"/>
</svg>
