<svg width="64" height="64" viewBox="0 0 64 64" fill="none" xmlns="http://www.w3.org/2000/svg">
<path fill-rule="evenodd" clip-rule="evenodd" d="M19 40.0776V24C19 22.8954 19.8954 22 21 22H40.1352C40.7713 22 41.3695 22.3026 41.7464 22.8151L47.658 30.854C48.1763 31.5588 48.1763 32.5188 47.658 33.2237L41.7464 41.2625C41.3695 41.775 40.7713 42.0776 40.1352 42.0776H21C19.8954 42.0776 19 41.1822 19 40.0776ZM41.5355 34.3555C42.823 34.3555 43.8668 33.3183 43.8668 32.0388C43.8668 30.7594 42.823 29.7222 41.5355 29.7222C40.248 29.7222 39.2043 30.7594 39.2043 32.0388C39.2043 33.3183 40.248 34.3555 41.5355 34.3555Z" fill="white"/>
</svg>
