<svg width="22" height="22" viewBox="0 0 22 22" fill="none" xmlns="http://www.w3.org/2000/svg">
<path fill-rule="evenodd" clip-rule="evenodd" d="M2 15V6C2 4.89543 2.89543 4 4 4H15.2344C15.8727 4 16.4726 4.30464 16.8492 4.81997L20.1377 9.31997C20.6513 10.0228 20.6513 10.9772 20.1377 11.68L16.8492 16.18C16.4726 16.6954 15.8727 17 15.2344 17H4C2.89543 17 2 16.1046 2 15ZM16.5 12C17.3284 12 18 11.3284 18 10.5C18 9.67157 17.3284 9 16.5 9C15.6716 9 15 9.67157 15 10.5C15 11.3284 15.6716 12 16.5 12Z" fill="white"/>
</svg>
