<svg width="22" height="22" viewBox="0 0 22 22" fill="none" xmlns="http://www.w3.org/2000/svg">
<ellipse cx="10.6421" cy="17.7368" rx="1.26316" ry="1.26316" transform="rotate(90 10.6421 17.7368)" fill="white"/>
<path d="M9.97608 15.6316C9.8339 15.6316 9.71543 15.5853 9.62064 15.4928C9.52586 15.4002 9.47847 15.2846 9.47847 15.1457V14.2204C9.51006 13.4029 9.72332 12.7012 10.1183 12.1151C10.5132 11.529 11.0898 10.8581 11.848 10.1024C12.4641 9.48544 12.9143 8.97648 13.1987 8.57548C13.483 8.17447 13.6252 7.73491 13.6252 7.2568C13.6252 6.54733 13.3172 5.98438 12.7011 5.56796C12.1008 5.15153 11.3978 4.94332 10.5922 4.94332C8.71231 4.94332 7.60652 5.86871 7.27478 7.71949C7.19579 8.0588 6.99043 8.22846 6.65869 8.22846H5.5213C5.36333 8.22846 5.23696 8.18219 5.14217 8.08965C5.04739 7.99711 5 7.87372 5 7.71949C5.03159 6.87122 5.27645 6.09235 5.73456 5.38288C6.20848 4.65799 6.87195 4.07962 7.72499 3.64777C8.57804 3.21592 9.55745 3 10.6632 3C11.8322 3 12.8117 3.2005 13.6015 3.6015C14.4072 3.98708 14.9995 4.49605 15.3787 5.1284C15.7578 5.74533 15.9474 6.40852 15.9474 7.11799C15.9474 7.90457 15.7657 8.58319 15.4024 9.15385C15.039 9.7245 14.494 10.3877 13.7674 11.1434C13.1671 11.7604 12.7169 12.2847 12.4167 12.7166C12.1166 13.133 11.9428 13.6034 11.8954 14.1278C11.8638 14.5597 11.848 14.8836 11.848 15.0995C11.769 15.4542 11.5716 15.6316 11.2556 15.6316H9.97608Z" fill="white"/>
</svg>
