<svg width="64" height="64" viewBox="0 0 64 64" fill="none" xmlns="http://www.w3.org/2000/svg">
<path fill-rule="evenodd" clip-rule="evenodd" d="M18.6111 22C17.7213 22 17 22.7213 17 23.6111V41.3333C17 42.2231 17.7213 42.9444 18.6111 42.9444H33.1111L28.2778 51L44.3889 42.9444C44.3889 42.9444 46 42.2231 46 41.3333V23.6111C46 22.7213 45.2787 22 44.3889 22H18.6111ZM29.3241 28.0192C28.4863 28.1867 27.7774 28.3994 27.1974 28.6572L27.9127 30.7065C28.3638 30.4874 28.8794 30.3069 29.4594 30.1652C30.0523 30.0105 30.6581 29.9332 31.2767 29.9332C31.9469 29.9332 32.4045 30.0492 32.6494 30.2812C32.8943 30.5132 33.0167 30.874 33.0167 31.3638C33.0167 31.5572 32.9974 31.7892 32.9587 32.0598C32.8169 32.034 32.5656 31.9954 32.2047 31.9438C31.8438 31.8794 31.4829 31.8472 31.1221 31.8472C29.5625 31.8472 28.3961 32.1436 27.6227 32.7365C26.8623 33.3165 26.4821 34.18 26.4821 35.3272C26.4821 35.7525 26.5594 36.1456 26.7141 36.5065C26.8816 36.8674 27.1072 37.1832 27.3907 37.4538C27.6872 37.7116 28.0352 37.9114 28.4347 38.0532C28.8472 38.1949 29.2983 38.2658 29.7881 38.2658C30.6001 38.2658 31.2638 38.1047 31.7794 37.7825C32.2949 37.4603 32.7203 37.0736 33.0554 36.6225H33.2874L33.7321 38.1305H35.9361C35.7943 37.7052 35.6912 37.2605 35.6267 36.7965C35.5623 36.3325 35.5301 35.8556 35.5301 35.3658C35.5301 34.644 35.5558 33.9609 35.6074 33.3165C35.6589 32.672 35.6847 32.0212 35.6847 31.3638C35.6847 30.8225 35.6203 30.3327 35.4914 29.8945C35.3754 29.4434 35.1756 29.0632 34.8921 28.7538C34.6085 28.4316 34.2218 28.1867 33.7321 28.0192C33.2552 27.8516 32.6623 27.7678 31.9534 27.7678C31.0512 27.7678 30.1747 27.8516 29.3241 28.0192ZM32.1854 35.6752C31.8245 35.9587 31.3412 36.1005 30.7354 36.1005C30.2843 36.1005 29.9234 35.9845 29.6527 35.7525C29.3949 35.5205 29.2661 35.1725 29.2661 34.7085C29.2661 34.3347 29.4336 34.0254 29.7687 33.7805C30.1038 33.5227 30.6194 33.3938 31.3154 33.3938C31.4443 33.3938 31.5861 33.4003 31.7407 33.4132C31.9083 33.426 32.0694 33.4454 32.2241 33.4712C32.3916 33.4969 32.5398 33.5227 32.6687 33.5485C32.8105 33.5743 32.9136 33.6 32.9781 33.6258V34.7858C32.8105 35.0952 32.5463 35.3916 32.1854 35.6752Z" fill="white"/>
</svg>
