<?xml version="1.0" encoding="UTF-8" standalone="no"?>
<!-- Created with Inkscape (http://www.inkscape.org/) -->

<svg width="63.999996" height="63.999996" viewBox="0 0 16.933332 16.933332" version="1.1" id="svg5" inkscape:export-filename="history-icon.svg" inkscape:export-xdpi="96" inkscape:export-ydpi="96" sodipodi:docname="icon.svg" inkscape:version="1.2.2 (732a01da63, 2022-12-09)" xmlns:inkscape="http://www.inkscape.org/namespaces/inkscape" xmlns:sodipodi="http://sodipodi.sourceforge.net/DTD/sodipodi-0.dtd" xmlns="http://www.w3.org/2000/svg" xmlns:svg="http://www.w3.org/2000/svg">
  <sodipodi:namedview id="namedview7" pagecolor="#464646" bordercolor="#000000" borderopacity="0.25" inkscape:showpageshadow="2" inkscape:pageopacity="0" inkscape:pagecheckerboard="0" inkscape:deskcolor="#d1d1d1" inkscape:document-units="mm" showgrid="false" showguides="true" inkscape:zoom="2.2483786" inkscape:cx="-22.46063" inkscape:cy="23.127778" inkscape:window-width="1920" inkscape:window-height="1017" inkscape:window-x="-8" inkscape:window-y="-8" inkscape:window-maximized="1" inkscape:current-layer="svg5" />
  <defs id="defs2" />
  <path style="stroke-width:2.07079;stroke-dasharray:none;stroke:#ffffff;fill:none;stroke-linecap:round;stroke-linejoin:round" d="m 58.321651,12.698536 -0.558962,3.485814 4.876563,-1.469574" id="path289" sodipodi:nodetypes="ccc" transform="matrix(0.74514681,0,0,0.74514681,-39.120302,2.2986328)" />
  <path style="stroke-width:2.07079;stroke-dasharray:none;stroke:#ffffff;fill:none;stroke-linecap:round;stroke-linejoin:round" d="m 55.996236,7.7807585 1.228349,1.9317129 1.167703,-1.9718383 z" id="path953" sodipodi:nodetypes="cccc" transform="matrix(0.74514681,0,0,0.74514681,-39.120302,2.2986328)" />
  <path style="stroke-width:2.07079;stroke-dasharray:none;stroke:#ffffff;fill:none;stroke-linecap:round;stroke-linejoin:round" d="m 63.824761,5.993924 0.29361,2.1554114 3.593444,1.1319403" id="path2562" inkscape:transform-center-x="-1.1566618" inkscape:transform-center-y="-0.95424579" sodipodi:nodetypes="ccc" transform="matrix(0.74514681,0,0,0.74514681,-39.120302,2.2986328)" />
  <path id="path11412" style="stroke-width:2.07079;stroke-dasharray:none;stroke:#ffffff;fill:none;stroke-linecap:round;stroke-linejoin:round" d="m 57.198151,7.6362197 c 0,-4.012519 3.25279,-7.26530838 7.265309,-7.26530838 4.012519,0 7.265308,3.25278938 7.265308,7.26530838 0,4.0125193 -3.252789,7.2653093 -7.265308,7.2653093 -0.578673,0 -1.141544,-0.06765 -1.681136,-0.195481" sodipodi:nodetypes="csssc" transform="matrix(0.74514681,0,0,0.74514681,-39.120302,2.2986328)" />
</svg>
