<?xml version="1.0" encoding="utf-8"?>
<!-- Generator: Adobe Illustrator 16.0.3, SVG Export Plug-In . SVG Version: 6.00 Build 0)  -->
<!DOCTYPE svg PUBLIC "-//W3C//DTD SVG 1.1//EN" "http://www.w3.org/Graphics/SVG/1.1/DTD/svg11.dtd">
<svg version="1.1"
	 id="svg13076" inkscape:export-filename="input_layer_icon.svg" xmlns:inkscape="http://www.inkscape.org/namespaces/inkscape" xmlns:sodipodi="http://sodipodi.sourceforge.net/DTD/sodipodi-0.dtd" xmlns:svg="http://www.w3.org/2000/svg" inkscape:export-ydpi="96" inkscape:export-xdpi="96" inkscape:version="1.2.2 (732a01da63, 2022-12-09)"
	 xmlns="http://www.w3.org/2000/svg" xmlns:xlink="http://www.w3.org/1999/xlink" x="0px" y="0px" width="100px" height="100px"
	 viewBox="0 0 100 100" enable-background="new 0 0 100 100" xml:space="preserve">
<sodipodi:namedview  id="namedview13078" inkscape:pagecheckerboard="0" inkscape:cy="64.755078" inkscape:zoom="4.185" inkscape:cx="70.728793" pagecolor="#505050" showgrid="true" borderopacity="1" bordercolor="#eeeeee" inkscape:document-units="mm" inkscape:deskcolor="#505050" inkscape:pageopacity="0" inkscape:showpageshadow="0" inkscape:current-layer="layer1" inkscape:window-y="-8" inkscape:window-x="-8" inkscape:window-height="1017" inkscape:window-width="1920" inkscape:window-maximized="1">
	<inkscape:grid  id="grid14286" type="xygrid"></inkscape:grid>
</sodipodi:namedview>
<g id="layer1" inkscape:label="Layer 1" inkscape:groupmode="layer">
	<g id="path30124">
		<polygon fill="#FFFFFF" points="40.03,68.723 24.778,68.723 24.778,60.723 28.403,60.723 28.403,39.191 24.778,39.191 
			24.778,31.191 40.03,31.191 40.03,39.191 36.403,39.191 36.403,60.723 40.03,60.723 		"/>
	</g>
	<g id="rect30126">
		<path fill="#FFFFFF" d="M81.973,83.529H17.151c-6.41,0-11.625-5.216-11.625-11.626V28.097c0-6.411,5.215-11.626,11.625-11.626
			h64.821c6.411,0,11.627,5.215,11.627,11.626v43.807C93.6,78.313,88.384,83.529,81.973,83.529z M17.151,24.471
			c-1.999,0-3.625,1.626-3.625,3.626v43.807c0,1.999,1.626,3.626,3.625,3.626h64.821c2,0,3.627-1.627,3.627-3.626V28.097
			c0-2-1.627-3.626-3.627-3.626H17.151z"/>
	</g>
</g>
</svg>
