<svg width="16" height="16" viewBox="0 0 16 16" fill="none" xmlns="http://www.w3.org/2000/svg">
<path d="M13.0909 9.45452H15.2727V10.9091H13.0909V13.0909H11.6363V10.9091H9.45453V9.45452H11.6363V7.27271H13.0909V9.45452Z" fill="#A5EFAC"/>
<path fill-rule="evenodd" clip-rule="evenodd" d="M12.1186 5.22444L13.2372 2.62927C12.9687 2.49006 12.6903 2.38069 12.402 2.30114C12.1136 2.2216 11.8153 2.18182 11.5071 2.18182C11.179 2.18182 10.8757 2.23651 10.5973 2.34589C10.3189 2.44532 10.0604 2.58452 9.82172 2.7635C9.59302 2.94248 9.38422 3.15128 9.1953 3.38992C9.00637 3.62856 8.83734 3.88708 8.68819 4.16549C8.60865 4.32458 8.51916 4.5135 8.41973 4.73225C8.33024 4.94106 8.24075 5.14489 8.15126 5.34376C8.04189 5.58239 7.93748 5.82103 7.83805 6.05966C7.73862 5.85086 7.63422 5.65697 7.52484 5.47799C7.43535 5.3189 7.34089 5.15981 7.24146 5.00072C7.15197 4.83168 7.06745 4.69248 6.98791 4.5831C6.82882 4.34447 6.64984 4.08594 6.45098 3.80753C6.25211 3.52912 6.03336 3.2706 5.79473 3.03197C5.55609 2.79333 5.29757 2.59447 5.01916 2.43537C4.74075 2.26634 4.43748 2.18182 4.10936 2.18182C3.84089 2.18182 3.5774 2.23651 3.31888 2.34589C3.06035 2.44532 2.81674 2.57955 2.58805 2.74859C2.35936 2.90768 2.14558 3.09162 1.94672 3.30043C1.7578 3.4993 1.59373 3.70313 1.45453 3.91194L1.85723 4.43395C1.99643 4.32458 2.14061 4.24006 2.28976 4.1804C2.4389 4.1108 2.59799 4.076 2.76703 4.076C2.96589 4.076 3.15481 4.12572 3.33379 4.22515C3.52271 4.31464 3.6818 4.43395 3.81106 4.5831L6.61504 9.07245C6.52555 9.34091 6.43606 9.59447 6.34657 9.8331L6.10794 10.4595C6.02839 10.6683 5.95382 10.8374 5.88422 10.9666C5.8345 11.0859 5.75993 11.1903 5.66049 11.2798C5.56106 11.3594 5.44672 11.429 5.31745 11.4886C5.19814 11.5384 5.07385 11.5781 4.94459 11.608C4.81532 11.6278 4.69103 11.6378 4.57172 11.6378C4.19388 11.6378 3.81603 11.5632 3.43819 11.4141C3.06035 11.255 2.71234 11.076 2.39416 10.8771L1.45453 13.353C1.73294 13.5717 2.0362 13.7457 2.36433 13.875C2.69245 14.0142 3.03052 14.0838 3.37853 14.0838C3.76632 14.0838 4.13422 13.9993 4.48223 13.8303C4.83024 13.6513 5.14842 13.4276 5.43677 13.1591C5.73507 12.8807 5.99856 12.5724 6.22726 12.2344C6.45595 11.8963 6.64487 11.5682 6.79402 11.25C6.83379 11.1705 6.87853 11.0561 6.92825 10.907C6.97797 10.7578 7.02271 10.6136 7.06248 10.4744C7.10226 10.3054 7.147 10.1364 7.19672 9.96734C7.31603 10.1364 7.44032 10.3452 7.56959 10.5938C7.69885 10.8324 7.82811 11.081 7.95737 11.3395C8.08663 11.598 8.21092 11.8516 8.33024 12.1001C8.4595 12.3388 8.57882 12.5426 8.68819 12.7117C8.8274 12.8906 8.96163 13.0646 9.09089 13.2337C9.22015 13.4027 9.35936 13.5519 9.50851 13.6811C9.65765 13.8004 9.82172 13.8949 10.0007 13.9645C10.1896 14.044 10.4034 14.0838 10.642 14.0838C10.9105 14.0838 11.174 14.0242 11.4325 13.9048C11.4983 13.878 11.5629 13.8492 11.6262 13.8182H10.9091V11.6364H8.72726V8.72728H9.30068C9.2095 8.54765 9.11969 8.36938 9.03123 8.19248C8.83237 7.79475 8.62853 7.37714 8.41973 6.93964L8.71802 6.08949C8.79757 5.91052 8.897 5.73154 9.01632 5.55256C9.13564 5.36364 9.27484 5.19461 9.43393 5.04546C9.59302 4.89631 9.76703 4.77699 9.95595 4.68751C10.1548 4.59802 10.3636 4.55327 10.5824 4.55327C10.8608 4.55327 11.1292 4.62287 11.3878 4.76208C11.6562 4.89134 11.8998 5.04546 12.1186 5.22444Z" fill="white"/>
</svg>
