<svg width="32" height="32" viewBox="0 0 32 32" fill="none" xmlns="http://www.w3.org/2000/svg">
<path d="M23.8595 8.6015L22.3538 12.0902C22.0594 11.8496 21.7315 11.6424 21.3701 11.4687C21.0222 11.2815 20.6608 11.188 20.2861 11.188C19.9916 11.188 19.7106 11.2481 19.4429 11.3684C19.1886 11.4887 18.9544 11.6491 18.7403 11.8496C18.5261 12.0501 18.3388 12.2774 18.1782 12.5313C18.0176 12.7719 17.8837 13.0125 17.7767 13.2531L17.3752 14.396C17.6562 14.9841 17.9306 15.5455 18.1982 16.0802C18.4258 16.5347 18.66 16.9958 18.9009 17.4637C19.1418 17.9181 19.3425 18.279 19.5031 18.5464C19.7574 18.934 20.0117 19.335 20.266 19.7494C20.5203 20.1504 20.8013 20.518 21.1092 20.8521C21.243 20.9992 21.4036 21.0994 21.591 21.1529C21.7917 21.193 21.9724 21.213 22.133 21.213C22.3873 21.213 22.6282 21.1796 22.8557 21.1128C23.0832 21.0459 23.2974 20.9591 23.4981 20.8521L24 21.4937C23.8126 21.7878 23.5851 22.0819 23.3174 22.3759C23.0498 22.67 22.7553 22.9373 22.4341 23.1779C22.1263 23.4185 21.7917 23.6124 21.4304 23.7594C21.0824 23.9198 20.7277 24 20.3664 24C20.0452 24 19.7574 23.9465 19.5031 23.8396C19.2622 23.746 19.0414 23.619 18.8407 23.4586C18.6399 23.2849 18.4525 23.0844 18.2785 22.8571C18.1046 22.6299 17.9239 22.396 17.7365 22.1554C17.5893 21.9282 17.4287 21.6541 17.2547 21.3333C17.0941 20.9992 16.9268 20.6583 16.7528 20.3108C16.5788 19.9632 16.4049 19.6291 16.2309 19.3083C16.0569 18.9741 15.8896 18.6934 15.729 18.4662C15.6621 18.6934 15.6018 18.9206 15.5483 19.1479C15.4948 19.335 15.4345 19.5288 15.3676 19.7293C15.3007 19.9298 15.2405 20.0835 15.187 20.1905C14.9862 20.6182 14.7319 21.0593 14.4241 21.5138C14.1163 21.9683 13.7616 22.3826 13.3601 22.7569C12.972 23.1178 12.5437 23.4185 12.0753 23.6591C11.6069 23.8864 11.1117 24 10.5897 24C10.1213 24 9.66625 23.9064 9.22459 23.7193C8.78294 23.5455 8.37474 23.3116 8 23.0175L9.26474 19.6892C9.69302 19.9566 10.1614 20.1972 10.67 20.411C11.1786 20.6115 11.6872 20.7118 12.1957 20.7118C12.3563 20.7118 12.5236 20.6984 12.6976 20.6717C12.8716 20.6316 13.0389 20.5781 13.1995 20.5113C13.3735 20.4311 13.5274 20.3375 13.6612 20.2306C13.7951 20.1103 13.8954 19.9699 13.9624 19.8095C14.056 19.6358 14.1564 19.4085 14.2635 19.1278C14.3706 18.8471 14.4776 18.5664 14.5847 18.2857C14.7051 17.9649 14.8256 17.6241 14.946 17.2632L11.1719 11.2281C10.9979 11.0276 10.7838 10.8672 10.5295 10.7469C10.2886 10.6132 10.0343 10.5464 9.76662 10.5464C9.5391 10.5464 9.32497 10.5931 9.12422 10.6867C8.92346 10.7669 8.7294 10.8805 8.54203 11.0276L8 10.3258C8.18737 10.0451 8.4082 9.77109 8.66248 9.50376C8.93015 9.22306 9.2179 8.97577 9.52572 8.7619C9.83354 8.53467 10.1614 8.35422 10.5094 8.22055C10.8574 8.07352 11.212 8 11.5734 8C12.0151 8 12.4233 8.11362 12.798 8.34085C13.1727 8.55472 13.5207 8.82206 13.8419 9.14286C14.1631 9.46366 14.4575 9.81119 14.7252 10.1855C14.9929 10.5597 15.2338 10.9073 15.4479 11.2281C15.555 11.3751 15.6688 11.5622 15.7892 11.7895C15.923 12.0033 16.0502 12.2172 16.1706 12.4311C16.3179 12.6717 16.4584 12.9323 16.5922 13.213C16.7261 12.8922 16.8666 12.5714 17.0138 12.2506C17.1343 11.9833 17.2547 11.7093 17.3752 11.4286C17.509 11.1345 17.6294 10.8805 17.7365 10.6667C17.9373 10.2924 18.1648 9.94486 18.4191 9.62406C18.6734 9.30326 18.9544 9.02256 19.2622 8.78195C19.5834 8.54135 19.9314 8.35422 20.3061 8.22055C20.6809 8.07352 21.0891 8 21.5307 8C21.9456 8 22.3471 8.05347 22.7353 8.1604C23.1234 8.26734 23.4981 8.41437 23.8595 8.6015Z" fill="white"/>
</svg>
