<svg width="32" height="32" viewBox="0 0 32 32" fill="none" xmlns="http://www.w3.org/2000/svg">
<path d="M10.8333 8C10.4576 8 10.0973 8.14926 9.8316 8.41493C9.56592 8.68061 9.41667 9.04094 9.41667 9.41667C9.41667 9.79239 9.56592 10.1527 9.8316 10.4184C10.0973 10.6841 10.4576 10.8333 10.8333 10.8333C17.1093 10.8333 22.1667 15.8907 22.1667 22.1667C22.1667 22.5424 22.3159 22.9027 22.5816 23.1684C22.8473 23.4341 23.2076 23.5833 23.5833 23.5833C23.9591 23.5833 24.3194 23.4341 24.5851 23.1684C24.8507 22.9027 25 22.5424 25 22.1667C25 14.3594 18.6406 8 10.8333 8ZM10.8333 13.6667C10.4576 13.6667 10.0973 13.8159 9.8316 14.0816C9.56592 14.3473 9.41667 14.7076 9.41667 15.0833C9.41667 15.4591 9.56592 15.8194 9.8316 16.0851C10.0973 16.3507 10.4576 16.5 10.8333 16.5C13.9797 16.5 16.5 19.0202 16.5 22.1667C16.5 22.5424 16.6493 22.9027 16.9149 23.1684C17.1806 23.4341 17.5409 23.5833 17.9167 23.5833C18.2924 23.5833 18.6527 23.4341 18.9184 23.1684C19.1841 22.9027 19.3333 22.5424 19.3333 22.1667C19.3333 17.4891 15.511 13.6667 10.8333 13.6667ZM10.8333 19.3333C10.0819 19.3333 9.36122 19.6318 8.82986 20.1632C8.29851 20.6946 8 21.4152 8 22.1667C8 22.9181 8.29851 23.6388 8.82986 24.1701C9.36122 24.7015 10.0819 25 10.8333 25C11.5848 25 12.3054 24.7015 12.8368 24.1701C13.3682 23.6388 13.6667 22.9181 13.6667 22.1667C13.6667 21.4152 13.3682 20.6946 12.8368 20.1632C12.3054 19.6318 11.5848 19.3333 10.8333 19.3333Z" fill="white"/>
</svg>
