<svg width="32" height="32" viewBox="0 0 32 32" fill="none" xmlns="http://www.w3.org/2000/svg">
<path fill-rule="evenodd" clip-rule="evenodd" d="M6 21.6054V10.3946C6 9.62436 6.61652 9 7.37709 9H20.5526C20.9905 9 21.4024 9.211 21.6619 9.56836L25.7323 15.1738C26.0892 15.6653 26.0892 16.3347 25.7323 16.8262L21.6619 22.4316C21.4024 22.789 20.9905 23 20.5526 23H7.37709C6.61652 23 6 22.3756 6 21.6054ZM21.5167 17.6154C22.4032 17.6154 23.1219 16.8922 23.1219 16C23.1219 15.1079 22.4032 14.3846 21.5167 14.3846C20.6302 14.3846 19.9116 15.1079 19.9116 16C19.9116 16.8922 20.6302 17.6154 21.5167 17.6154Z" fill="white"/>
</svg>
