<svg width="24" height="24" viewBox="0 0 24 24" fill="none" xmlns="http://www.w3.org/2000/svg">
<path fill-rule="evenodd" clip-rule="evenodd" d="M20.5 2.98445H3.5C2.67157 2.98445 2 3.65603 2 4.48445V18.6516C2 19.4766 2.66621 20.1467 3.49117 20.1516L14.0259 20.2136C14.8394 20.2184 15.1958 21.2423 14.5612 21.7512C13.7803 22.3774 14.5117 23.6083 15.435 23.2218L19.7193 21.4288L21.2367 20.5732C21.7083 20.3073 22 19.8079 22 19.2666V4.48445C22 3.65602 21.3284 2.98445 20.5 2.98445ZM9.68779 16.8306C8.62428 16.8306 7.64446 16.7868 6.74835 16.6992L6.6745 15.2978L7.75278 15.0058V9.44374C7.75278 9.1907 7.73309 9.02525 7.6937 8.94739C7.65431 8.8598 7.55091 8.78194 7.38351 8.71381L6.61541 8.29045L6.70404 7.07877C7.72817 7.00091 8.58981 6.94252 9.28897 6.90359C9.98814 6.85493 10.5494 6.8306 10.9729 6.8306C12.3318 6.8306 13.4199 6.98632 14.2373 7.29775C15.0645 7.60919 15.6651 8.10067 16.0393 8.7722C16.4234 9.44374 16.6154 10.3342 16.6154 11.4437C16.6154 12.8452 16.2905 13.979 15.6405 14.8452C15.0595 15.5946 14.2865 16.1153 13.3215 16.4072C12.3663 16.6895 11.155 16.8306 9.68779 16.8306ZM11.5489 14.743C12.3761 14.743 13.031 14.6457 13.5135 14.451C13.6021 14.2077 13.6809 13.8282 13.7498 13.3123C13.8286 12.7965 13.868 12.3148 13.868 11.8671C13.868 10.7673 13.6366 9.95469 13.1738 9.42914C12.7208 8.90359 12.0265 8.64082 11.091 8.64082C10.963 8.64082 10.8449 8.64568 10.7365 8.65542C10.6282 8.66515 10.5248 8.67488 10.4263 8.68461V14.67C10.8202 14.7187 11.1944 14.743 11.5489 14.743ZM18.3462 14.0042L16.8782 15.4535L18.2374 16.7887L19.6947 15.3455L18.3462 14.0042Z" fill="#E0E0E0"/>
</svg>
