<svg width="16" height="16" viewBox="0 0 16 16" fill="none" xmlns="http://www.w3.org/2000/svg">
<path fill-rule="evenodd" clip-rule="evenodd" d="M13.6545 1H2.5C1.67157 1 1 1.67157 1 2.5V11.6522C1 12.4772 1.6662 13.1473 2.49117 13.1522L9.51104 13.1935C10.0867 13.1969 10.339 13.9215 9.88987 14.2817C9.3372 14.7248 9.8548 15.596 10.5083 15.3225L13.5404 14.0535L14.3912 13.5737C14.8628 13.3079 15.1545 12.8085 15.1545 12.2671V2.5C15.1545 1.67157 14.4829 1 13.6545 1ZM6.44083 10.7993C5.68816 10.7993 4.99472 10.7683 4.36052 10.7063L4.30825 9.71443L5.07138 9.50779V5.5714C5.07138 5.39232 5.05744 5.27522 5.02957 5.22012C5.00169 5.15813 4.92851 5.10303 4.81004 5.05481L4.26644 4.75519L4.32916 3.89766C5.05396 3.84256 5.66377 3.80123 6.15858 3.77368C6.65339 3.73924 7.05064 3.72202 7.35032 3.72202C8.31207 3.72202 9.08217 3.83223 9.66061 4.05264C10.246 4.27305 10.6711 4.62088 10.936 5.09614C11.2078 5.5714 11.3437 6.20164 11.3437 6.98685C11.3437 7.97869 11.1137 8.78112 10.6537 9.39414C10.2425 9.9245 9.69546 10.293 9.01247 10.4996C8.33646 10.6994 7.47925 10.7993 6.44083 10.7993ZM7.75801 9.32182C8.34343 9.32182 8.80688 9.25294 9.14837 9.11518C9.2111 8.94299 9.26685 8.67436 9.31563 8.30931C9.37139 7.94425 9.39927 7.60331 9.39927 7.28647C9.39927 6.50814 9.23549 5.93301 8.90794 5.56107C8.58735 5.18913 8.09602 5.00316 7.43395 5.00316C7.34335 5.00316 7.25972 5.0066 7.18305 5.01349C7.10639 5.02037 7.03322 5.02726 6.96352 5.03415V9.27016C7.24229 9.3046 7.50712 9.32182 7.75801 9.32182ZM12.5686 8.79895L11.5297 9.82465L12.4916 10.7696L13.523 9.74824L12.5686 8.79895Z" fill="#5A5A5A"/>
</svg>
