<svg width="20" height="20" viewBox="0 0 20 20" fill="none" xmlns="http://www.w3.org/2000/svg">
<path fill-rule="evenodd" clip-rule="evenodd" d="M16.5306 3H3.5C2.67157 3 2 3.67157 2 4.5V15.2618C2 16.0867 2.6662 16.7569 3.49117 16.7617L11.6392 16.8097C12.2911 16.8135 12.5769 17.6342 12.0682 18.0421C11.4423 18.544 12.0285 19.5306 12.7686 19.2209L16.2026 17.7837L17.2673 17.1833C17.7389 16.9174 18.0306 16.4181 18.0306 15.8767V4.5C18.0306 3.67157 17.359 3 16.5306 3ZM8.162 14.0981C7.30956 14.0981 6.52421 14.063 5.80595 13.9928L5.74675 12.8695L6.61103 12.6355V8.17732C6.61103 7.9745 6.59525 7.84188 6.56367 7.77948C6.5321 7.70927 6.44923 7.64686 6.31505 7.59226L5.69939 7.25292L5.77043 6.28173C6.5913 6.21932 7.28193 6.17252 7.84234 6.14131C8.40274 6.10231 8.85264 6.08281 9.19203 6.08281C10.2813 6.08281 11.1534 6.20762 11.8086 6.45724C12.4716 6.70687 12.953 7.10081 13.253 7.63906C13.5608 8.17732 13.7147 8.89109 13.7147 9.78038C13.7147 10.9037 13.4542 11.8125 12.9333 12.5068C12.4676 13.1074 11.848 13.5248 11.0745 13.7588C10.3089 13.985 9.33805 14.0981 8.162 14.0981ZM9.65377 12.4248C10.3168 12.4248 10.8417 12.3468 11.2284 12.1908C11.2995 11.9958 11.3626 11.6916 11.4179 11.2781C11.481 10.8647 11.5126 10.4785 11.5126 10.1197C11.5126 9.23822 11.3271 8.58686 10.9561 8.16562C10.593 7.74437 10.0366 7.53375 9.28675 7.53375C9.18414 7.53375 9.08942 7.53765 9.0026 7.54545C8.91578 7.55325 8.8329 7.56106 8.75397 7.56886V12.3663C9.06969 12.4053 9.36963 12.4248 9.65377 12.4248ZM15.102 11.8327L13.9253 12.9943L15.0147 14.0646L16.1828 12.9078L15.102 11.8327Z" fill="#5A5A5A"/>
</svg>
