<svg width="12" height="12" viewBox="0 0 12 12" fill="none" xmlns="http://www.w3.org/2000/svg">
<path fill-rule="evenodd" clip-rule="evenodd" d="M9.5 1H2.5C1.67157 1 1 1.67157 1 2.5V8.08798C1 8.91296 1.6662 9.5831 2.49117 9.58795L7.01297 9.61457C7.41968 9.61696 7.59791 10.1289 7.28061 10.3834C6.89015 10.6965 7.25583 11.3119 7.71752 11.1187L9.85965 10.2222L10.2367 10.0095C10.7083 9.74366 11 9.24429 11 8.70293V2.5C11 1.67157 10.3284 1 9.5 1ZM4.84388 7.92308C4.31212 7.92308 3.82222 7.90118 3.37416 7.85738L3.33724 7.15665L3.87638 7.01067V4.22965C3.87638 4.10313 3.86653 4.0204 3.84684 3.98147C3.82714 3.93768 3.77544 3.89875 3.69174 3.86468L3.30769 3.653L3.35201 3.04717C3.86407 3.00824 4.29489 2.97904 4.64447 2.95957C4.99405 2.93524 5.2747 2.92308 5.48642 2.92308C6.16589 2.92308 6.70996 3.00094 7.11862 3.15665C7.53221 3.31237 7.83256 3.55811 8.01966 3.89388C8.21168 4.22965 8.30769 4.6749 8.30769 5.22965C8.30769 5.93038 8.14521 6.49729 7.82025 6.93038C7.52975 7.30507 7.14324 7.56541 6.66072 7.7114C6.18312 7.85252 5.57751 7.92308 4.84388 7.92308ZM5.77446 6.87928C6.18805 6.87928 6.51547 6.83062 6.75673 6.7333C6.80105 6.61164 6.84044 6.42186 6.8749 6.16395C6.91429 5.90605 6.93399 5.66517 6.93399 5.44133C6.93399 4.89145 6.81828 4.48512 6.58687 4.22235C6.36038 3.95957 6.01326 3.82819 5.54551 3.82819C5.4815 3.82819 5.42241 3.83062 5.36825 3.83549C5.31409 3.84035 5.2624 3.84522 5.21316 3.85009V6.84279C5.41011 6.86712 5.59721 6.87928 5.77446 6.87928ZM9.17309 6.50988L8.43909 7.23453L9.11869 7.90214L9.84734 7.18055L9.17309 6.50988Z" fill="#E0E0E0"/>
</svg>
