<svg width="16" height="16" viewBox="0 0 16 16" fill="none" xmlns="http://www.w3.org/2000/svg">
<path fill-rule="evenodd" clip-rule="evenodd" d="M1 2C1 1.44771 1.44772 1 2 1H14C14.5523 1 15 1.44772 15 2V11C15 13.5 7 15 7 15L9.24 12H2C1.44772 12 1 11.5523 1 11V2ZM3 8C3 7.68776 3.10876 7.44304 3.32629 7.26582C3.54381 7.08861 3.82931 7 4.18279 7C4.54534 7 4.83537 7.08861 5.05289 7.26582C5.27042 7.44304 5.37918 7.68776 5.37918 8C5.37918 8.29536 5.27042 8.53586 5.05289 8.72152C4.83537 8.90717 4.54534 9 4.18279 9C3.82931 9 3.54381 8.90717 3.32629 8.72152C3.10876 8.53586 3 8.29536 3 8ZM6.81041 8C6.81041 7.68776 6.91917 7.44304 7.1367 7.26582C7.35422 7.08861 7.63972 7 7.9932 7C8.35574 7 8.64578 7.08861 8.8633 7.26582C9.08083 7.44304 9.18959 7.68776 9.18959 8C9.18959 8.29536 9.08083 8.53586 8.8633 8.72152C8.64578 8.90717 8.35574 9 7.9932 9C7.63972 9 7.35422 8.90717 7.1367 8.72152C6.91917 8.53586 6.81041 8.29536 6.81041 8ZM10.9471 7.26582C10.7296 7.44304 10.6208 7.68776 10.6208 8C10.6208 8.29536 10.7296 8.53586 10.9471 8.72152C11.1646 8.90717 11.4501 9 11.8036 9C12.1662 9 12.4562 8.90717 12.6737 8.72152C12.8912 8.53586 13 8.29536 13 8C13 7.68776 12.8912 7.44304 12.6737 7.26582C12.4562 7.08861 12.1662 7 11.8036 7C11.4501 7 11.1646 7.08861 10.9471 7.26582Z" fill="#E0E0E0"/>
</svg>
