<svg width="22" height="22" viewBox="0 0 22 22" fill="none" xmlns="http://www.w3.org/2000/svg">
<path d="M2 3C2 2.44772 2.44772 2 3 2H19C19.5523 2 20 2.44772 20 3V4C20 4.55229 19.5523 5 19 5H3C2.44772 5 2 4.55229 2 4V3Z" fill="white"/>
<path d="M2 8C2 7.44772 2.44772 7 3 7H19C19.5523 7 20 7.44772 20 8V9C20 9.55229 19.5523 10 19 10V9H15V10H3C2.44772 10 2 9.55229 2 9V8Z" fill="white"/>
<path d="M2 13C2 12.4477 2.44772 12 3 12H12C12 12 12 12.4477 12 13V14C12 14.5523 12 15 12 15H3C2.44772 15 2 14.5523 2 14V13Z" fill="white"/>
<path d="M2 18C2 17.4477 2.44772 17 3 17H15V19H19V17C19.5523 17 20 17.4477 20 18V19C20 19.5523 19.5523 20 19 20H3C2.44772 20 2 19.5523 2 19V18Z" fill="white"/>
<path d="M18 13H21V15H18V18H16V15H13V13H16V10H18V13Z" fill="#A5EFAC"/>
</svg>
