<svg width="16" height="16" viewBox="0 0 16 16" fill="none" xmlns="http://www.w3.org/2000/svg">
<path d="M13.0909 9.45455H15.2727V10.9091H13.0909V13.0909H11.6364V10.9091H9.45454V9.45455H11.6364V7.27274H13.0909V9.45455Z" fill="#A5EFAC"/>
<path fill-rule="evenodd" clip-rule="evenodd" d="M10.9094 6.54545C11.3659 5.93769 11.6364 5.18225 11.6364 4.36363C11.6364 2.35532 10.0083 0.727264 8 0.727264C5.99169 0.727264 4.36363 2.35532 4.36363 4.36363C4.36363 5.82377 5.22423 7.08291 6.46587 7.66149C4.81274 8.532 3.63636 10.7686 3.63636 13.3904C3.63636 15.2727 5.59003 15.2727 8 15.2727C10.2115 15.2727 12.0388 15.2727 12.3247 13.8182H10.9091V11.6364H8.72727V8.72726H10.8247C10.445 8.2747 10.0092 7.91168 9.53412 7.66149C10.0795 7.40735 10.5514 7.02191 10.9091 6.5458V6.54545H10.9094Z" fill="white"/>
</svg>
