<svg width="16" height="16" viewBox="0 0 16 16" fill="none" xmlns="http://www.w3.org/2000/svg">
<path d="M13.0909 9.45455H15.2727V10.9091H13.0909V13.0909H11.6364V10.9091H9.45454V9.45455H11.6364V7.27274H13.0909V9.45455Z" fill="#A5EFAC"/>
<path fill-rule="evenodd" clip-rule="evenodd" d="M12.1186 5.22444L13.2372 2.62927C12.9687 2.49006 12.6903 2.38069 12.402 2.30114C12.1136 2.2216 11.8153 2.18182 11.5071 2.18182C11.179 2.18182 10.8757 2.23651 10.5973 2.34589C10.3189 2.44532 10.0604 2.58452 9.82173 2.7635C9.59304 2.94248 9.38423 3.15128 9.19531 3.38992C9.00639 3.62856 8.83736 3.88708 8.68821 4.16549C8.60866 4.32458 8.51917 4.5135 8.41974 4.73225C8.33025 4.94106 8.24077 5.14489 8.15128 5.34376C8.0419 5.58239 7.9375 5.82103 7.83807 6.05966C7.73863 5.85086 7.63423 5.65697 7.52486 5.47799C7.43537 5.3189 7.34091 5.15981 7.24148 5.00072C7.15199 4.83168 7.06747 4.69248 6.98792 4.5831C6.82883 4.34447 6.64986 4.08594 6.45099 3.80753C6.25213 3.52912 6.03338 3.2706 5.79474 3.03197C5.55611 2.79333 5.29758 2.59447 5.01917 2.43537C4.74077 2.26634 4.4375 2.18182 4.10937 2.18182C3.84091 2.18182 3.57741 2.23651 3.31889 2.34589C3.06037 2.44532 2.81676 2.57955 2.58807 2.74859C2.35937 2.90768 2.1456 3.09162 1.94673 3.30043C1.75781 3.4993 1.59375 3.70313 1.45454 3.91194L1.85724 4.43395C1.99645 4.32458 2.14062 4.24006 2.28977 4.1804C2.43892 4.1108 2.59801 4.076 2.76704 4.076C2.96591 4.076 3.15483 4.12572 3.33381 4.22515C3.52273 4.31464 3.68182 4.43395 3.81108 4.5831L6.61506 9.07245C6.52557 9.34091 6.43608 9.59447 6.34659 9.8331L6.10795 10.4595C6.02841 10.6683 5.95383 10.8374 5.88423 10.9666C5.83452 11.0859 5.75994 11.1903 5.66051 11.2798C5.56108 11.3594 5.44673 11.429 5.31747 11.4886C5.19815 11.5384 5.07386 11.5781 4.9446 11.608C4.81534 11.6278 4.69105 11.6378 4.57173 11.6378C4.19389 11.6378 3.81605 11.5632 3.43821 11.4141C3.06037 11.255 2.71236 11.076 2.39417 10.8771L1.45454 13.353C1.73295 13.5717 2.03622 13.7457 2.36435 13.875C2.69247 14.0142 3.03054 14.0838 3.37855 14.0838C3.76633 14.0838 4.13423 13.9993 4.48224 13.8303C4.83025 13.6513 5.14844 13.4276 5.43679 13.1591C5.73508 12.8807 5.99858 12.5724 6.22727 12.2344C6.45596 11.8963 6.64488 11.5682 6.79403 11.25C6.83381 11.1705 6.87855 11.0561 6.92827 10.907C6.97798 10.7578 7.02273 10.6136 7.0625 10.4744C7.10227 10.3054 7.14702 10.1364 7.19673 9.96734C7.31605 10.1364 7.44034 10.3452 7.5696 10.5938C7.69886 10.8324 7.82812 11.081 7.95738 11.3395C8.08665 11.598 8.21094 11.8516 8.33025 12.1001C8.45952 12.3388 8.57883 12.5426 8.68821 12.7117C8.82741 12.8906 8.96165 13.0646 9.09091 13.2337C9.22017 13.4027 9.35937 13.5519 9.50852 13.6811C9.65767 13.8004 9.82173 13.8949 10.0007 13.9645C10.1896 14.044 10.4034 14.0838 10.642 14.0838C10.9105 14.0838 11.174 14.0242 11.4325 13.9048C11.4983 13.878 11.5629 13.8492 11.6262 13.8182H10.9091V11.6364H8.72727V8.72728H9.30069C9.20952 8.54765 9.1197 8.36938 9.03125 8.19248C8.83238 7.79475 8.62855 7.37714 8.41974 6.93964L8.71804 6.08949C8.79758 5.91052 8.89702 5.73154 9.01633 5.55256C9.13565 5.36364 9.27486 5.19461 9.43395 5.04546C9.59304 4.89631 9.76704 4.77699 9.95596 4.68751C10.1548 4.59802 10.3636 4.55327 10.5824 4.55327C10.8608 4.55327 11.1293 4.62287 11.3878 4.76208C11.6562 4.89134 11.8999 5.04546 12.1186 5.22444Z" fill="white"/>
</svg>
