<?xml version="1.0" encoding="UTF-8" standalone="no"?>
<svg
  width="16"
  height="16"
  viewBox="0 0 16 16"
  fill="none"
  version="1.1"
  id="svg2"
  sodipodi:docname="add-timeline.svg"
  inkscape:version="1.4 (86a8ad7, 2024-10-11)"
  xmlns:inkscape="http://www.inkscape.org/namespaces/inkscape"
  xmlns:sodipodi="http://sodipodi.sourceforge.net/DTD/sodipodi-0.dtd"
  xmlns="http://www.w3.org/2000/svg"
  xmlns:svg="http://www.w3.org/2000/svg">
 <defs
   id="defs2" />
 <sodipodi:namedview
   id="namedview2"
   pagecolor="#505050"
   bordercolor="#eeeeee"
   borderopacity="1"
   inkscape:showpageshadow="0"
   inkscape:pageopacity="0"
   inkscape:pagecheckerboard="0"
   inkscape:deskcolor="#d1d1d1"
   inkscape:zoom="26.3125"
   inkscape:cx="9.3111639"
   inkscape:cy="6.4608076"
   inkscape:window-width="1920"
   inkscape:window-height="1017"
   inkscape:window-x="1912"
   inkscape:window-y="-8"
   inkscape:window-maximized="1"
   inkscape:current-layer="svg2"
   showgrid="true">
  <inkscape:grid
    id="grid2"
    units="px"
    originx="0"
    originy="0"
    spacingx="1"
    spacingy="1"
    empcolor="#0099e5"
    empopacity="0.30196078"
    color="#0099e5"
    opacity="0.14901961"
    empspacing="5"
    enabled="true"
    visible="true" />
 </sodipodi:namedview>
 <path
   id="rect5"
   style="fill:#ffffff;stroke-width:0;stroke-linecap:round;stroke-miterlimit:2.1;paint-order:markers stroke fill"
   d="M 2.6191406 2.5 C 2.3243757 2.5 2.0859375 2.7364852 2.0859375 3.03125 L 2.0859375 3.9667969 C 2.0859375 4.2615617 2.3243757 4.5 2.6191406 4.5 L 3.5546875 4.5 C 3.8494524 4.5 4.0859375 4.2615617 4.0859375 3.9667969 L 4.0859375 3.03125 C 4.0859375 2.7364852 3.8494524 2.5 3.5546875 2.5 L 2.6191406 2.5 z M 5.0820312 2.5 C 4.7872663 2.5 4.5488281 2.7364852 4.5488281 3.03125 L 4.5488281 3.9667969 C 4.5488281 4.2615617 4.7872665 4.5 5.0820312 4.5 L 12.554688 4.5 C 12.849451 4.5 13.085938 4.2615617 13.085938 3.9667969 L 13.085938 3.03125 C 13.085938 2.7364852 12.849452 2.5 12.554688 2.5 L 5.0820312 2.5 z M 3.1035156 5.5 C 2.8087507 5.5 2.5703125 5.7364851 2.5703125 6.03125 L 2.5703125 6.9667969 C 2.5703125 7.2615617 2.8087507 7.5 3.1035156 7.5 L 4.0390625 7.5 C 4.3338274 7.5 4.5703125 7.2615617 4.5703125 6.9667969 L 4.5703125 6.03125 C 4.5703125 5.7364851 4.3338274 5.5 4.0390625 5.5 L 3.1035156 5.5 z M 5.6191406 5.5 C 5.3243757 5.5 5.0859375 5.7364851 5.0859375 6.03125 L 5.0859375 6.9667969 C 5.0859375 7.2615617 5.3243757 7.5 5.6191406 7.5 L 10.400391 7.5 L 10.400391 7.21875 L 13.054688 7.21875 L 13.054688 7.5 L 13.554688 7.5 C 13.849451 7.5 14.085938 7.2615617 14.085938 6.9667969 L 14.085938 6.03125 C 14.085938 5.7364851 13.849452 5.5 13.554688 5.5 L 5.6191406 5.5 z M 2.6191406 8.5 C 2.3243757 8.5 2.0859375 8.7364851 2.0859375 9.03125 L 2.0859375 9.9667969 C 2.0859375 10.261562 2.3243757 10.5 2.6191406 10.5 L 3.5546875 10.5 C 3.8494524 10.5 4.0859375 10.261562 4.0859375 9.9667969 L 4.0859375 9.03125 C 4.0859375 8.7364851 3.8494524 8.5 3.5546875 8.5 L 2.6191406 8.5 z M 5.0820312 8.5 C 4.7872664 8.5 4.5488281 8.7364851 4.5488281 9.03125 L 4.5488281 9.9667969 C 4.5488281 10.261562 4.7872665 10.5 5.0820312 10.5 L 8.21875 10.5 L 8.21875 9.4003906 L 10.400391 9.4003906 L 10.400391 8.5 L 5.0820312 8.5 z M 13.054688 8.8554688 L 13.054688 9.4003906 L 13.085938 9.4003906 L 13.085938 9.03125 C 13.085938 8.9691141 13.074035 8.9107559 13.054688 8.8554688 z M 3.1035156 11.5 C 2.8087507 11.5 2.5703125 11.736485 2.5703125 12.03125 L 2.5703125 12.966797 C 2.5703125 13.261562 2.8087507 13.5 3.1035156 13.5 L 4.0390625 13.5 C 4.3338274 13.5 4.5703125 13.261562 4.5703125 12.966797 L 4.5703125 12.03125 C 4.5703125 11.736485 4.3338274 11.5 4.0390625 11.5 L 3.1035156 11.5 z M 5.6191406 11.5 C 5.3243758 11.5 5.0859375 11.736485 5.0859375 12.03125 L 5.0859375 12.966797 C 5.0859375 13.261562 5.3243758 13.5 5.6191406 13.5 L 10.400391 13.5 L 10.400391 12.054688 L 8.21875 12.054688 L 8.21875 11.5 L 5.6191406 11.5 z M 13.054688 12.054688 L 13.054688 13.5 L 13.554688 13.5 C 13.849451 13.5 14.085938 13.261562 14.085938 12.966797 L 14.085938 12.054688 L 13.054688 12.054688 z " />
 <path
   d="m 12.4545,10 h 2.1818 v 1.45455 h -2.1818 v 2.1818 H 11 v -2.1818 H 8.81814 V 10 H 11 V 7.81819 h 1.4545 z"
   fill="#a5efac"
   id="path1-0" />
 <g
   id="path6" />
</svg>
