<svg width="30" height="30" viewBox="0 0 30 30" fill="none" xmlns="http://www.w3.org/2000/svg">
<path fill-rule="evenodd" clip-rule="evenodd" d="M24.5 4H5.5C3.567 4 2 5.56701 2 7.5V22.8264C2 24.7514 3.55448 26.315 5.4794 26.3263L18.5726 26.4034C19.4287 26.4084 19.8729 27.4265 19.2943 28.0576C18.598 28.817 19.3848 30.0014 20.3547 29.6539L24.8615 28.0398C24.977 27.9984 25.0888 27.9473 25.1957 27.887L26.219 27.3101C27.3193 26.6896 28 25.5245 28 24.2613V7.5C28 5.567 26.433 4 24.5 4ZM11.9941 22C10.6115 22 9.33776 21.9431 8.17282 21.8292L8.07681 20.0073L9.47858 19.6277V12.3971C9.47858 12.0681 9.45298 11.853 9.40177 11.7518C9.35057 11.638 9.21615 11.5367 8.99852 11.4482L8 10.8978L8.11521 9.32263C9.44658 9.22141 10.5667 9.1455 11.4756 9.09489C12.3845 9.03163 13.1142 9 13.6647 9C15.4313 9 16.8459 9.20243 17.9084 9.6073C18.9838 10.0122 19.7646 10.6511 20.2511 11.5241C20.7504 12.3971 21 13.5547 21 14.9971C21 16.819 20.5775 18.2929 19.7326 19.419C18.9774 20.3932 17.9724 21.0701 16.7179 21.4496C15.4761 21.8165 13.9015 22 11.9941 22ZM14.4136 19.2861C15.4889 19.2861 16.3402 19.1596 16.9675 18.9066C17.0827 18.5903 17.1851 18.0968 17.2747 17.4263C17.3772 16.7557 17.4284 16.1294 17.4284 15.5474C17.4284 14.1178 17.1275 13.0613 16.5258 12.3781C15.937 11.6949 15.0345 11.3533 13.8183 11.3533C13.6519 11.3533 13.4983 11.3596 13.3575 11.3723C13.2166 11.3849 13.0822 11.3976 12.9542 11.4102V19.1912C13.4663 19.2545 13.9527 19.2861 14.4136 19.2861ZM23.25 18.3257L21.3416 20.2098L23.1085 21.9456L25.003 20.0694L23.25 18.3257Z" fill="#E0E0E0"/>
</svg>
