<svg width="28" height="28" viewBox="0 0 28 28" fill="none" xmlns="http://www.w3.org/2000/svg">
<path fill-rule="evenodd" clip-rule="evenodd" d="M21.5 5H5.5C3.567 5 2 6.567 2 8.5V21.2526C2 23.1776 3.55448 24.7413 5.4794 24.7526L16.6604 24.8184C17.4177 24.8229 17.8107 25.7234 17.2988 26.2817C16.6829 26.9535 17.3788 28.0012 18.2369 27.6939L22.2236 26.266C22.3258 26.2294 22.4247 26.1842 22.5193 26.1308L23.219 25.7363C24.3193 25.1159 25 23.9507 25 22.6875V8.5C25 6.567 23.433 5 21.5 5ZM10.8409 20.9231C9.61788 20.9231 8.49109 20.8727 7.46056 20.772L7.37563 19.1603L8.61566 18.8245V12.4282C8.61566 12.1372 8.59301 11.9469 8.54771 11.8574C8.50242 11.7566 8.38351 11.6671 8.19099 11.5888L7.30768 11.1019L7.4096 9.70846C8.58735 9.61893 9.57824 9.55177 10.3823 9.507C11.1863 9.45104 11.8318 9.42306 12.3188 9.42306C13.8815 9.42306 15.1329 9.60214 16.0728 9.96029C17.0241 10.3184 17.7149 10.8836 18.1452 11.6559C18.5869 12.4282 18.8077 13.4523 18.8077 14.7282C18.8077 16.3398 18.434 17.6437 17.6866 18.6398C17.0184 19.5016 16.1294 20.1004 15.0196 20.4362C13.9212 20.7608 12.5283 20.9231 10.8409 20.9231ZM12.9812 18.5223C13.9325 18.5223 14.6856 18.4104 15.2405 18.1866C15.3424 17.9068 15.433 17.4703 15.5123 16.8771C15.6029 16.2839 15.6482 15.7299 15.6482 15.215C15.6482 13.9503 15.382 13.0158 14.8498 12.4114C14.3289 11.807 13.5305 11.5048 12.4547 11.5048C12.3074 11.5048 12.1715 11.5104 12.047 11.5216C11.9224 11.5328 11.8035 11.544 11.6903 11.5552V18.4384C12.1432 18.4944 12.5736 18.5223 12.9812 18.5223ZM20.798 17.6727L19.1098 19.3394L20.6729 20.8749L22.3488 19.2153L20.798 17.6727Z" fill="#E0E0E0"/>
</svg>
