<svg width="32" height="32" viewBox="0 0 32 32" fill="none" xmlns="http://www.w3.org/2000/svg">
<path d="M10.1667 8C10.0117 8.00015 9.85836 8.0305 9.7155 8.0893C9.71473 8.0893 9.714 8.0893 9.71322 8.0893C9.71058 8.0904 9.70902 8.09265 9.70638 8.09375C9.57136 8.15035 9.44842 8.23135 9.34409 8.3326C9.34259 8.33405 9.34103 8.3356 9.33953 8.33705C9.23852 8.43765 9.15737 8.55575 9.10028 8.6853C9.09676 8.6931 9.09219 8.6997 9.08887 8.7076C9.03049 8.8456 9.00031 8.9935 9 9.14285C9 10.8572 10.1281 12.1425 11.1852 13.326C12.0728 14.3197 12.8373 15.2031 13.3727 16C12.8373 16.7971 12.0729 17.6827 11.1852 18.6764C10.1281 19.8598 9 21.1428 9 22.8571C8.99985 23.0097 9.0308 23.1607 9.09116 23.3013V23.3036C9.09225 23.3061 9.09458 23.3078 9.09572 23.3103C9.15395 23.441 9.23665 23.5598 9.33953 23.6607C9.34072 23.6619 9.3429 23.6663 9.34409 23.6674C9.44562 23.7651 9.56456 23.8438 9.69497 23.8995C9.70586 23.9042 9.71582 23.9086 9.72686 23.913C9.86634 23.9696 10.0157 23.9992 10.1667 24H21.8333C21.9834 23.9995 22.1319 23.9707 22.2708 23.9152C22.2827 23.9105 22.2934 23.9046 22.305 23.8995C22.4319 23.8442 22.5476 23.7671 22.6468 23.6719C22.6524 23.6666 22.6573 23.6617 22.6628 23.6562C22.761 23.5586 22.8405 23.4445 22.8974 23.3192C22.9023 23.3086 22.9067 23.2988 22.9111 23.288C22.9689 23.1514 22.9991 23.005 23 22.8571C23 21.1428 21.8719 19.8597 20.8148 18.6764C19.9272 17.6827 19.1627 16.7971 18.6273 16C19.1627 15.2031 19.9272 14.3197 20.8148 13.326C21.8719 12.1425 23 10.8572 23 9.14285C23.0005 8.98955 22.9695 8.83775 22.9088 8.69645C22.8498 8.56125 22.7647 8.43845 22.6582 8.33485C22.5541 8.2328 22.4311 8.151 22.2959 8.09375C22.2913 8.0915 22.2868 8.08925 22.2822 8.08705C22.1399 8.0293 21.9873 7.9997 21.8333 8H10.1667ZM12.0192 10.2858H19.9808C19.7034 10.7895 19.6244 11.1877 19.0602 11.8192C18.0756 12.9215 16.8455 14.0733 16.123 15.4888C16.042 15.6476 15.9999 15.8226 16 16C16 15.8226 15.9579 15.6476 15.8769 15.4888C15.1544 14.0733 13.9243 12.9215 12.9397 11.8192C12.3756 11.1877 12.2966 10.7895 12.0192 10.2858H12.0192Z" fill="white"/>
</svg>
