<?xml version="1.0" encoding="UTF-8" standalone="no"?>
<!-- Created with Inkscape (http://www.inkscape.org/) -->

<svg width="100" height="100" viewBox="0 0 26.458333 26.458333" version="1.1" id="svg13076" inkscape:export-filename="bitmap.svg" inkscape:export-xdpi="96" inkscape:export-ydpi="96" sodipodi:docname="textbox_layer_icon.svg" xmlns:inkscape="http://www.inkscape.org/namespaces/inkscape" xmlns:sodipodi="http://sodipodi.sourceforge.net/DTD/sodipodi-0.dtd" xmlns="http://www.w3.org/2000/svg" xmlns:svg="http://www.w3.org/2000/svg">
  <sodipodi:namedview id="namedview13078" pagecolor="#505050" bordercolor="#eeeeee" borderopacity="1" inkscape:showpageshadow="0" inkscape:pageopacity="0" inkscape:pagecheckerboard="0" inkscape:deskcolor="#505050" inkscape:document-units="mm" showgrid="true">
    <inkscape:grid type="xygrid" id="grid14286" />
  </sodipodi:namedview>
  <defs id="defs13073" />
  <g inkscape:label="Layer 1" inkscape:groupmode="layer" id="layer1">
    <path id="rect6772" style="fill:#ffffff;fill-opacity:1;fill-rule:evenodd;stroke:none;stroke-width:1.88;stroke-linecap:round;stroke-linejoin:round;stroke-miterlimit:3.2;stroke-opacity:1" d="m 2.6458333,10.583333 c -0.7328917,0 -1.3229166,0.590026 -1.3229166,1.322917 v 10.583333 c 0,0.732895 0.5900249,1.322917 1.3229166,1.322917 H 23.8125 c 0.732891,0 1.322917,-0.590022 1.322917,-1.322917 V 11.90625 c 0,-0.732891 -0.590026,-1.322917 -1.322917,-1.322917 z m 1.8520834,1.852084 h 3.7041666 c 0.7328922,0 1.3229167,0.590025 1.3229167,1.322916 V 20.6375 c 0,0.732891 -0.5900245,1.322917 -1.3229167,1.322917 H 4.4979167 C 3.7650245,21.960417 3.175,21.370391 3.175,20.6375 v -6.879167 c 0,-0.732891 0.5900245,-1.322916 1.3229167,-1.322916 z M 11.1125,13.49375 h 4.233333 c 0.439738,0 0.79375,0.354013 0.79375,0.79375 0,0.439737 -0.354012,0.79375 -0.79375,0.79375 H 11.1125 c -0.439737,0 -0.79375,-0.354013 -0.79375,-0.79375 0,-0.439737 0.354013,-0.79375 0.79375,-0.79375 z m -0.01602,2.116667 h 11.409123 c 0.430981,0 0.77773,0.346749 0.77773,0.77773 v 0.03204 c 0,0.430981 -0.346749,0.777731 -0.77773,0.777731 H 11.09648 c -0.430978,0 -0.77773,-0.34675 -0.77773,-0.777731 v -0.03204 c 0,-0.430981 0.346752,-0.77773 0.77773,-0.77773 z m 0,2.116666 h 11.409123 c 0.430981,0 0.77773,0.34675 0.77773,0.777731 v 0.03204 c 0,0.430981 -0.346749,0.77773 -0.77773,0.77773 H 11.09648 c -0.430979,0 -0.77773,-0.346749 -0.77773,-0.77773 v -0.03204 c 0,-0.430981 0.346751,-0.777731 0.77773,-0.777731 z m 0,2.116667 h 9.292456 c 0.430981,0 0.777731,0.34675 0.777731,0.77773 v 0.03204 c 0,0.43098 -0.34675,0.77773 -0.777731,0.77773 H 11.09648 c -0.43098,0 -0.77773,-0.34675 -0.77773,-0.77773 v -0.03204 c 0,-0.43098 0.34675,-0.77773 0.77773,-0.77773 z" />
    <circle style="fill:#ffffff;fill-opacity:1;fill-rule:evenodd;stroke:none;stroke-width:1.88;stroke-linecap:round;stroke-linejoin:round;stroke-miterlimit:3.2;stroke-opacity:1" id="path6939" cx="6.3499999" cy="15.875" r="2.6458333" />
    <path style="fill:#ffffff;fill-opacity:1;fill-rule:evenodd;stroke:none;stroke-width:1.88;stroke-linecap:round;stroke-linejoin:round;stroke-miterlimit:3.2;stroke-opacity:1" d="M 8.7312499,22.225 H 3.7041666 l 1.0583333,-4.497917 h 2.9104167 z" id="path6995" />
  </g>
</svg>
