<svg width="32" height="32" viewBox="0 0 32 32" fill="none" xmlns="http://www.w3.org/2000/svg">
<path d="M22.6276 7.00057C22.5166 7.00333 22.4064 7.01996 22.2995 7.05005L12.9661 9.71701C12.6879 9.79677 12.4431 9.96493 12.2688 10.1961C12.0945 10.4273 12.0001 10.7089 12 10.9984V18.4003C11.7806 18.3554 11.5573 18.3327 11.3333 18.3326C10.4493 18.3326 9.60143 18.6838 8.97631 19.309C8.35119 19.9342 8 20.7821 8 21.6663C8 22.5504 8.35119 23.3984 8.97631 24.0236C9.60143 24.6488 10.4493 25 11.3333 25C12.1966 24.9992 13.0258 24.6635 13.6465 24.0636C14.2673 23.4637 14.6311 22.6463 14.6615 21.7835C14.6649 21.7445 14.6667 21.7054 14.6667 21.6663V12.0064L21.3333 10.1026V14.3323L24 12.9988V8.33162C23.9997 8.15339 23.9637 7.97703 23.8941 7.81295C23.8245 7.64888 23.7227 7.50042 23.5948 7.37635C23.4669 7.25228 23.3153 7.15512 23.1492 7.0906C22.9831 7.02609 22.8057 6.99536 22.6276 7.00057Z" fill="white"/>
<path d="M21.3333 17.5045L21.3333 10.1026L24 11.1106V20.7705C24 20.8097 23.9982 20.8488 23.9948 20.8877C23.9644 21.7505 23.6006 22.5679 22.9799 23.1678C22.3591 23.7677 21.5299 24.1034 20.6667 24.1042C19.7826 24.1042 18.9348 23.753 18.3096 23.1278C17.6845 22.5026 17.3333 21.6547 17.3333 20.7705C17.3333 19.8864 17.6845 19.0384 18.3096 18.4132C18.9348 17.788 19.7826 17.4368 20.6667 17.4368C20.8906 17.4369 21.1139 17.4596 21.3333 17.5045Z" fill="white"/>
</svg>
