<svg width="32" height="32" viewBox="0 0 32 32" fill="none" xmlns="http://www.w3.org/2000/svg">
<path d="M7.191 6C6.87508 6 6.57215 6.11708 6.34885 6.32546C6.12546 6.53385 6 6.81646 6 7.11108V24.8889C6 25.1835 6.12546 25.4662 6.34885 25.6745C6.57215 25.8829 6.87508 26 7.191 26H24.809C24.809 26 25.4278 25.8829 25.6512 25.6745C25.8745 25.4662 26 25.1835 26 24.8889C26 24.5942 26 7.11108 26 7.11108C26 6.81646 25.8745 6.53385 25.6512 6.32546C25.4278 6.11708 25.1249 6 24.809 6H7.191ZM8.22223 8.22223H23.7778V21.5555H8.22223V8.22223Z" fill="white"/>
<path d="M20.4326 19.7336H11.749C10.9919 19.7336 10.4318 19.0678 10.603 18.3712L11.2102 15.9012C11.3442 15.356 11.8866 14.9901 12.4762 15.0471L14.3691 15.2305C14.7485 15.2673 15.1233 15.128 15.3745 14.8569L17.7095 12.3366C18.3146 11.6834 19.4436 11.9084 19.7178 12.7368L21.5555 18.2911C21.7923 19.0065 21.2263 19.7336 20.4326 19.7336Z" fill="white"/>
</svg>
