<svg width="32" height="32" viewBox="0 0 32 32" fill="none" xmlns="http://www.w3.org/2000/svg">
<path fill-rule="evenodd" clip-rule="evenodd" d="M6 10.1358V19.7469C6 20.9264 6.95623 21.8826 8.13579 21.8826H11.4052C11.3769 21.8338 11.3489 21.7846 11.3214 21.7353C10.6594 20.5457 11.0869 19.0447 12.2765 18.3826C13.466 17.7205 14.9671 18.1481 15.6291 19.3376C16.3105 20.5618 17.4736 21.3504 18.6945 21.469C19.1788 21.5161 19.7577 21.4646 20.3999 21.2208C20.0794 20.7918 19.8958 20.2558 19.9117 19.6789C19.9492 18.3181 21.0827 17.2453 22.4436 17.2828L24.5369 17.3404L25.3691 16.2015C25.9176 15.4509 25.9176 14.4317 25.3691 13.6812L21.8574 8.87564C21.4553 8.32532 20.8146 8 20.133 8H8.13579C6.95623 8 6 8.95623 6 10.1358ZM23.0863 14.9413C23.0863 15.826 22.3692 16.5432 21.4845 16.5432C20.5998 16.5432 19.8826 15.826 19.8826 14.9413C19.8826 14.0567 20.5998 13.3395 21.4845 13.3395C22.3692 13.3395 23.0863 14.0567 23.0863 14.9413Z" fill="white"/>
<path d="M25.1054 20.7514C20.9723 25.8319 15.9528 24.2634 14 20.7514M25.0097 23.3435L26 20.0976L22.4613 20" stroke="white" stroke-width="2" stroke-linecap="round" stroke-linejoin="round"/>
</svg>
