<svg width="32" height="32" viewBox="0 0 32 32" fill="none" xmlns="http://www.w3.org/2000/svg">
<path d="M27.929 5.25853L25.6918 10.4489C25.2543 10.0909 24.7671 9.78268 24.2301 9.52416C23.7131 9.24575 23.1761 9.10655 22.6193 9.10655C22.1818 9.10655 21.7642 9.19603 21.3665 9.37501C20.9886 9.55399 20.6406 9.79262 20.3225 10.0909C20.0043 10.3892 19.7259 10.7273 19.4872 11.1051C19.2486 11.4631 19.0497 11.821 18.8906 12.179L18.294 13.8793C18.7117 14.7543 19.1193 15.5895 19.5171 16.385C19.8551 17.0611 20.2031 17.7472 20.5611 18.4432C20.919 19.1193 21.2173 19.6563 21.456 20.054C21.8338 20.6307 22.2117 21.2273 22.5895 21.8438C22.9673 22.4404 23.385 22.9872 23.8423 23.4844C24.0412 23.7031 24.2798 23.8523 24.5583 23.9318C24.8565 23.9915 25.125 24.0213 25.3636 24.0213C25.7415 24.0213 26.0994 23.9716 26.4375 23.8722C26.7756 23.7727 27.0938 23.6435 27.3921 23.4844L28.1378 24.4389C27.8594 24.8764 27.5213 25.3139 27.1236 25.7514C26.7259 26.1889 26.2884 26.5867 25.8111 26.9446C25.3537 27.3026 24.8565 27.5909 24.3196 27.8097C23.8026 28.0483 23.2756 28.1676 22.7386 28.1676C22.2614 28.1676 21.8338 28.0881 21.456 27.929C21.098 27.7898 20.7699 27.6009 20.4716 27.3622C20.1733 27.1037 19.8949 26.8054 19.6364 26.4673C19.3779 26.1293 19.1094 25.7813 18.831 25.4233C18.6122 25.0852 18.3736 24.6776 18.1151 24.2003C17.8764 23.7031 17.6279 23.196 17.3693 22.679C17.1108 22.1619 16.8523 21.6648 16.5938 21.1875C16.3352 20.6904 16.0867 20.2727 15.848 19.9347C15.7486 20.2727 15.6591 20.6108 15.5796 20.9489C15.5 21.2273 15.4105 21.5156 15.3111 21.8139C15.2117 22.1122 15.1222 22.3409 15.0426 22.5C14.7443 23.1364 14.3665 23.7926 13.9091 24.4688C13.4517 25.1449 12.9247 25.7614 12.3281 26.3182C11.7514 26.8551 11.1151 27.3026 10.419 27.6605C9.72302 27.9986 8.98723 28.1676 8.21166 28.1676C7.51564 28.1676 6.8395 28.0284 6.18325 27.75C5.527 27.4915 4.92047 27.1435 4.36365 26.706L6.24291 21.7543C6.87927 22.152 7.5753 22.51 8.33098 22.8281C9.08666 23.1264 9.84234 23.2756 10.598 23.2756C10.8367 23.2756 11.0852 23.2557 11.3438 23.2159C11.6023 23.1563 11.8509 23.0767 12.0895 22.9773C12.348 22.858 12.5767 22.7188 12.7756 22.5597C12.9744 22.3807 13.1236 22.1719 13.223 21.9333C13.3622 21.6747 13.5114 21.3367 13.6705 20.919C13.8296 20.5014 13.9886 20.0838 14.1477 19.6662C14.3267 19.1889 14.5057 18.6818 14.6847 18.1449L9.07672 9.1662C8.81819 8.86791 8.50001 8.62927 8.12217 8.4503C7.76422 8.25143 7.38637 8.152 6.98865 8.152C6.65058 8.152 6.3324 8.2216 6.0341 8.36081C5.73581 8.48012 5.44745 8.64916 5.16905 8.86791L4.36365 7.82387C4.64206 7.40626 4.97018 6.99859 5.34802 6.60086C5.74575 6.18325 6.17331 5.81535 6.63069 5.49717C7.08808 5.1591 7.5753 4.89064 8.09234 4.69177C8.60939 4.47302 9.13637 4.36365 9.67331 4.36365C10.3296 4.36365 10.9361 4.53268 11.4929 4.87075C12.0497 5.18893 12.5668 5.58666 13.044 6.06393C13.5213 6.5412 13.9588 7.05825 14.3565 7.61507C14.7543 8.17189 15.1122 8.68893 15.4304 9.1662C15.5895 9.38495 15.7585 9.66336 15.9375 10.0014C16.1364 10.3196 16.3253 10.6378 16.5043 10.956C16.723 11.3139 16.9318 11.7017 17.1307 12.1193C17.3296 11.6421 17.5384 11.1648 17.7571 10.6875C17.9361 10.2898 18.1151 9.88211 18.294 9.4645C18.4929 9.027 18.6719 8.64916 18.831 8.33098C19.1293 7.77416 19.4673 7.25711 19.8452 6.77984C20.223 6.30257 20.6406 5.88495 21.098 5.527C21.5753 5.16905 22.0923 4.89064 22.6492 4.69177C23.206 4.47302 23.8125 4.36365 24.4688 4.36365C25.0852 4.36365 25.6818 4.44319 26.2585 4.60228C26.8352 4.76137 27.3921 4.98012 27.929 5.25853Z" fill="white"/>
</svg>
