<?xml version="1.0" encoding="UTF-8" standalone="no"?>
<!-- Created with Inkscape (http://www.inkscape.org/) -->

<svg
   width="63.999996"
   height="63.999996"
   viewBox="0 0 16.933332 16.933332"
   version="1.1"
   id="svg5"
   inkscape:export-filename="return-icon.svg"
   inkscape:export-xdpi="96"
   inkscape:export-ydpi="96"
   xmlns:inkscape="http://www.inkscape.org/namespaces/inkscape"
   xmlns:sodipodi="http://sodipodi.sourceforge.net/DTD/sodipodi-0.dtd"
   xmlns="http://www.w3.org/2000/svg"
   xmlns:svg="http://www.w3.org/2000/svg">
  <sodipodi:namedview
     id="namedview7"
     pagecolor="#464646"
     bordercolor="#000000"
     borderopacity="0.25"
     inkscape:showpageshadow="2"
     inkscape:pageopacity="0"
     inkscape:pagecheckerboard="0"
     inkscape:deskcolor="#d1d1d1"
     inkscape:document-units="mm"
     showgrid="false"
     showguides="true"
     inkscape:zoom="6.359375"
     inkscape:cx="-15.410319"
     inkscape:cy="41.985258"
     inkscape:window-width="1920"
     inkscape:window-height="1017"
     inkscape:window-x="1912"
     inkscape:window-y="-8"
     inkscape:window-maximized="1"
     inkscape:current-layer="g22577" />
  <defs
     id="defs2" />
  <g
     inkscape:label="Capa 1"
     inkscape:groupmode="layer"
     id="layer1">
    <g
       id="g2568"
       transform="matrix(0.82460302,0,0,0.82460302,1.0713261,2.0200854)"
       style="stroke-width:1.28345;stroke-dasharray:none">
      <g
         id="g11286"
         transform="translate(0.10757865,0.26894662)">
        <g
           id="g11410"
           transform="translate(35.7699)">
          <path
             style="fill:none;stroke:#000000;stroke-width:1.28345;stroke-linecap:round;stroke-linejoin:round;stroke-dasharray:none"
             d="M 2.8777866,11.458977 1.7874178,14.970832 6.1505054,13.695186"
             id="path11402"
             sodipodi:nodetypes="ccc" />
          <path
             style="fill:none;stroke:#000000;stroke-width:1.28345;stroke-linecap:round;stroke-linejoin:round;stroke-dasharray:none"
             d="m 1.2745529,6.8789171 1.108871,2.3951608 1.108871,-2.4395156 z"
             id="path11404"
             sodipodi:nodetypes="cccc" />
          <path
             id="path11406"
             style="fill:none;stroke:#000000;stroke-width:1.28345;stroke-linecap:round;stroke-linejoin:round;stroke-dasharray:none"
             d="m 2.2551209,7.2977889 c 0,-3.968433 3.2170504,-7.18548348 7.1854834,-7.18548358 3.9684327,1e-7 7.1854837,3.21705058 7.1854837,7.18548358 -1e-6,3.9684331 -3.217051,7.1854831 -7.1854837,7.1854831 -1.1786351,0 -2.2909903,-0.283778 -3.2724681,-0.786736"
             sodipodi:nodetypes="csssc"
             inkscape:transform-center-x="-1.2545443"
             inkscape:transform-center-y="-1.034999" />
          <path
             style="fill:none;stroke:#000000;stroke-width:1.28345;stroke-linecap:round;stroke-linejoin:round;stroke-dasharray:none"
             d="M 6.472339,5.1493313 9.0127912,8.2543289 14.093695,9.3206918"
             id="path11408"
             inkscape:transform-center-x="-1.2545443"
             inkscape:transform-center-y="-1.034999" />
        </g>
        <g
           id="g19054"
           transform="matrix(0.90364306,0,0,0.90364306,-72.477337,16.819867)"
           style="stroke:#000000">
          <path
             style="fill:none;stroke:#000000;stroke-width:2.07079;stroke-linecap:round;stroke-linejoin:round;stroke-dasharray:none"
             d="m 58.321651,12.698536 -0.558962,3.485814 4.876563,-1.469574"
             id="path289"
             sodipodi:nodetypes="ccc" />
          <path
             style="fill:none;stroke:#000000;stroke-width:2.07079;stroke-linecap:round;stroke-linejoin:round;stroke-dasharray:none"
             d="m 55.996236,7.7807585 1.228349,1.9317129 1.167703,-1.9718383 z"
             id="path953"
             sodipodi:nodetypes="cccc" />
          <path
             style="fill:none;stroke:#000000;stroke-width:2.07079;stroke-linecap:round;stroke-linejoin:round;stroke-dasharray:none"
             d="m 63.824761,5.993924 0.29361,2.1554114 3.593444,1.1319403"
             id="path2562"
             inkscape:transform-center-x="-1.1566618"
             inkscape:transform-center-y="-0.95424579"
             sodipodi:nodetypes="ccc" />
          <path
             id="path11412"
             style="fill:none;stroke:#000000;stroke-width:2.07079;stroke-linecap:round;stroke-linejoin:round"
             d="m 57.198151,7.6362197 c 0,-4.012519 3.25279,-7.26530838 7.265309,-7.26530838 4.012519,0 7.265308,3.25278938 7.265308,7.26530838 0,4.0125193 -3.252789,7.2653093 -7.265308,7.2653093 -0.578673,0 -1.141544,-0.06765 -1.681136,-0.195481"
             sodipodi:nodetypes="csssc" />
        </g>
        <g
           id="g18316"
           transform="matrix(1.1658085,0,0,1.1658085,-2.5210883,-2.1239915)"
           style="fill:#000000;stroke:#000000">
          <path
             id="path12307"
             style="fill:#ffffff;stroke:#ffffff;stroke-width:0.962584;stroke-linecap:round;stroke-linejoin:round;stroke-dasharray:none"
             d="M 10.031312,2.6802332 5.2444126,5.3787436 9.1771421,8.4917066 9.4598944,6.5688835 C 14.624065,7.1434 13.406023,13.790987 4.5579588,13.899478 17.332931,13.799654 17.986687,5.0197568 9.7415716,4.652511 Z" />
        </g>
        <g
           id="g18847"
           transform="translate(31.525294,-26.021366)">
          <path
             id="path18437"
             style="fill:#000000;stroke:#000000;stroke-width:0.590903;stroke-linecap:round;stroke-linejoin:round"
             d="M 7.3839349,-0.52330325 6.5545162,2.0628662 A 6.7010226,6.7010226 0 0 0 6.1171241,2.2424351 L 3.7033406,1.0013308 3.4492978,1.2553734 1.8169226,2.8873708 1.5628797,3.1414135 2.8039841,5.555575 A 6.7010226,6.7010226 0 0 0 2.6247936,5.9922109 l -2.58654753,0.830175 v 0.3591377 0.056705 H 5.9470063 A 3.2169489,3.2169489 0 0 1 8.8972276,5.3030441 3.2169489,3.2169489 0 0 1 11.84745,7.2382294 h 5.90876 V 7.1815236 6.8223859 L 15.175711,5.994101 A 6.7010226,6.7010226 0 0 0 14.992362,5.5517945 L 16.231576,3.1414135 15.977534,2.8873708 14.345535,1.2553734 14.091493,1.0013308 11.681112,2.2405449 A 6.7010226,6.7010226 0 0 0 11.238805,2.0571957 l -0.828283,-2.58049895 h -0.359139 -2.30831 z" />
          <path
             id="rect18752"
             style="fill:#000000;stroke:#000000;stroke-width:0.83604;stroke-linecap:round;stroke-linejoin:round;stroke-dasharray:none"
             d="M 0.15616538,9.3856597 V 10.387098 H 6.7100115 A 2.2453613,2.2453613 0 0 1 6.65173,9.886379 2.2453613,2.2453613 0 0 1 6.7100115,9.3856597 Z m 10.92997062,0 a 2.2453613,2.2453613 0 0 1 0.0564,0.5007193 2.2453613,2.2453613 0 0 1 -0.05766,0.500719 h 6.56074 V 9.3856597 Z" />
          <circle
             style="fill:#000000;stroke:#000000;stroke-width:0.288199;stroke-linecap:round;stroke-linejoin:round;stroke-dasharray:none"
             id="circle18515"
             cx="8.8973246"
             cy="9.8863935"
             r="1.2561564" />
          <path
             id="rect18754"
             style="fill:#000000;stroke:#000000;stroke-width:0.83604;stroke-linecap:round;stroke-linejoin:round;stroke-dasharray:none"
             d="m 0.15616538,13.3394 v 1.001439 H 11.25534 a 2.2453613,2.2453613 0 0 1 -0.05828,-0.50072 2.2453613,2.2453613 0 0 1 0.05828,-0.500719 z m 15.47529862,0 a 2.2453613,2.2453613 0 0 1 0.0564,0.500719 2.2453613,2.2453613 0 0 1 -0.05828,0.50072 h 2.016038 V 13.3394 Z" />
          <circle
             style="fill:#000000;stroke:#000000;stroke-width:0.288199;stroke-linecap:round;stroke-linejoin:round;stroke-dasharray:none"
             id="circle18762"
             cx="13.442522"
             cy="13.839909"
             r="1.2561564" />
        </g>
        <path
           id="rect18851"
           style="fill:#000000;stroke:#000000;stroke-width:0.592708;stroke-linecap:round;stroke-linejoin:round"
           inkscape:transform-center-y="-5.3964823"
           d="m 40.543796,24.054201 -0.941093,2.577502 a 6.5043077,6.5043077 0 0 0 -0.885905,0.369636 l -2.490868,-1.15864 -0.235194,0.235193 -1.079387,1.079387 -0.235193,0.235513 1.158639,2.490548 a 6.5043077,6.5043077 0 0 0 -0.369314,0.885585 l -2.577823,0.941414 v 0.332737 1.52635 0.332737 l 2.578144,0.941093 a 6.5043077,6.5043077 0 0 0 0.368993,0.885587 l -1.158639,2.491188 0.235193,0.235195 1.079387,1.079064 0.235514,0.235516 2.490868,-1.158642 a 6.5043077,6.5043077 0 0 0 0.885585,0.369315 l 0.941093,2.577501 h 0.332738 1.526349 0.332738 l 0.941093,-2.57782 a 6.5043077,6.5043077 0 0 0 0.885585,-0.368996 l 2.491187,1.15832 0.235192,-0.235194 1.079068,-1.079064 0.235514,-0.235516 -1.158639,-2.491188 a 6.5043077,6.5043077 0 0 0 0.368993,-0.885266 l 2.578142,-0.941414 V 33.569426 32.043076 31.71002 L 47.81618,30.769888 a 6.5043077,6.5043077 0 0 0 -0.369314,-0.891682 l 1.156074,-2.485735 -0.235194,-0.235192 -1.079068,-1.079387 -0.235512,-0.235193 -2.485414,1.156072 a 6.5043077,6.5043077 0 0 0 -0.892,-0.369314 l -0.940453,-2.575256 h -0.332416 -1.526349 z m 1.095752,4.643546 a 4.1082966,4.1082966 0 0 1 4.108343,4.108344 4.1082966,4.1082966 0 0 1 -4.108343,4.108344 4.1082966,4.1082966 0 0 1 -4.108023,-4.108344 4.1082966,4.1082966 0 0 1 4.108023,-4.108344 z" />
        <g
           id="g19162"
           transform="matrix(0.6183299,0,0,0.6183299,6.4071326,-39.417291)"
           style="fill:#000000;stroke:#000000">
          <path
             id="path19056"
             style="fill:#000000;stroke:#000000;stroke-width:0.962584;stroke-linecap:round;stroke-linejoin:round;stroke-dasharray:none"
             d="m 5.3927642,-5.3671579 a 10.973022,10.973022 0 0 0 -7.176141,10.2863675 10.973022,10.973022 0 0 0 10.973211,10.9732114 10.973022,10.973022 0 0 0 4.3773778,-0.91245 l -1.298487,-2.24979 A 8.3965635,8.3965635 0 0 1 9.1898342,13.316129 8.3965635,8.3965635 0 0 1 0.79354123,4.9192096 8.3965635,8.3965635 0 0 1 5.3927642,-2.5602467 Z m 10.3170748,1.470824 -1.299113,2.2491637 a 8.3965635,8.3965635 0 0 1 1.346114,1.34486073 l 2.249164,-1.29848623 a 10.973022,10.973022 0 0 0 -2.296165,-2.2955382 z m 3.540757,4.43753913 -2.251044,1.29911297 a 8.3965635,8.3965635 0 0 1 0.486306,1.8405666 h 2.598225 A 10.973022,10.973022 0 0 0 19.250596,0.54120523 Z M 17.493378,6.1581609 a 8.3965635,8.3965635 0 0 1 -0.493199,1.8405667 l 2.250417,1.2991129 A 10.973022,10.973022 0 0 0 20.09223,6.1581609 Z m -1.731524,3.9863281 a 8.3965635,8.3965635 0 0 1 -1.347368,1.347994 l 1.299113,2.249164 a 10.973022,10.973022 0 0 0 2.298045,-2.298672 z" />
          <path
             id="rect19147"
             style="fill:#000000;stroke:#000000;stroke-width:0.784896;stroke-linecap:round;stroke-linejoin:round"
             d="M 7.2414782,-5.7224759 V 2.7684462 H 11.11939 v -8.4909221 z m -1.648802,8.5686307 3.590264,4.2464009 3.8221368,-4.2464009 z" />
        </g>
        <g
           id="g19581"
           style="fill:#000000;stroke:#000000" />
        <g
           id="g19332"
           transform="translate(-2.3581577,-45.69658)">
          <path
             id="path19324"
             style="stroke:#000000;stroke-width:0.962584;stroke-linecap:round;stroke-linejoin:round"
             d="M -18.99589,3.1443224 H -7.1622385 L -3.396986,6.7482072 V 19.711434 H -18.99589 Z"
             sodipodi:nodetypes="cccccc" />
          <circle
             style="fill:#ffffff;stroke:none;stroke-width:1.26339;stroke-linecap:round;stroke-linejoin:round;stroke-dasharray:none"
             id="circle19326"
             cx="-11.196438"
             cy="14.762817"
             r="2.2591515" />
          <rect
             style="fill:#ffffff;stroke:none;stroke-width:1.01394;stroke-linecap:round;stroke-linejoin:round;stroke-dasharray:none"
             id="rect19328"
             width="9.0219908"
             height="5.5293794"
             x="-17.378725"
             y="2.6630304" />
          <rect
             style="fill:#000000;stroke:none;stroke-width:1.19263;stroke-linecap:round;stroke-linejoin:round;stroke-dasharray:none"
             id="rect19330"
             width="3.0159905"
             height="4.8799753"
             x="-12.271337"
             y="2.9877324" />
        </g>
        <path
           id="path19705"
           style="fill:#000000;stroke:#000000;stroke-width:0.703602;stroke-linecap:round;stroke-linejoin:round"
           d="m 8.4846959,-24.542509 v 12.109648 H 19.886619 v -9.475722 l -2.75211,-2.633926 z m 1.1818312,0.81583 H 16.26142 v 3.235378 H 9.6665271 Z m 4.5193589,5.218839 a 2.4575739,2.4575739 0 0 1 2.457568,2.457567 2.4575739,2.4575739 0 0 1 -2.457568,2.457568 2.4575739,2.4575739 0 0 1 -2.457567,-2.457568 2.4575739,2.4575739 0 0 1 2.457567,-2.457567 z" />
        <g
           id="g21620"
           transform="matrix(0.3801626,0,0,0.3801626,53.021606,-41.991123)"
           style="fill:#000000">
          <path
             id="rect21589"
             style="fill:#000000;fill-opacity:1;stroke:none;stroke-width:2.02578;stroke-linecap:round;stroke-linejoin:round;stroke-dasharray:none;stroke-opacity:1"
             d="m -56.392534,-6.3766598 c -2.257671,0 -4.07469,1.8176463 -4.07469,4.0753166 V 21.606596 c 0,2.257671 1.817019,4.075317 4.07469,4.075317 h 23.908565 c 2.257671,0 4.07469,-1.817646 4.07469,-4.075317 V 8.3616604 3.2696924 l -3.334577,4.5340483 V 8.5233445 19.11992 c 0,1.787953 -1.439461,3.227415 -3.227416,3.227415 h -18.933959 c -1.787955,0 -3.227416,-1.439462 -3.227416,-3.227415 V 0.18595984 c 0,-1.78795364 1.439461,-3.22741514 3.227416,-3.22741514 h 18.933959 c 1.586217,0 2.897035,1.1335812 3.172894,2.63770686 l 3.137173,-3.31577736 c -0.573552,-1.5542405 -2.064439,-2.657134 -3.822764,-2.657134 z"
             sodipodi:nodetypes="ssssssccccsssssssccss" />
          <g
             id="path21478"
             transform="translate(0.80683986)"
             style="fill:#000000">
            <path
               id="path21594"
               style="color:#000000;fill:#000000;stroke-width:1.10982;stroke-linecap:round;stroke-linejoin:round;-inkscape-stroke:none"
               d="m -23.244161,-8.35635 a 0.5549655,0.5549655 0 0 0 -0.323995,0.1685776 L -41.636667,10.908498 -52.095999,7.5895875 a 0.5549655,0.5549655 0 0 0 -0.507613,0.9688512 l 11.089775,8.5586033 a 0.5549655,0.5549655 0 0 0 0.785233,-0.110923 l 18.009603,-24.4844867 a 0.5549655,0.5549655 0 0 0 -0.339662,-0.8729688 0.5549655,0.5549655 0 0 0 -0.185498,-0.00501 z" />
          </g>
        </g>
        <g
           id="g21754"
           transform="matrix(0.23576423,0,0,0.23576423,22.48277,9.5952281)">
          <g
             id="g22577"
             style="fill:#000000">
            <g
               id="g24480"
               transform="translate(-134.60779,-93.997301)">
              <path
                 id="path22732"
                 style="color:#000000;fill:#000000;fill-opacity:0.45;stroke-width:1.28593;stroke-linecap:round;stroke-linejoin:round;stroke-dasharray:none"
                 d="m -71.974852,-11.59036 c -0.483439,0.03047 -0.990446,0.05427 -1.422078,0.09835 -4.072307,0.415892 -7.64202,1.269927 -10.422371,3.8196754 -2.780352,2.5497501 -3.858991,6.1377302 -4.31408,9.9545471 -0.255536,2.1431512 -0.348662,4.5365819 -0.388081,7.2300049 -1.4e-5,9.111e-4 1.3e-5,0.00175 0,0.00266 a 8.4415045,8.4415045 0 0 0 -3.710694,6.9509056 8.4415045,8.4415045 0 0 0 8.442094,8.442094 8.4415045,8.4415045 0 0 0 8.439436,-8.442094 8.4415045,8.4415045 0 0 0 -3.633609,-6.9349571 c 0.04202,-2.4939081 0.12555,-4.566242 0.310996,-6.1215813 0.335629,-2.81487882 0.851715,-3.6528496 1.29449,-4.05890348 0.44278,-0.40605392 1.724439,-1.03690872 4.949364,-1.36625832 1.306091,-0.1333859 2.944876,-0.2069313 4.779246,-0.2578347 -2.274077,-1.8226451 -7.703145,-6.1839349 -7.703145,-6.405997 0,-0.1168195 1.570967,-1.4331011 3.378432,-2.9106081 z m -11.81521,19.6167041 a 8.4415045,8.4415045 0 0 0 -1.305122,0.1142979 8.4415045,8.4415045 0 0 1 1.305122,-0.1142979 z m -2.190266,0.3216289 a 8.4415045,8.4415045 0 0 0 -0.358842,0.095691 8.4415045,8.4415045 0 0 1 0.358842,-0.095691 z m -1.35031,0.4917466 a 8.4415045,8.4415045 0 0 0 -0.164801,0.074427 8.4415045,8.4415045 0 0 1 0.164801,-0.074427 z" />
              <circle
                 style="fill:#000000;fill-opacity:1;stroke:none;stroke-width:1.31524;stroke-linecap:round;stroke-linejoin:round;stroke-dasharray:none;stroke-opacity:1"
                 id="path22484"
                 cx="-57.670414"
                 cy="-33.437908"
                 r="8.4415045" />
              <path
                 id="path21748"
                 style="color:#000000;fill:#000000;stroke-linecap:round;stroke-linejoin:round;-inkscape-stroke:none"
                 d="m -57.93482,-33.437202 a 4.7632976,4.7632976 0 0 0 -4.712794,4.811143 l 0.09037,9.186359 c 2.239956,-1.935188 4.604724,-3.944606 4.779246,-3.944606 0.174522,0 2.53929,2.009418 4.779246,3.944606 l 0.09038,-9.186359 a 4.7632976,4.7632976 0 0 0 -4.715452,-4.811143 4.7632976,4.7632976 0 0 0 -0.154169,0.02392 4.7632976,4.7632976 0 0 0 -0.156827,-0.02392 z m 14.351028,21.844184 c 1.808699,1.478479 3.38109,2.796384 3.38109,2.9132662 0,0.2219874 -5.424909,4.5821407 -7.700486,6.405997 1.797768,0.050169 3.408936,0.1219386 4.696845,0.2525186 3.217204,0.32619 4.51554,0.9531571 4.973286,1.36891633 0.457749,0.41575927 0.975761,1.25405428 1.323729,4.06421967 0.347967,2.8101653 0.382765,7.1584092 0.382765,13.0538802 a 4.7632976,4.7632976 0 0 0 4.760639,4.765955 4.7632976,4.7632976 0 0 0 4.763297,-4.765955 c 0,-5.900707 0.02453,-10.3975383 -0.449217,-14.2234398 -0.473738,-3.8259015 -1.587699,-7.4123327 -4.377874,-9.9465729 -2.790176,-2.5342393 -6.355607,-3.3839673 -10.417055,-3.7957523 -0.406605,-0.04123 -0.884609,-0.06397 -1.337019,-0.09303 z" />
              <circle
                 style="fill:#000000;fill-opacity:1;stroke:none;stroke-width:1.31524;stroke-linecap:round;stroke-linejoin:round;stroke-dasharray:none;stroke-opacity:1"
                 id="circle22488"
                 cx="-31.835474"
                 cy="16.466833"
                 r="8.4415045" />
              <path
                 sodipodi:type="star"
                 style="fill:#000000;fill-opacity:1;stroke:none;stroke-width:9.5266;stroke-linecap:round;stroke-linejoin:round;stroke-dasharray:none;stroke-opacity:1"
                 id="path22546"
                 inkscape:flatsided="false"
                 sodipodi:sides="4"
                 sodipodi:cx="6.6831412"
                 sodipodi:cy="16.177292"
                 sodipodi:r1="6.2749648"
                 sodipodi:r2="8.9210739"
                 sodipodi:arg1="0.78539816"
                 sodipodi:arg2="1.5707963"
                 inkscape:rounded="0.02640344"
                 inkscape:randomized="0"
                 d="m 11.120211,20.614362 c -0.117775,0.117775 -4.2705103,4.484004 -4.4370695,4.484004 -0.1665592,0 -4.3192953,-4.366229 -4.4370704,-4.484004 -0.1177752,-0.117775 -4.4840038,-4.270511 -4.4840038,-4.43707 0,-0.166559 4.3662286,-4.319295 4.4840037,-4.43707 0.1177752,-0.117775 4.2705108,-4.484004 4.43707,-4.484004 0.1665592,0 4.319295,4.366229 4.43707,4.484004 0.117776,0.117775 4.484004,4.27051 4.484004,4.43707 0,0.166559 -4.366228,4.319295 -4.484004,4.43707 z"
                 transform="matrix(1.3737845,0,0,1.149336,-66.95919,-27.272896)" />
            </g>
            <g
               id="g26252"
               transform="matrix(0.79827208,0,0,0.79827208,59.321531,-6.2594005)">
              <rect
                 style="fill:#000000;fill-opacity:1;stroke:#000000;stroke-width:3.57045;stroke-linecap:round;stroke-linejoin:round;stroke-dasharray:none;stroke-dashoffset:0;stroke-opacity:1"
                 id="rect26013"
                 width="58.831448"
                 height="24.065563"
                 x="137.22151"
                 y="-273.57184"
                 ry="12.032781" />
              <path
                 sodipodi:type="star"
                 style="fill:#000000;fill-opacity:1;stroke:#000000;stroke-width:8.16565;stroke-linecap:round;stroke-linejoin:round;stroke-dasharray:none;stroke-dashoffset:0;stroke-opacity:1"
                 id="path26015"
                 inkscape:flatsided="false"
                 sodipodi:sides="3"
                 sodipodi:cx="-138.47092"
                 sodipodi:cy="-7.3761749"
                 sodipodi:r1="20.010386"
                 sodipodi:r2="10.457433"
                 sodipodi:arg1="0.52359878"
                 sodipodi:arg2="1.5707963"
                 inkscape:rounded="0.02640344"
                 inkscape:randomized="0"
                 d="m -121.14141,2.6290179 c -0.22886,0.3963922 -16.87179,0.4522399 -17.32951,0.4522399 -0.45771,0 -17.10064,-0.055848 -17.3295,-0.45224 -0.22886,-0.3963922 8.04424,-14.8375168 8.2731,-15.2339088 0.22886,-0.396392 8.59869,-14.781669 9.0564,-14.781669 0.45772,0 8.82755,14.385276 9.05641,14.781668 0.22885,0.396393 8.50195,14.8375177 8.2731,15.2339099 z"
                 transform="matrix(0,-0.49571292,-0.42152745,0,118.46728,-330.18087)"
                 inkscape:transform-center-x="-0.73902511" />
              <g
                 id="rect26254">
                <path
                   id="path28608"
                   style="color:#000000;fill:#000000;fill-opacity:0.45;stroke:#000000;stroke-width:3.3313;stroke-linecap:round;stroke-linejoin:round;-inkscape-stroke:none"
                   d="m 149.25373,-239.29777 c -7.56011,0 -13.69881,6.13871 -13.69881,13.69882 0,7.5601 6.1387,13.69881 13.69881,13.69881 h 34.76649 c 7.56011,0 13.69882,-6.13871 13.69882,-13.69881 0,-7.56011 -6.13871,-13.69882 -13.69882,-13.69882 z" />
              </g>
            </g>
            <g
               id="g38723"
               transform="matrix(1.2004905,0,0,1.2004905,-131.45012,-5.9033727)"
               style="fill:#000000">
              <path
                 id="rect32348"
                 style="fill:#000000;fill-opacity:0.75;stroke:none;stroke-width:1.69703;stroke-linecap:round;stroke-linejoin:round;stroke-dasharray:none;stroke-dashoffset:0;stroke-opacity:1;paint-order:normal"
                 d="M -74.036184,-5.4987402 V 7.6914445 c 0,9.0790395 7.310309,16.3876505 16.389347,16.3876505 9.079038,0 16.387651,-7.308611 16.387651,-16.3876505 V -5.4987402 Z" />
              <path
                 id="path35376"
                 style="fill:#000000;fill-opacity:0.75;stroke:none;stroke-width:1.69703;stroke-linecap:round;stroke-linejoin:round;stroke-dasharray:none;stroke-dashoffset:0;stroke-opacity:1;paint-order:normal"
                 d="m -56.294911,-25.026183 v 6.476353 c 0.897286,0.480984 1.504591,1.425799 1.504591,2.518959 v 2.858213 c 0,1.093174 -0.607286,2.037981 -1.504591,2.518959 v 2.4477148 h 15.035725 v -0.491918 c 0,-8.6228998 -6.595011,-15.6440248 -15.035725,-16.3282808 z" />
              <path
                 id="path35374"
                 style="fill:#000000;fill-opacity:1;stroke:none;stroke-width:1.69703;stroke-linecap:round;stroke-linejoin:round;stroke-dasharray:none;stroke-dashoffset:0;stroke-opacity:1;paint-order:normal"
                 d="m -58.998763,-25.026183 c -8.441517,0.683458 -15.037421,7.704808 -15.037421,16.3282808 v 0.491918 h 15.037421 v -2.4460188 c -0.898402,-0.480644 -1.506287,-1.426671 -1.506287,-2.520655 v -2.858213 c 0,-1.09397 0.607904,-2.040005 1.506287,-2.520655 z" />
              <rect
                 style="fill:#000000;fill-opacity:1;stroke:none;stroke-width:0.910726;stroke-linecap:round;stroke-linejoin:round;stroke-dasharray:none;stroke-dashoffset:0;stroke-opacity:1;paint-order:normal"
                 id="rect38528"
                 width="5.0777411"
                 height="13.134425"
                 x="-43.094013"
                 y="-74.754066"
                 ry="4.3330054"
                 transform="rotate(-36.555288)" />
              <rect
                 style="fill:#000000;fill-opacity:1;stroke:none;stroke-width:0.910726;stroke-linecap:round;stroke-linejoin:round;stroke-dasharray:none;stroke-dashoffset:0;stroke-opacity:1;paint-order:normal"
                 id="rect38530"
                 width="5.0777411"
                 height="13.134425"
                 x="-63.386398"
                 y="-47.359566"
                 ry="4.3330054"
                 transform="rotate(-6.555288)" />
              <rect
                 style="fill:#000000;fill-opacity:1;stroke:none;stroke-width:0.910726;stroke-linecap:round;stroke-linejoin:round;stroke-dasharray:none;stroke-dashoffset:0;stroke-opacity:1;paint-order:normal"
                 id="rect38532"
                 width="5.0777411"
                 height="13.134425"
                 x="-11.588428"
                 y="-88.045616"
                 ry="4.3330054"
                 transform="rotate(-66.555288)" />
            </g>
          </g>
        </g>
      </g>
    </g>
  </g>
</svg>
