<svg width="768" height="195" viewBox="0 0 768 195" fill="none" xmlns="http://www.w3.org/2000/svg">
<g filter="url(#filter0_d_3652_631)">
<path d="M655.196 55.8306C654.669 55.3031 653.995 55.0393 653.174 55.0393H618.269C617.449 55.0393 616.804 55.3031 616.335 55.8306C615.749 56.3582 615.456 57.0029 615.456 57.7649V157.381C615.456 158.201 615.749 158.875 616.335 159.403C616.804 159.931 617.449 160.194 618.269 160.194H653.174C653.995 160.194 654.669 159.931 655.196 159.403C655.724 158.875 655.988 158.201 655.988 157.381V57.7649C655.988 57.0029 655.724 56.3582 655.196 55.8306ZM600.861 55.8306C600.274 55.3031 599.6 55.0393 598.838 55.0393H563.845C563.083 55.0393 562.439 55.3031 561.911 55.8306C561.383 56.3582 561.12 57.0029 561.12 57.7649V63.304C558.365 61.0767 555.434 59.0838 552.327 57.3253C547.228 54.336 540.663 52.8413 532.633 52.8413C526.361 52.8413 520.47 53.9843 514.961 56.2702C509.451 58.5562 504.615 61.8093 500.453 66.0296C496.174 70.2499 492.804 75.408 490.342 81.5039C487.88 87.6585 486.65 94.4871 486.65 101.99V102.429C486.65 109.874 487.88 116.614 490.342 122.652C492.804 128.689 496.174 133.847 500.453 138.126C504.615 142.287 509.597 145.541 515.4 147.885C521.027 150.23 527.094 151.402 533.6 151.402C541.513 151.402 548.078 149.761 553.295 146.478H553.383C556.255 144.72 558.951 142.727 561.471 140.5C560.944 146.068 559.156 150.464 556.108 153.688C556.05 153.688 556.02 153.717 556.02 153.776C552.034 157.293 546.085 159.051 538.172 159.051C531.724 159.051 525.834 158.289 520.5 156.765C515.224 155.183 509.978 153.014 504.762 150.259C504.293 149.966 503.794 149.849 503.267 149.907C502.739 149.907 502.27 150.083 501.86 150.435C501.45 150.669 501.127 151.021 500.893 151.49L489.639 174.614C489.346 175.258 489.317 175.932 489.551 176.636C489.786 177.339 490.254 177.896 490.958 178.306C498.343 182.058 506.227 184.9 514.609 186.835C522.932 188.945 532.076 190 542.041 190C552.884 190 561.97 188.74 569.297 186.219C576.799 183.757 583.012 180.065 587.936 175.141L588.024 175.053C592.655 170.423 596.054 164.678 598.223 157.82V157.908C600.509 151.226 601.652 143.079 601.652 133.466V57.7649C601.652 57.0029 601.388 56.3582 600.861 55.8306ZM561.559 101.99V102.429C561.559 107.06 559.918 110.929 556.636 114.035V114.123C553.353 117.406 549.162 119.047 544.063 119.047C538.846 119.047 534.597 117.435 531.314 114.211C528.032 111.104 526.39 107.236 526.39 102.605V102.166C526.332 97.4179 527.944 93.5493 531.226 90.5599L531.314 90.472C534.597 87.1896 538.846 85.5483 544.063 85.5483C549.162 85.5483 553.383 87.131 556.724 90.2962C559.947 93.3441 561.559 97.242 561.559 101.99ZM122.915 65.59V65.5021C119.281 57.3546 114.27 50.2915 107.881 44.3128H107.793C101.462 38.4513 93.5786 33.8794 84.1416 30.5969V30.6849C74.9391 27.4024 64.3591 25.7612 52.4016 25.7612H2.72557C1.96358 25.7612 1.31886 26.025 0.791322 26.5525C0.263788 27.0801 0 27.7248 0 28.4868V157.381C0 158.201 0.263788 158.875 0.791322 159.403C1.31886 159.931 1.96358 160.194 2.72557 160.194H51.6104C63.5678 160.194 74.2357 158.495 83.614 155.095C93.1682 151.695 101.198 147.006 107.705 141.027C114.27 134.99 119.252 127.839 122.652 119.574C126.11 111.368 127.839 102.371 127.839 92.5821V92.1425C127.839 82.5297 126.198 73.6788 122.915 65.59ZM85.6363 92.758V93.1976C85.6363 102.635 82.6762 109.991 76.7561 115.266C70.7774 120.366 62.8058 122.915 52.8412 122.915H41.1476V63.0403H52.8412C62.8058 63.0403 70.7774 65.59 76.7561 70.6895C82.6762 75.9649 85.6363 83.321 85.6363 92.758ZM178.922 55.0393H143.929C143.167 55.0393 142.522 55.3031 141.994 55.8306C141.408 56.3582 141.115 57.0029 141.115 57.7649V157.381C141.115 158.201 141.408 158.875 141.994 159.403C142.522 159.931 143.167 160.194 143.929 160.194H178.922C179.684 160.194 180.329 159.931 180.856 159.403C181.384 158.875 181.647 158.201 181.647 157.381V57.7649C181.647 57.0029 181.384 56.3582 180.856 55.8306C180.329 55.3031 179.684 55.0393 178.922 55.0393ZM381.319 66.2934C370.358 77.2544 364.877 90.5013 364.877 106.034C364.877 117.23 367.72 127.253 373.406 136.104L370.416 164.063V164.151C369.889 168.606 371.266 171.566 374.549 173.031C374.607 173.031 374.666 173.06 374.725 173.119C377.011 174.819 380.088 174.702 383.956 172.767V172.855L408.487 160.898C412.473 161.777 416.664 162.217 421.06 162.217C436.593 162.217 449.839 156.736 460.8 145.775C471.761 134.814 477.242 121.567 477.242 106.034C477.242 90.5013 471.761 77.2544 460.8 66.2934C449.839 55.3324 436.593 49.8519 421.06 49.8519C405.527 49.8519 392.28 55.3324 381.319 66.2934ZM253.216 89.5048V89.5928C255.385 91.5271 256.674 94.1354 257.085 97.4178C254.916 96.8317 252.483 96.3042 249.787 95.8353C245.391 94.956 240.79 94.5164 235.983 94.5164C229.712 94.5164 224.084 95.2198 219.102 96.6266C213.944 98.0919 209.548 100.231 205.914 103.045H205.826C202.25 105.917 199.408 109.522 197.298 113.859C195.246 118.021 194.22 122.915 194.22 128.542V128.982C194.22 134.433 195.099 139.21 196.858 143.313V143.401C198.851 147.446 201.488 150.904 204.771 153.776C208.053 156.531 211.805 158.67 216.025 160.194C220.421 161.66 225.169 162.392 230.268 162.392C237.419 162.392 243.574 161.132 248.732 158.612H248.644C251.575 157.264 254.359 155.564 256.997 153.512V157.381C256.997 158.201 257.26 158.875 257.788 159.403C258.316 159.931 258.96 160.194 259.722 160.194H294.276C295.038 160.194 295.712 159.931 296.298 159.403C296.825 158.875 297.089 158.201 297.089 157.381V100.143C297.089 92.8752 296.21 86.5155 294.452 81.0643C292.693 75.4959 289.733 70.6309 285.571 66.4692V66.3813C281.351 62.3369 275.871 59.1424 269.13 56.7978C262.8 54.629 254.945 53.5447 245.567 53.5447C236.716 53.5447 229.096 54.336 222.707 55.9186H222.795C216.289 57.3253 210.105 59.201 204.243 61.5456C203.599 61.8387 203.1 62.3076 202.749 62.9523C202.456 63.5971 202.426 64.2712 202.661 64.9746L209.87 89.5048C209.988 89.9738 210.251 90.3841 210.662 90.7358C211.013 91.0875 211.453 91.2926 211.98 91.3512C212.449 91.4685 212.948 91.4391 213.475 91.2633C217.813 89.6807 222.033 88.3619 226.136 87.3068H226.224C230.444 86.4276 235.016 85.988 239.94 85.988C245.801 85.988 250.227 87.1603 253.216 89.5048ZM257.348 121.421C257.348 125.582 256.088 128.865 253.568 131.268C250.813 133.73 247.267 134.961 242.929 134.961C240.057 134.961 237.654 134.199 235.719 132.675H235.632C234.049 131.268 233.258 129.334 233.258 126.872V126.432C233.258 123.677 234.342 121.421 236.511 119.662V119.75C238.855 117.933 242.226 117.024 246.622 117.024C248.849 117.024 251.106 117.2 253.392 117.552C254.857 117.845 256.176 118.197 257.348 118.607V121.421ZM349.843 21.1014C349.256 20.5738 348.582 20.3101 347.82 20.3101H312.827C312.065 20.3101 311.421 20.5738 310.893 21.1014C310.365 21.6289 310.102 22.2737 310.102 23.0357V157.381C310.102 158.201 310.365 158.875 310.893 159.403C311.421 159.931 312.065 160.194 312.827 160.194H347.82C348.582 160.194 349.256 159.931 349.843 159.403C350.37 158.875 350.634 158.201 350.634 157.381V23.0357C350.634 22.2737 350.37 21.6289 349.843 21.1014ZM749.097 59.5234H749.185C741.917 55.1859 732.832 53.0171 721.93 53.0171C713.665 53.0171 706.104 54.4239 699.246 57.2374C692.329 60.1095 686.438 64.0953 681.573 69.1948L681.485 69.2827C676.62 74.265 672.781 80.0093 669.967 86.5155L669.88 86.6034C667.125 93.3441 665.747 100.378 665.747 107.705V108.056C665.747 115.383 667.125 122.358 669.88 128.982V129.07C672.752 135.811 676.591 141.613 681.397 146.478C686.262 151.285 692.036 155.212 698.718 158.26H698.806C705.547 161.132 712.844 162.568 720.699 162.568C732.246 162.568 741.653 160.341 748.922 155.886V155.974C756.249 151.578 762.344 145.746 767.209 138.478C767.62 137.891 767.766 137.217 767.649 136.455C767.532 135.693 767.18 135.107 766.594 134.697L743.207 117.728C742.621 117.259 741.976 117.083 741.272 117.2C740.51 117.259 739.895 117.581 739.426 118.168C736.906 121.215 734.297 123.531 731.601 125.113C731.542 125.113 731.484 125.143 731.425 125.201C729.022 126.784 726.062 127.575 722.545 127.575C720.025 127.575 717.709 127.077 715.599 126.081C713.489 125.084 711.701 123.765 710.236 122.124C708.829 120.307 707.686 118.109 706.807 115.53C705.81 113.068 705.312 110.46 705.312 107.705V107.265C705.312 104.627 705.781 102.136 706.719 99.7918L706.807 99.7039C707.628 97.4179 708.712 95.3664 710.06 93.5493C711.643 91.7909 713.489 90.3841 715.599 89.329C717.592 88.4498 719.79 88.0102 722.193 88.0102C725.769 88.0102 728.787 88.8015 731.249 90.3841H731.337C733.858 92.0253 736.261 94.3992 738.547 97.5058C738.957 98.0919 739.543 98.4436 740.305 98.5608C741.126 98.6781 741.829 98.5022 742.415 98.0333L766.154 80.273C766.741 79.8627 767.092 79.2766 767.209 78.5146C767.327 77.8112 767.209 77.1664 766.858 76.5803C762.286 69.312 756.366 63.6264 749.097 59.5234Z" fill="white"/>
<circle cx="161.337" cy="23.739" r="23.739" fill="white"/>
<circle cx="636.117" cy="23.739" r="23.739" fill="#7DFFF7"/>
</g>
<defs>
<filter id="filter0_d_3652_631" x="0" y="0" width="767.688" height="195" filterUnits="userSpaceOnUse" color-interpolation-filters="sRGB">
<feFlood flood-opacity="0" result="BackgroundImageFix"/>
<feColorMatrix in="SourceAlpha" type="matrix" values="0 0 0 0 0 0 0 0 0 0 0 0 0 0 0 0 0 0 127 0" result="hardAlpha"/>
<feOffset dy="5"/>
<feComposite in2="hardAlpha" operator="out"/>
<feColorMatrix type="matrix" values="0 0 0 0 0 0 0 0 0 0 0 0 0 0 0 0 0 0 0.55 0"/>
<feBlend mode="normal" in2="BackgroundImageFix" result="effect1_dropShadow_3652_631"/>
<feBlend mode="normal" in="SourceGraphic" in2="effect1_dropShadow_3652_631" result="shape"/>
</filter>
</defs>
</svg>
