<svg width="16" height="16" viewBox="0 0 16 16" fill="none" xmlns="http://www.w3.org/2000/svg">
<path fill-rule="evenodd" clip-rule="evenodd" d="M3 2H13C14.1046 2 15 2.89543 15 4V11.8483C15 12.4946 14.6877 13.101 14.1617 13.4763L12.1391 14.9196C11.5051 15.372 10.9076 14.5797 11.1562 13.8416C11.3705 13.2052 10.7792 12.8782 10.1076 12.8782H3.00005C1.89549 12.8782 1.00006 11.9827 1.00005 10.8782L1 4.00002C0.999992 2.89544 1.89542 2 3 2ZM9.73033 6.07391V6.06934C9.53136 5.64508 9.25694 5.27728 8.90709 4.966H8.90233C8.55565 4.66077 8.12401 4.42273 7.60728 4.25177V4.25635C7.10338 4.08545 6.52403 4 5.86937 4H3.14928C3.10753 4 3.07225 4.01373 3.04332 4.0412C3.01439 4.06866 2.99998 4.10223 2.99998 4.14191V10.8535C2.99998 10.8962 3.01439 10.9313 3.04332 10.9588C3.07225 10.9863 3.10753 11 3.14928 11H5.82603C6.4807 11 7.0648 10.9115 7.57835 10.7345C8.10155 10.5574 8.54124 10.3133 8.89757 10.002C9.25694 9.68762 9.52977 9.31525 9.71593 8.88489C9.90526 8.45758 9.99998 7.98907 9.99998 7.47937V7.45648C9.99998 6.95593 9.91014 6.49512 9.73033 6.07391ZM7.68907 7.48859V7.51147C7.68907 8.00287 7.52696 8.38593 7.20287 8.66058C6.87547 8.92615 6.43895 9.0589 5.8933 9.0589H5.25304V5.94116H5.8933C6.43895 5.94116 6.87547 6.07391 7.20287 6.33948C7.52696 6.61414 7.68907 6.99719 7.68907 7.48859ZM12 11C12.5523 11 13 10.5523 13 10C13 9.44772 12.5523 9 12 9C11.4477 9 11 9.44772 11 10C11 10.5523 11.4477 11 12 11Z" fill="#E0E0E0"/>
</svg>
