<svg width="32" height="32" viewBox="0 0 32 32" fill="none" xmlns="http://www.w3.org/2000/svg">
<path d="M13.3517 17.617L13.3792 17.3936C13.3792 16.5931 13.5996 15.9601 14.0403 15.4947C14.4993 15.0293 14.9951 14.7221 15.5275 14.5731C16.06 14.4242 16.5466 14.1729 16.9873 13.8191C17.4463 13.4654 17.6758 12.9907 17.6758 12.3949C17.6758 11.7806 17.5014 11.3059 17.1525 10.9707C16.822 10.6356 16.3171 10.4681 15.6377 10.4681C14.9583 10.4681 14.4534 10.5798 14.1229 10.8032C13.8107 11.008 13.6179 11.2221 13.5445 11.4455L13.4619 11.7806C13.2966 12.2646 13.1038 12.637 12.8835 12.8976C12.6631 13.1396 12.3785 13.2606 12.0297 13.2606C11.6808 13.2606 11.2218 13.1489 10.6525 12.9255C9.55085 12.4973 9 11.9668 9 11.3338C9 11.0545 9.05508 10.7753 9.16525 10.496C9.27542 10.1981 9.36723 9.95612 9.44068 9.76995C9.51412 9.56516 9.70692 9.22074 10.0191 8.7367C10.3496 8.25266 10.7168 7.83378 11.1208 7.48005C11.5431 7.10771 12.1306 6.77261 12.8835 6.47473C13.6363 6.15824 14.4718 6 15.3898 6C17.3362 6 18.9244 6.63298 20.1547 7.89894C21.3849 9.16489 22 10.6356 22 12.3112C22 13.1117 21.8531 13.8564 21.5593 14.5452C21.2839 15.2154 20.9442 15.746 20.5403 16.137C19.7323 16.9189 18.9795 17.4402 18.2818 17.7008L17.8411 17.8404C17.8411 18.1569 17.8227 18.3989 17.786 18.5665C17.7677 18.734 17.685 18.9202 17.5381 19.125C17.4096 19.3112 17.1801 19.4508 16.8496 19.5439C16.5374 19.6184 16.1151 19.6556 15.5826 19.6556C15.0501 19.6556 14.6186 19.609 14.2881 19.516C13.976 19.4229 13.7557 19.2646 13.6271 19.0412C13.4986 18.8178 13.416 18.6223 13.3792 18.4548C13.3609 18.2686 13.3517 17.9894 13.3517 17.617ZM13.2415 22.6157C13.3884 22.3178 13.6455 22.1037 14.0127 21.9734C14.3983 21.8431 14.9951 21.7779 15.803 21.7779C16.6109 21.7779 17.1893 21.9641 17.5381 22.3364C17.9054 22.6902 18.089 23.3883 18.089 24.4309C18.089 25.1755 17.9972 25.734 17.8136 26.1064C17.6299 26.4601 17.3453 26.7021 16.9597 26.8324C16.5925 26.9441 16.0141 27 15.2246 27C14.435 27 13.8291 26.8045 13.4068 26.4136C13.0946 26.0971 12.9386 25.5572 12.9386 24.7939V24.3471C12.9386 23.9189 12.9477 23.5931 12.9661 23.3697C13.0028 23.1463 13.0946 22.8949 13.2415 22.6157Z" fill="white"/>
</svg>
