<svg width="32" height="32" viewBox="0 0 32 32" fill="none" xmlns="http://www.w3.org/2000/svg">
<path fill-rule="evenodd" clip-rule="evenodd" d="M8 9C7.44772 9 7 9.44772 7 10V21C7 21.5523 7.44772 22 8 22H17L14 27L24 22C24 22 25 21.5523 25 21V10C25 9.44772 24.5523 9 24 9H8ZM14.6494 12.736C14.1294 12.84 13.6894 12.972 13.3294 13.132L13.7734 14.404C14.0534 14.268 14.3734 14.156 14.7334 14.068C15.1014 13.972 15.4774 13.924 15.8614 13.924C16.2774 13.924 16.5614 13.996 16.7134 14.14C16.8654 14.284 16.9414 14.508 16.9414 14.812C16.9414 14.932 16.9294 15.076 16.9054 15.244C16.8174 15.228 16.6614 15.204 16.4374 15.172C16.2134 15.132 15.9894 15.112 15.7654 15.112C14.7974 15.112 14.0734 15.296 13.5934 15.664C13.1214 16.024 12.8854 16.56 12.8854 17.272C12.8854 17.536 12.9334 17.78 13.0294 18.004C13.1334 18.228 13.2734 18.424 13.4494 18.592C13.6334 18.752 13.8494 18.876 14.0974 18.964C14.3534 19.052 14.6334 19.096 14.9374 19.096C15.4414 19.096 15.8534 18.996 16.1734 18.796C16.4934 18.596 16.7574 18.356 16.9654 18.076H17.1094L17.3854 19.012H18.7534C18.6654 18.748 18.6014 18.472 18.5614 18.184C18.5214 17.896 18.5014 17.6 18.5014 17.296C18.5014 16.848 18.5174 16.424 18.5494 16.024C18.5814 15.624 18.5974 15.22 18.5974 14.812C18.5974 14.476 18.5574 14.172 18.4774 13.9C18.4054 13.62 18.2814 13.384 18.1054 13.192C17.9294 12.992 17.6894 12.84 17.3854 12.736C17.0894 12.632 16.7214 12.58 16.2814 12.58C15.7214 12.58 15.1774 12.632 14.6494 12.736ZM16.4254 17.488C16.2014 17.664 15.9014 17.752 15.5254 17.752C15.2454 17.752 15.0214 17.68 14.8534 17.536C14.6934 17.392 14.6134 17.176 14.6134 16.888C14.6134 16.656 14.7174 16.464 14.9254 16.312C15.1334 16.152 15.4534 16.072 15.8854 16.072C15.9654 16.072 16.0534 16.076 16.1494 16.084C16.2534 16.092 16.3534 16.104 16.4494 16.12C16.5534 16.136 16.6454 16.152 16.7254 16.168C16.8134 16.184 16.8774 16.2 16.9174 16.216V16.936C16.8134 17.128 16.6494 17.312 16.4254 17.488Z" fill="white"/>
</svg>
