<svg width="32" height="32" viewBox="0 0 32 32" fill="none" xmlns="http://www.w3.org/2000/svg">
<path fill-rule="evenodd" clip-rule="evenodd" d="M2 24.0776V8C2 6.89543 2.89543 6 4 6H23.1352C23.7713 6 24.3695 6.30264 24.7464 6.81513L30.658 14.854C31.1763 15.5588 31.1763 16.5188 30.658 17.2237L24.7464 25.2625C24.3695 25.775 23.7713 26.0776 23.1352 26.0776H4C2.89543 26.0776 2 25.1822 2 24.0776ZM24.5355 18.3555C25.823 18.3555 26.8668 17.3183 26.8668 16.0388C26.8668 14.7594 25.823 13.7222 24.5355 13.7222C23.248 13.7222 22.2043 14.7594 22.2043 16.0388C22.2043 17.3183 23.248 18.3555 24.5355 18.3555Z" fill="white"/>
</svg>
