<svg width="22" height="22" viewBox="0 0 22 22" fill="none" xmlns="http://www.w3.org/2000/svg">
<path fill-rule="evenodd" clip-rule="evenodd" d="M12.366 4.5C11.9811 3.83333 11.0189 3.83333 10.634 4.5L3.27276 17.25C2.88786 17.9167 3.36898 18.75 4.13878 18.75H18.8612C19.631 18.75 20.1121 17.9167 19.7272 17.25L12.366 4.5ZM10.6668 14.3809H12.073L12.2723 8.46875H10.4676L10.6668 14.3809ZM12.0555 15.5586C11.8836 15.3906 11.6551 15.3066 11.3699 15.3066C11.0887 15.3066 10.8602 15.3926 10.6844 15.5645C10.5125 15.7324 10.4266 15.9453 10.4266 16.2031C10.4266 16.4609 10.5125 16.6738 10.6844 16.8418C10.8602 17.0098 11.0887 17.0937 11.3699 17.0937C11.6551 17.0937 11.8836 17.0098 12.0555 16.8418C12.2312 16.6738 12.3191 16.4609 12.3191 16.2031C12.3191 15.9414 12.2312 15.7266 12.0555 15.5586Z" fill="#FCFF73"/>
</svg>
