<svg width="22" height="22" viewBox="0 0 22 22" fill="none" xmlns="http://www.w3.org/2000/svg">
<path fill-rule="evenodd" clip-rule="evenodd" d="M16.6245 2.42908L19.4514 2L19.8155 4.5873L17.6554 4.91423L16.6245 2.42908ZM11.6397 3.18254L14.132 2.80453L15.1629 5.29216L12.6706 5.67016L11.6397 3.18254ZM6.65249 3.93854L9.14482 3.56054L10.1757 6.04817L7.68338 6.42617L6.65249 3.93854ZM2 4.64347L4.16015 4.31654L5.19105 6.80166L2.36413 7.23074L2 4.64347ZM2.36406 16.3846V8.53844H20V12.6075L17.4024 12.5359C16.0416 12.4985 14.908 13.5713 14.8705 14.9321C14.8567 15.4334 14.9935 15.9038 15.2399 16.3C14.7353 16.4628 14.2827 16.4937 13.9025 16.4567C12.8164 16.3512 11.7699 15.6475 11.1538 14.5406C10.4918 13.3511 8.99072 12.9235 7.80118 13.5856C6.61165 14.2477 6.18406 15.7487 6.84615 16.9382C7.26641 17.6933 7.79823 18.3912 8.42228 19H4.88348C3.49204 19 2.36406 17.8291 2.36406 16.3846Z" fill="white"/>
<path d="M19.939 15.7394C15.8678 20.7388 10.9236 19.1954 9 15.7394M19.8447 18.2901L20.8202 15.096L17.3346 15" stroke="#51B7FF" stroke-width="2" stroke-linecap="round" stroke-linejoin="round"/>
</svg>
