<svg width="22" height="22" viewBox="0 0 22 22" fill="none" xmlns="http://www.w3.org/2000/svg">
<path fill-rule="evenodd" clip-rule="evenodd" d="M3 2C2.44772 2 2 2.44772 2 3V4C2 4.55228 2.44772 5 3 5H19C19.5523 5 20 4.55228 20 4V3C20 2.44772 19.5523 2 19 2H3ZM3 7C2.44772 7 2 7.44772 2 8V9C2 9.55228 2.44772 10 3 10H19C19.5523 10 20 9.55228 20 9V8C20 7.44772 19.5523 7 19 7H3ZM2 13C2 12.4477 2.44772 12 3 12H19C19.4121 12 19.766 12.2493 19.9191 12.6053L17.4024 12.5359C16.0416 12.4985 14.908 13.5713 14.8705 14.9321C14.8699 14.9548 14.8695 14.9774 14.8695 15H11.4507C11.3434 14.8559 11.244 14.7026 11.1538 14.5406C10.4918 13.3511 8.99072 12.9235 7.80118 13.5856C7.22745 13.9049 6.83097 14.4194 6.64851 15H3C2.44772 15 2 14.5523 2 14V13ZM6.88085 17H3C2.44772 17 2 17.4477 2 18V19C2 19.5523 2.44772 20 3 20H9.65183C8.50244 19.2281 7.55346 18.1862 6.88085 17Z" fill="white"/>
<path d="M19.939 15.7394C15.8678 20.7388 10.9236 19.1954 9 15.7394M19.8447 18.2901L20.8202 15.096L17.3346 15" stroke="#51B7FF" stroke-width="2" stroke-linecap="round" stroke-linejoin="round"/>
</svg>
