<?xml version="1.0" encoding="UTF-8" standalone="no"?>
<!-- Created with Inkscape (http://www.inkscape.org/) -->

<svg width="63.999996" height="63.999996" viewBox="0 0 16.933332 16.933332" version="1.1" id="svg5" inkscape:export-filename="choice-icon.svg" inkscape:export-xdpi="96" inkscape:export-ydpi="96" sodipodi:docname="icon.svg" inkscape:version="1.2.2 (732a01da63, 2022-12-09)" xmlns:inkscape="http://www.inkscape.org/namespaces/inkscape" xmlns:sodipodi="http://sodipodi.sourceforge.net/DTD/sodipodi-0.dtd" xmlns="http://www.w3.org/2000/svg" xmlns:svg="http://www.w3.org/2000/svg">
  <sodipodi:namedview id="namedview7" pagecolor="#464646" bordercolor="#000000" borderopacity="0.25" inkscape:showpageshadow="2" inkscape:pageopacity="0" inkscape:pagecheckerboard="0" inkscape:deskcolor="#d1d1d1" inkscape:document-units="mm" showgrid="false" showguides="true" inkscape:zoom="1.0544998" inkscape:cx="-184.44765" inkscape:cy="-1.8966339" inkscape:window-width="1920" inkscape:window-height="1017" inkscape:window-x="-8" inkscape:window-y="-8" inkscape:window-maximized="1" inkscape:current-layer="svg5" />
  <defs id="defs2" />
  <rect style="stroke-width:3.57045;stroke-dasharray:none;fill:#ffffff;fill-opacity:1;stroke:#ffffff;stroke-linecap:round;stroke-linejoin:round;stroke-dashoffset:0;stroke-opacity:1" id="rect26013" width="58.831448" height="24.065563" x="-167.86046" y="-31.618748" ry="12.032781" transform="matrix(0.15519359,0,0,0.15519359,31.232208,8.9372117)" />
  <path sodipodi:type="star" style="stroke-width:8.16565;stroke-dasharray:none;fill:#ffffff;fill-opacity:1;stroke:#ffffff;stroke-linecap:round;stroke-linejoin:round;stroke-dashoffset:0;stroke-opacity:1" id="path26015" inkscape:flatsided="false" sodipodi:sides="3" sodipodi:cx="-138.47092" sodipodi:cy="-7.3761749" sodipodi:r1="20.010386" sodipodi:r2="10.457433" sodipodi:arg1="0.52359878" sodipodi:arg2="1.5707963" inkscape:rounded="0.02640344" inkscape:randomized="0" d="m -121.14141,2.6290179 c -0.22886,0.3963922 -16.87179,0.4522399 -17.32951,0.4522399 -0.45771,0 -17.10064,-0.055848 -17.3295,-0.45224 -0.22886,-0.3963922 8.04424,-14.8375168 8.2731,-15.2339088 0.22886,-0.396392 8.59869,-14.781669 9.0564,-14.781669 0.45772,0 8.82755,14.385276 9.05641,14.781668 0.22885,0.396393 8.50195,14.8375177 8.2731,15.2339099 z" transform="matrix(0,-0.07693147,-0.06541836,0,2.2708052,-4.7551753)" inkscape:transform-center-x="-0.73902511" />
  <path id="path28608" style="stroke-width:3.3313;stroke-dasharray:none;fill:#ffffff;color:#000000;fill-opacity:0.45;stroke-linecap:round;stroke-linejoin:round;-inkscape-stroke:none" d="m -155.82823,2.6553184 c -7.56011,0 -13.69881,6.1387113 -13.69881,13.6988156 0,7.560104 6.1387,13.698816 13.69881,13.698816 h 34.76649 c 7.56011,0 13.69882,-6.138712 13.69882,-13.698816 0,-7.5601043 -6.13871,-13.6988156 -13.69882,-13.6988156 z" transform="matrix(0.15519359,0,0,0.15519359,31.232208,8.9372117)" />
</svg>
