<?xml version="1.0" encoding="UTF-8" standalone="no"?>
<svg
  width="16"
  height="16"
  viewBox="0 0 16 16"
  fill="none"
  version="1.1"
  id="svg7"
  sodipodi:docname="node_choice_button_sound_icon.svg"
  inkscape:version="1.4 (86a8ad7, 2024-10-11)"
  xmlns:inkscape="http://www.inkscape.org/namespaces/inkscape"
  xmlns:sodipodi="http://sodipodi.sourceforge.net/DTD/sodipodi-0.dtd"
  xmlns="http://www.w3.org/2000/svg"
  xmlns:svg="http://www.w3.org/2000/svg">
 <defs
   id="defs7">
  <linearGradient
    id="swatch7"
    inkscape:swatch="solid">
   <stop
     style="stop-color:#62aeff;stop-opacity:1;"
     offset="0"
     id="stop7" />
  </linearGradient>
 </defs>
 <sodipodi:namedview
   id="namedview7"
   pagecolor="#505050"
   bordercolor="#eeeeee"
   borderopacity="1"
   inkscape:showpageshadow="0"
   inkscape:pageopacity="0"
   inkscape:pagecheckerboard="0"
   inkscape:deskcolor="#d1d1d1"
   inkscape:zoom="26.3125"
   inkscape:cx="8.6650831"
   inkscape:cy="10.679335"
   inkscape:window-width="1920"
   inkscape:window-height="1017"
   inkscape:window-x="-8"
   inkscape:window-y="-8"
   inkscape:window-maximized="1"
   inkscape:current-layer="svg7"
   showguides="false"
   showgrid="true">
  <inkscape:grid
    id="grid8"
    units="px"
    originx="0"
    originy="0"
    spacingx="1"
    spacingy="1"
    empcolor="#0099e5"
    empopacity="0.30196078"
    color="#0099e5"
    opacity="0.14901961"
    empspacing="4"
    enabled="true"
    visible="true" />
 </sodipodi:namedview>
 <path
   fill="#e0e0e0"
   d="M 8.3466667,0.99999995 A 0.66666667,0.66666667 0 0 0 7.8,1.1999999 l -3.8,3.8 H 2.12 c -0.62,0 -1.12,0.4466667 -1.12,1 V 10 c 0,0.553333 0.5,1 1.12,1 H 4 l 3.8,3.8 C 8.24,15.246667 9,14.933333 9,14.306667 V 1.7066666 A 0.70666667,0.70666667 0 0 0 8.3466667,0.99999995"
   paint-order="markers stroke fill"
   id="path1-4"
   style="fill:#62aeff;fill-opacity:1;stroke-width:6.66667" />
 <path
   fill="none"
   stroke="#e0e0e0"
   stroke-linecap="round"
   stroke-linejoin="round"
   stroke-width="1.1"
   d="m 10.5,4.4999999 c 3,3.5 0,7.0000001 0,7.0000001 m 2,-9 c 4.5,5.5 0,11 0,11"
   paint-order="markers stroke fill"
   id="path2"
   style="stroke:#62aeff;stroke-opacity:1" />
</svg>
