<?xml version="1.0" encoding="utf-8"?>
<!-- Generator: Adobe Illustrator 16.0.3, SVG Export Plug-In . SVG Version: 6.00 Build 0)  -->
<!DOCTYPE svg PUBLIC "-//W3C//DTD SVG 1.1//EN" "http://www.w3.org/Graphics/SVG/1.1/DTD/svg11.dtd">
<svg version="1.1"
	 id="svg5" inkscape:export-filename="history-icon.svg" xmlns:inkscape="http://www.inkscape.org/namespaces/inkscape" xmlns:sodipodi="http://sodipodi.sourceforge.net/DTD/sodipodi-0.dtd" xmlns:svg="http://www.w3.org/2000/svg" sodipodi:docname="history_icon.svg" inkscape:export-ydpi="96" inkscape:export-xdpi="96" inkscape:version="1.2.2 (732a01da63, 2022-12-09)"
	 xmlns="http://www.w3.org/2000/svg" xmlns:xlink="http://www.w3.org/1999/xlink" x="0px" y="0px" width="100px" height="100px"
	 viewBox="0 0 100 100" enable-background="new 0 0 100 100" xml:space="preserve">
<sodipodi:namedview  id="namedview7" inkscape:pagecheckerboard="0" inkscape:cy="23.572542" inkscape:zoom="2.2483786" inkscape:cx="-42.25267" pagecolor="#464646" showgrid="false" borderopacity="0.25" bordercolor="#000000" inkscape:document-units="mm" inkscape:deskcolor="#d1d1d1" inkscape:pageopacity="0" inkscape:showpageshadow="2" inkscape:current-layer="svg5" inkscape:window-y="-8" inkscape:window-x="-8" inkscape:window-height="1017" inkscape:window-width="1920" showguides="true" inkscape:window-maximized="1">
	</sodipodi:namedview>
<g>
	<path fill="#FFFFFF" d="M50.037,53.276l17.386,5.477c0.4,0.126,0.805,0.186,1.203,0.186c1.7,0,3.276-1.092,3.814-2.799
		c0.663-2.107-0.507-4.354-2.613-5.018l-14.968-4.714l-1.078-7.916c-0.299-2.189-2.311-3.721-4.504-3.423
		c-2.189,0.298-3.722,2.314-3.423,4.503l1.421,10.429C47.484,51.535,48.56,52.811,50.037,53.276z"/>
	<path fill="#FFFFFF" d="M52.908,7.826c-20.465,0-37.303,15.785-39.001,35.818l-2.034,0.034c-1.447,0.024-2.769,0.829-3.455,2.104
		c-0.687,1.274-0.63,2.821,0.146,4.042l5.943,9.347c0.735,1.155,2.009,1.854,3.375,1.854c0.021,0,0.042,0,0.063-0.001
		c1.391-0.021,2.669-0.765,3.378-1.961l5.65-9.541c0.738-1.247,0.745-2.795,0.017-4.048s-2.067-2.012-3.525-1.99l-1.513,0.025
		c1.731-15.55,14.95-27.684,30.956-27.684c17.178,0,31.152,13.975,31.152,31.152c0,17.178-13.975,31.152-31.152,31.152
		c-2.438,0-4.866-0.282-7.213-0.838c-0.543-0.129-1.086-0.138-1.604-0.048c-0.385-0.001-0.775,0.035-1.164,0.152l-17.479,5.268
		l1.693-10.559c0.35-2.182-1.135-4.233-3.316-4.583c-2.182-0.357-4.233,1.135-4.583,3.315l-2.705,16.865
		c-0.218,1.361,0.279,2.738,1.316,3.645c0.739,0.646,1.678,0.989,2.634,0.989c0.386,0,0.774-0.056,1.154-0.17l22.993-6.929
		c2.707,0.582,5.484,0.892,8.275,0.892c21.589,0,39.152-17.563,39.152-39.152S74.497,7.826,52.908,7.826z"/>
</g>
</svg>
