<svg width="32" height="32" viewBox="0 0 32 32" fill="none" xmlns="http://www.w3.org/2000/svg">
<path d="M26.1818 18.9091H30.5454V21.8182H26.1818V26.1818H23.2727V21.8182H18.9091V18.9091H23.2727V14.5455H26.1818V18.9091Z" fill="#A5EFAC"/>
<path fill-rule="evenodd" clip-rule="evenodd" d="M24.2372 10.4489L26.4744 5.25853C25.9375 4.98012 25.3807 4.76137 24.804 4.60228C24.2273 4.44319 23.6307 4.36365 23.0142 4.36365C22.358 4.36365 21.7514 4.47302 21.1946 4.69177C20.6378 4.89064 20.1207 5.16905 19.6435 5.527C19.1861 5.88495 18.7685 6.30257 18.3906 6.77984C18.0128 7.25711 17.6747 7.77416 17.3764 8.33098C17.2173 8.64916 17.0384 9.027 16.8395 9.4645C16.6605 9.88211 16.4815 10.2898 16.3026 10.6875C16.0838 11.1648 15.875 11.6421 15.6761 12.1193C15.4773 11.7017 15.2685 11.3139 15.0497 10.956C14.8707 10.6378 14.6818 10.3196 14.483 10.0014C14.304 9.66336 14.1349 9.38495 13.9759 9.1662C13.6577 8.68893 13.2997 8.17189 12.902 7.61507C12.5043 7.05825 12.0668 6.5412 11.5895 6.06393C11.1122 5.58666 10.5952 5.18893 10.0384 4.87075C9.48153 4.53268 8.875 4.36365 8.21875 4.36365C7.68182 4.36365 7.15483 4.47302 6.63778 4.69177C6.12074 4.89064 5.63352 5.1591 5.17613 5.49717C4.71875 5.81535 4.29119 6.18325 3.89346 6.60086C3.51562 6.99859 3.1875 7.40626 2.90909 7.82387L3.71449 8.86791C3.9929 8.64916 4.28125 8.48012 4.57954 8.36081C4.87784 8.2216 5.19602 8.152 5.53409 8.152C5.93182 8.152 6.30966 8.25143 6.66761 8.4503C7.04545 8.62927 7.36363 8.86791 7.62216 9.1662L13.2301 18.1449C13.0511 18.6818 12.8722 19.1889 12.6932 19.6662L12.2159 20.919C12.0568 21.3367 11.9077 21.6747 11.7685 21.9333C11.669 22.1719 11.5199 22.3807 11.321 22.5597C11.1222 22.7188 10.8935 22.858 10.6349 22.9773C10.3963 23.0767 10.1477 23.1563 9.8892 23.2159C9.63068 23.2557 9.3821 23.2756 9.14346 23.2756C8.38778 23.2756 7.6321 23.1264 6.87642 22.8281C6.12074 22.51 5.42471 22.152 4.78835 21.7543L2.90909 26.706C3.46591 27.1435 4.07244 27.4915 4.72869 27.75C5.38494 28.0284 6.06108 28.1676 6.7571 28.1676C7.53267 28.1676 8.26846 27.9986 8.96449 27.6605C9.66051 27.3026 10.2969 26.8551 10.8736 26.3182C11.4702 25.7614 11.9972 25.1449 12.4545 24.4688C12.9119 23.7926 13.2898 23.1364 13.5881 22.5C13.6676 22.3409 13.7571 22.1122 13.8565 21.8139C13.956 21.5156 14.0455 21.2273 14.125 20.9489C14.2045 20.6108 14.294 20.2727 14.3935 19.9347C14.6321 20.2727 14.8807 20.6904 15.1392 21.1875C15.3977 21.6648 15.6562 22.1619 15.9148 22.679C16.1733 23.196 16.4219 23.7031 16.6605 24.2003C16.919 24.6776 17.1577 25.0852 17.3764 25.4233C17.6548 25.7813 17.9233 26.1293 18.1818 26.4673C18.4403 26.8054 18.7187 27.1037 19.017 27.3622C19.3153 27.6009 19.6435 27.7898 20.0014 27.929C20.3793 28.0881 20.8068 28.1676 21.2841 28.1676C21.821 28.1676 22.348 28.0483 22.8651 27.8097C22.9966 27.7561 23.1257 27.6983 23.2525 27.6364H21.8182V23.2727H17.4545V17.4546H18.6014C18.419 17.0953 18.2394 16.7388 18.0625 16.385C17.6648 15.5895 17.2571 14.7543 16.8395 13.8793L17.4361 12.179C17.5952 11.821 17.794 11.4631 18.0327 11.1051C18.2713 10.7273 18.5497 10.3892 18.8679 10.0909C19.1861 9.79262 19.5341 9.55399 19.9119 9.37501C20.3097 9.19603 20.7273 9.10655 21.1648 9.10655C21.7216 9.10655 22.2585 9.24575 22.7756 9.52416C23.3125 9.78268 23.7997 10.0909 24.2372 10.4489Z" fill="white"/>
</svg>
