<svg width="22" height="22" viewBox="0 0 22 22" fill="none" xmlns="http://www.w3.org/2000/svg">
<path d="M18 13H21V15H18V18H16V15H13V13H16V10H18V13Z" fill="#A5EFAC"/>
<path d="M14.4551 7.49007C14.4551 10.2515 12.8007 11.5 10.0269 11.5C7.25308 11.5 5.5 10.2515 5.5 7.49007C5.5 4.72864 7.25308 2.99007 10.0269 2.99007C12.8007 2.99007 14.4551 4.72864 14.4551 7.49007Z" fill="white"/>
<path d="M13.9282 12C12.8769 10.7526 11.5149 10 10.0269 10C6.69832 10 4 13.7661 4 18.4118C4 21 6.69832 21 10.0269 21C13.0813 21 15.605 21 16 19H15.0493V16H12.0358V12H13.9282Z" fill="white"/>
</svg>
