<svg width="22" height="22" viewBox="0 0 22 22" fill="none" xmlns="http://www.w3.org/2000/svg">
<path d="M18 13H21V15H18V18H16V15H13V13H16V10H18V13Z" fill="#A5EFAC"/>
<path fill-rule="evenodd" clip-rule="evenodd" d="M16.6631 7.18359L18.2012 3.61523C17.832 3.42383 17.4492 3.27344 17.0527 3.16406C16.6563 3.05469 16.2461 3 15.8223 3C15.3711 3 14.9541 3.0752 14.5713 3.22559C14.1885 3.3623 13.833 3.55371 13.5049 3.7998C13.1904 4.0459 12.9033 4.33301 12.6436 4.66113C12.3838 4.98926 12.1514 5.34473 11.9463 5.72754C11.8369 5.94629 11.7139 6.20606 11.5771 6.50684C11.4541 6.79395 11.3311 7.07422 11.208 7.34766C11.0576 7.67578 10.9141 8.00391 10.7773 8.33203C10.6406 8.04492 10.4971 7.77832 10.3467 7.53223C10.2236 7.31348 10.0938 7.09473 9.95703 6.87598C9.83398 6.64356 9.71777 6.45215 9.6084 6.30176C9.38965 5.97363 9.14355 5.61816 8.87012 5.23535C8.59668 4.85254 8.2959 4.49707 7.96777 4.16895C7.63965 3.84082 7.28418 3.56738 6.90137 3.34863C6.51855 3.11621 6.10156 3 5.65039 3C5.28125 3 4.91895 3.0752 4.56348 3.22559C4.20801 3.3623 3.87305 3.54688 3.55859 3.7793C3.24414 3.99805 2.9502 4.25098 2.67676 4.53809C2.41699 4.81152 2.19141 5.0918 2 5.37891L2.55371 6.09668C2.74512 5.94629 2.94336 5.83008 3.14844 5.74805C3.35352 5.65234 3.57227 5.60449 3.80469 5.60449C4.07812 5.60449 4.33789 5.67285 4.58398 5.80957C4.84375 5.93262 5.0625 6.09668 5.24023 6.30176L9.0957 12.4746C8.97266 12.8438 8.84961 13.1924 8.72656 13.5205L8.39844 14.3818C8.28906 14.6689 8.18652 14.9014 8.09082 15.0791C8.02246 15.2432 7.91992 15.3867 7.7832 15.5098C7.64648 15.6191 7.48926 15.7148 7.31152 15.7969C7.14746 15.8652 6.97656 15.9199 6.79883 15.9609C6.62109 15.9883 6.4502 16.002 6.28613 16.002C5.7666 16.002 5.24707 15.8994 4.72754 15.6943C4.20801 15.4756 3.72949 15.2295 3.29199 14.9561L2 18.3604C2.38281 18.6611 2.7998 18.9004 3.25098 19.0781C3.70215 19.2695 4.16699 19.3652 4.64551 19.3652C5.17871 19.3652 5.68457 19.249 6.16309 19.0166C6.6416 18.7705 7.0791 18.4629 7.47559 18.0938C7.88574 17.7109 8.24805 17.2871 8.5625 16.8223C8.87695 16.3574 9.13672 15.9063 9.3418 15.4688C9.39648 15.3594 9.45801 15.2021 9.52637 14.9971C9.59473 14.792 9.65625 14.5938 9.71094 14.4023C9.76562 14.1699 9.82715 13.9375 9.89551 13.7051C10.0596 13.9375 10.2305 14.2246 10.4082 14.5664C10.5859 14.8945 10.7637 15.2363 10.9414 15.5918C11.1191 15.9473 11.29 16.2959 11.4541 16.6377C11.6318 16.9658 11.7959 17.2461 11.9463 17.4785C12.1377 17.7246 12.3223 17.9639 12.5 18.1963C12.6777 18.4287 12.8691 18.6338 13.0742 18.8115C13.2793 18.9756 13.5049 19.1055 13.751 19.2012C14.0107 19.3105 14.3047 19.3652 14.6328 19.3652C15.002 19.3652 15.3643 19.2832 15.7197 19.1191C15.8102 19.0823 15.8989 19.0426 15.9861 19H15V16H12V12H12.7885C12.6631 11.753 12.5396 11.5079 12.418 11.2646C12.1445 10.7178 11.8643 10.1436 11.5771 9.54199L11.9873 8.37305C12.0967 8.12695 12.2334 7.88086 12.3975 7.63477C12.5615 7.375 12.7529 7.14258 12.9717 6.9375C13.1904 6.73242 13.4297 6.56836 13.6895 6.44531C13.9629 6.32227 14.25 6.26074 14.5508 6.26074C14.9336 6.26074 15.3027 6.35645 15.6582 6.54785C16.0273 6.72559 16.3623 6.9375 16.6631 7.18359Z" fill="white"/>
</svg>
