<svg width="16" height="16" viewBox="0 0 16 16" fill="none" xmlns="http://www.w3.org/2000/svg">
<path d="M1.45454 2.18183C1.45454 1.78017 1.78016 1.45456 2.18182 1.45456H13.8182C14.2198 1.45456 14.5455 1.78017 14.5455 2.18183V2.9091C14.5455 3.31077 14.2198 3.63638 13.8182 3.63638H2.18182C1.78016 3.63638 1.45454 3.31077 1.45454 2.9091V2.18183Z" fill="white"/>
<path d="M1.45454 5.8182C1.45454 5.41653 1.78016 5.09092 2.18182 5.09092H13.8182C14.2198 5.09092 14.5455 5.41653 14.5455 5.8182V6.54547C14.5455 6.94713 14.2198 7.27274 13.8182 7.27274V6.54547H10.9091V7.27274H2.18182C1.78016 7.27274 1.45454 6.94713 1.45454 6.54547V5.8182Z" fill="white"/>
<path d="M1.45454 9.45456C1.45454 9.0529 1.78016 8.72729 2.18182 8.72729H8.72727C8.72727 8.72729 8.72727 9.0529 8.72727 9.45456V10.1818C8.72727 10.5835 8.72727 10.9091 8.72727 10.9091H2.18182C1.78016 10.9091 1.45454 10.5835 1.45454 10.1818V9.45456Z" fill="white"/>
<path d="M1.45454 13.0909C1.45454 12.6893 1.78016 12.3637 2.18182 12.3637H10.9091V13.8182H13.8182V12.3637C14.2198 12.3637 14.5455 12.6893 14.5455 13.0909V13.8182C14.5455 14.2199 14.2198 14.5455 13.8182 14.5455H2.18182C1.78016 14.5455 1.45454 14.2199 1.45454 13.8182V13.0909Z" fill="white"/>
<path d="M13.0909 9.45455H15.2727V10.9091H13.0909V13.0909H11.6364V10.9091H9.45454V9.45455H11.6364V7.27274H13.0909V9.45455Z" fill="#A5EFAC"/>
</svg>
