<svg width="32" height="32" viewBox="0 0 32 32" fill="none" xmlns="http://www.w3.org/2000/svg">
<path d="M2.90909 4.36363C2.90909 3.56031 3.56031 2.90909 4.36363 2.90909H27.6364C28.4397 2.90909 29.0909 3.56031 29.0909 4.36363V5.81818C29.0909 6.6215 28.4397 7.27272 27.6364 7.27272H4.36363C3.56031 7.27272 2.90909 6.6215 2.90909 5.81818V4.36363Z" fill="white"/>
<path d="M2.90909 11.6364C2.90909 10.833 3.56031 10.1818 4.36363 10.1818H27.6364C28.4397 10.1818 29.0909 10.833 29.0909 11.6364V13.0909C29.0909 13.8942 28.4397 14.5455 27.6364 14.5455V13.0909H21.8182V14.5455H4.36363C3.56031 14.5455 2.90909 13.8942 2.90909 13.0909V11.6364Z" fill="white"/>
<path d="M2.90909 18.9091C2.90909 18.1058 3.56031 17.4545 4.36363 17.4545H17.4545C17.4545 17.4545 17.4545 18.1058 17.4545 18.9091V20.3636C17.4545 21.167 17.4545 21.8182 17.4545 21.8182H4.36363C3.56031 21.8182 2.90909 21.167 2.90909 20.3636V18.9091Z" fill="white"/>
<path d="M2.90909 26.1818C2.90909 25.3785 3.56031 24.7273 4.36363 24.7273H21.8182V27.6364H27.6364V24.7273C28.4397 24.7273 29.0909 25.3785 29.0909 26.1818V27.6364C29.0909 28.4397 28.4397 29.0909 27.6364 29.0909H4.36363C3.56031 29.0909 2.90909 28.4397 2.90909 27.6364V26.1818Z" fill="white"/>
<path d="M26.1818 18.9091H30.5454V21.8182H26.1818V26.1818H23.2727V21.8182H18.9091V18.9091H23.2727V14.5455H26.1818V18.9091Z" fill="#A5EFAC"/>
</svg>
