<svg width="22" height="22" viewBox="0 0 22 22" fill="none" xmlns="http://www.w3.org/2000/svg">
<path d="M18 13H21V15H18V18H16V15H13V13H16V10H18V13Z" fill="#A5EFAC"/>
<path d="M2 3C2 2.44772 2.44772 2 3 2H19C19.5523 2 20 2.44772 20 3V12H19V9H15V12H12V16H15V17L9 20L11 15H3C2.44772 15 2 14.5523 2 14V3Z" fill="white"/>
<path d="M8.32939 6.13202C8.68939 5.97202 9.12939 5.84002 9.64939 5.73602C10.1774 5.63202 10.7214 5.58002 11.2814 5.58002C11.7214 5.58002 12.0894 5.63202 12.3854 5.73602C12.6894 5.84002 12.9294 5.99202 13.1054 6.19202C13.2814 6.38402 13.4054 6.62002 13.4774 6.90002C13.5574 7.17202 13.5974 7.47602 13.5974 7.81202C13.5974 8.22002 13.5814 8.62402 13.5494 9.02402C13.5174 9.42402 13.5014 9.84802 13.5014 10.296C13.5014 10.6 13.5214 10.896 13.5614 11.184C13.6014 11.472 13.6654 11.748 13.7534 12.012H12.3854L12.1094 11.076H11.9654C11.7574 11.356 11.4934 11.596 11.1734 11.796C10.8534 11.996 10.4414 12.096 9.93739 12.096C9.63339 12.096 9.35339 12.052 9.09739 11.964C8.84939 11.876 8.63339 11.752 8.44939 11.592C8.27339 11.424 8.13339 11.228 8.02939 11.004C7.93339 10.78 7.88539 10.536 7.88539 10.272C7.88539 9.56002 8.12139 9.02402 8.59339 8.66402C9.07339 8.29602 9.79739 8.11202 10.7654 8.11202C10.9894 8.11202 11.2134 8.13202 11.4374 8.17202C11.6614 8.20402 11.8174 8.22802 11.9054 8.24402C11.9294 8.07602 11.9414 7.93202 11.9414 7.81202C11.9414 7.50802 11.8654 7.28402 11.7134 7.14002C11.5614 6.99602 11.2774 6.92402 10.8614 6.92402C10.4774 6.92402 10.1014 6.97202 9.73339 7.06802C9.37339 7.15602 9.05339 7.26802 8.77339 7.40402L8.32939 6.13202ZM10.5254 10.752C10.9014 10.752 11.2014 10.664 11.4254 10.488C11.6494 10.312 11.8134 10.128 11.9174 9.93602V9.21602C11.8774 9.20002 11.8134 9.18402 11.7254 9.16802C11.6454 9.15202 11.5534 9.13602 11.4494 9.12002C11.3534 9.10402 11.2534 9.09202 11.1494 9.08402C11.0534 9.07602 10.9654 9.07202 10.8854 9.07202C10.4534 9.07202 10.1334 9.15202 9.92539 9.31202C9.71739 9.46402 9.61339 9.65602 9.61339 9.88802C9.61339 10.176 9.69339 10.392 9.85339 10.536C10.0214 10.68 10.2454 10.752 10.5254 10.752Z" fill="#939393"/>
</svg>
