<svg width="22" height="22" viewBox="0 0 22 22" fill="none" xmlns="http://www.w3.org/2000/svg">
<path d="M18 13H21V15H18V18H16V15H13V13H16V10H18V13Z" fill="#A5EFAC"/>
<path fill-rule="evenodd" clip-rule="evenodd" d="M15.0004 9C15.6281 8.16434 16 7.12561 16 6C16 3.23858 13.7614 1 11 1C8.23858 1 6 3.23858 6 6C6 8.0077 7.18332 9.73902 8.89057 10.5346C6.61752 11.7315 5 14.8068 5 18.4118C5 21 7.68629 21 11 21C14.0408 21 16.5533 21 16.9465 19H15V16H12V12H14.884C14.3618 11.3777 13.7627 10.8786 13.1094 10.5346C13.8593 10.1851 14.5081 9.65514 15 9.00048V9H15.0004Z" fill="white"/>
</svg>
