<?xml version="1.0" encoding="UTF-8" standalone="no"?>
<svg width="32" height="32" viewBox="0 0 32 32" fill="none" version="1.1" id="svg32487" sodipodi:docname="picture.svg" inkscape:export-filename="..\dialogic\dialogic\addons\dialogic\Modules\LayoutStuff\Layer_FullBackground\background_layer_icon.png" inkscape:export-xdpi="96" inkscape:export-ydpi="96" xmlns:inkscape="http://www.inkscape.org/namespaces/inkscape" xmlns:sodipodi="http://sodipodi.sourceforge.net/DTD/sodipodi-0.dtd" xmlns="http://www.w3.org/2000/svg" xmlns:svg="http://www.w3.org/2000/svg">
  <defs id="defs32491" />
  <sodipodi:namedview id="namedview32489" pagecolor="#505050" bordercolor="#eeeeee" borderopacity="1" inkscape:showpageshadow="0" inkscape:pageopacity="0" inkscape:pagecheckerboard="0" inkscape:deskcolor="#505050" showgrid="false" />
  <path d="M 7.191,6 C 6.87508,6 6.57215,6.11708 6.34885,6.32546 6.12546,6.53385 6,6.81646 6,7.11108 V 24.8889 c 0,0.2946 0.12546,0.5773 0.34885,0.7856 C 6.57215,25.8829 6.87508,26 7.191,26 h 17.618 c 0,0 0.6188,-0.1171 0.8422,-0.3255 C 25.8745,25.4662 26,25.1835 26,24.8889 26,24.5942 26,7.11108 26,7.11108 26,6.81646 25.8745,6.53385 25.6512,6.32546 25.4278,6.11708 25.1249,6 24.809,6 Z M 8.22223,8.22223 H 23.7778 V 21.5555 H 8.22223 Z" fill="#ffffff" id="path32483" />
  <path d="M 20.4326,19.7336 H 11.749 c -0.7571,0 -1.3172,-0.6658 -1.146,-1.3624 l 0.6072,-2.47 c 0.134,-0.5452 0.6764,-0.9111 1.266,-0.8541 l 1.8929,0.1834 c 0.3794,0.0368 0.7542,-0.1025 1.0054,-0.3736 l 2.335,-2.5203 c 0.6051,-0.6532 1.7341,-0.4282 2.0083,0.4002 l 1.8377,5.5543 c 0.2368,0.7154 -0.3292,1.4425 -1.1229,1.4425 z" fill="#ffffff" id="path32485" />
</svg>
