<?xml version="1.0" encoding="utf-8"?>
<!-- Generator: Adobe Illustrator 16.0.3, SVG Export Plug-In . SVG Version: 6.00 Build 0)  -->
<!DOCTYPE svg PUBLIC "-//W3C//DTD SVG 1.1//EN" "http://www.w3.org/Graphics/SVG/1.1/DTD/svg11.dtd">
<svg version="1.1"
	 id="svg13076" inkscape:export-filename="bitmap.svg" xmlns:inkscape="http://www.inkscape.org/namespaces/inkscape" xmlns:sodipodi="http://sodipodi.sourceforge.net/DTD/sodipodi-0.dtd" xmlns:svg="http://www.w3.org/2000/svg" sodipodi:docname="textbox_layer_icon.svg" inkscape:export-ydpi="96" inkscape:export-xdpi="96"
	 xmlns="http://www.w3.org/2000/svg" xmlns:xlink="http://www.w3.org/1999/xlink" x="0px" y="0px" width="100px" height="100px"
	 viewBox="0 0 100 100" enable-background="new 0 0 100 100" xml:space="preserve">
<g>
	<circle id="path6939_1_" fill="#FFFFFF" cx="30.504" cy="50.494" r="10.29"/>
	<path id="path6995_1_" fill="#FFFFFF" d="M39.762,75.19h-19.55l4.117-17.494h11.318L39.762,75.19z"/>
</g>
<path fill="#FFFFFF" d="M87,20H13c-4.418,0-8,3.582-8,8v47.875c0,4.418,3.582,8,8,8h74c4.418,0,8-3.582,8-8V28
	C95,23.582,91.418,20,87,20z M58.585,36.733h12.364c1.888,0,3.42,1.531,3.42,3.419c0,1.888-1.532,3.419-3.42,3.419H58.585
	c-1.888,0-3.419-1.531-3.419-3.419C55.166,38.264,56.697,36.733,58.585,36.733z M47.546,69.842c0,2.721-2.207,4.928-4.927,4.928
	h-24.23c-2.72,0-4.927-2.207-4.927-4.928v-35.77c0-2.72,2.207-4.927,4.927-4.927h24.23c2.721,0,4.927,2.208,4.927,4.927V69.842z
	 M85.08,67.142H58.585c-1.889,0-3.419-1.531-3.419-3.42s1.53-3.42,3.419-3.42H85.08c1.887,0,3.419,1.531,3.419,3.42
	S86.967,67.142,85.08,67.142z M85.08,55.355H58.585c-1.888,0-3.419-1.529-3.419-3.418s1.531-3.419,3.419-3.419H85.08
	c1.888,0,3.419,1.53,3.419,3.419S86.968,55.355,85.08,55.355z"/>
</svg>
