<svg width="32" height="32" viewBox="0 0 32 32" fill="none" xmlns="http://www.w3.org/2000/svg">
<path fill-rule="evenodd" clip-rule="evenodd" d="M8.00001 7C7.44772 7 7 7.44772 7 8.00001V9.00003C7 9.55226 7.44772 9.99998 8.00001 9.99998H24C24.5523 9.99998 25 9.55226 25 9.00003V8.00001C25 7.44772 24.5523 7 24 7H8.00001ZM8.00001 12C7.44772 12 7 12.4477 7 13V14C7 14.5523 7.44772 15 8.00001 15H24C24.5523 15 25 14.5523 25 14V13C25 12.4477 24.5523 12 24 12H8.00001ZM7 18C7 17.4477 7.44772 17 8.00001 17H24C24.5523 17 25 17.4477 25 18V18.5171L22.3774 18.4449C21.5185 18.4212 20.8031 19.0983 20.7794 19.9572C20.7791 19.9715 20.7789 19.9858 20.7789 20H15.3689C15.3657 19.9943 15.3626 19.9886 15.3593 19.9828C14.9415 19.2321 13.9942 18.9622 13.2434 19.3801C12.9743 19.5299 12.767 19.7476 12.631 20H8.00001C7.44772 20 7 19.5523 7 19V18ZM12.9457 22H8.00001C7.44772 22 7 22.4477 7 23V24C7 24.5523 7.44772 25 8.00001 25H16.5991C15.0897 24.4102 13.8203 23.3327 12.9457 22ZM21.84 25H24C24.2119 25 24.4085 24.9341 24.5702 24.8216C24.5102 24.8108 24.4501 24.7963 24.3903 24.778C24.0223 24.6656 23.7263 24.4292 23.5342 24.1285C22.9788 24.4933 22.4121 24.7831 21.84 25ZM20.9585 22H17.4952C17.9126 22.193 18.3571 22.3173 18.8146 22.3618C19.4526 22.4238 20.1813 22.3356 20.9585 22Z" fill="white"/>
<path d="M25.1054 20.7514C20.9723 25.8319 15.9528 24.2635 14 20.7514M25.0096 23.3435L26 20.0976L22.4613 20" stroke="white" stroke-width="2" stroke-linecap="round" stroke-linejoin="round"/>
</svg>
