<?xml version="1.0" encoding="UTF-8" standalone="no"?>
<svg width="23" height="22" viewBox="0 0 23 22" fill="none" version="1.1" id="svg4" sodipodi:docname="clear_positions.svg" inkscape:version="1.2.2 (732a01da63, 2022-12-09)" xml:space="preserve" xmlns:inkscape="http://www.inkscape.org/namespaces/inkscape" xmlns:sodipodi="http://sodipodi.sourceforge.net/DTD/sodipodi-0.dtd" xmlns="http://www.w3.org/2000/svg" xmlns:svg="http://www.w3.org/2000/svg"><defs id="defs8" /><sodipodi:namedview id="namedview6" pagecolor="#505050" bordercolor="#eeeeee" borderopacity="1" inkscape:showpageshadow="0" inkscape:pageopacity="0" inkscape:pagecheckerboard="0" inkscape:deskcolor="#505050" showgrid="true" inkscape:zoom="11.313709" inkscape:cx="2.6958446" inkscape:cy="10.429825" inkscape:window-width="1920" inkscape:window-height="1017" inkscape:window-x="-8" inkscape:window-y="-8" inkscape:window-maximized="1" inkscape:current-layer="svg4"><inkscape:grid type="xygrid" id="grid6918" originx="0" originy="0" /></sodipodi:namedview><path d="m 13.240377,8.240346 c 0,1.789594 -1.450792,3.240341 -3.240377,3.240341 -1.789595,0 -3.24035,-1.450747 -3.24035,-3.240341 C 6.75965,6.450752 8.210405,5 10,5 c 1.789585,0 3.240377,1.450752 3.240377,3.240346 z" fill="#ffffff" id="path13814" style="stroke-width:0.891095" /><path d="m 13.888379,16.284052 c 0,1.677308 -1.740841,1.677308 -3.888379,1.677308 -2.147512,0 -3.888416,0 -3.888416,-1.677308 0,-3.010741 1.740904,-5.451432 3.888416,-5.451432 2.147538,0 3.888379,2.440691 3.888379,5.451432 z" fill="#ffffff" id="path13816" style="stroke-width:0.891095" /><rect style="fill:none;fill-rule:evenodd;stroke:#ffffff;stroke-width:1.32552;stroke-linecap:round;stroke-miterlimit:3.2;stroke-dasharray:1.32552, 2.65105;stroke-dashoffset:0" id="rect14304" width="11.651864" height="16.231003" x="4.1740818" y="3.1609161" ry="0.062339745" /><path style="fill:none;stroke:#ff4596;stroke-width:2.12032;stroke-linecap:round;stroke-linejoin:round;stroke-dasharray:none;stroke-dashoffset:0.236785;stroke-opacity:1" id="path2789" sodipodi:type="arc" sodipodi:cx="13.037281" sodipodi:cy="14.981825" sodipodi:rx="4.7729707" sodipodi:ry="4.7729707" sodipodi:start="3.5600983" sodipodi:end="2.1454842" sodipodi:arc-type="arc" d="m 8.6762308,13.042111 a 4.7729707,4.7729707 0 0 1 4.6703702,-2.823223 4.7729707,4.7729707 0 0 1 4.265983,3.403578 4.7729707,4.7729707 0 0 1 -1.715517,5.180729 4.7729707,4.7729707 0 0 1 -5.454243,0.18488" sodipodi:open="true" /><path style="fill:none;stroke:#ff4596;stroke-width:2.12032;stroke-linecap:round;stroke-linejoin:round;stroke-dasharray:none;stroke-dashoffset:0.236785;stroke-opacity:1" d="M 8.3526989,8.9714173 V 13.214058 L 12.28598,12.993087" id="path2845" sodipodi:nodetypes="ccc" /></svg>
