<?xml version="1.0" encoding="UTF-8" standalone="no"?>
<svg width="23" height="22" viewBox="0 0 23 22" fill="none" version="1.1" id="svg4" sodipodi:docname="clear_characters.svg" inkscape:version="1.2.2 (732a01da63, 2022-12-09)" xmlns:inkscape="http://www.inkscape.org/namespaces/inkscape" xmlns:sodipodi="http://sodipodi.sourceforge.net/DTD/sodipodi-0.dtd" xmlns="http://www.w3.org/2000/svg" xmlns:svg="http://www.w3.org/2000/svg">
  <defs id="defs8" />
  <sodipodi:namedview id="namedview6" pagecolor="#505050" bordercolor="#eeeeee" borderopacity="1" inkscape:showpageshadow="0" inkscape:pageopacity="0" inkscape:pagecheckerboard="0" inkscape:deskcolor="#505050" showgrid="true" inkscape:zoom="22.627417" inkscape:cx="14.915534" inkscape:cy="9.8994949" inkscape:window-width="1920" inkscape:window-height="1017" inkscape:window-x="-8" inkscape:window-y="-8" inkscape:window-maximized="1" inkscape:current-layer="svg4">
    <inkscape:grid type="xygrid" id="grid6918" originx="0" originy="0" />
  </sodipodi:namedview>
  <g inkscape:groupmode="layer" id="layer2" inkscape:label="Mirror" style="display:inline">
    <path style="display:none;fill:none;fill-opacity:0.980952;stroke:#ffffff;stroke-width:1.4;stroke-linecap:round;stroke-linejoin:round;stroke-dasharray:none" d="M 4.3862586,18.660184 H 13.902208" id="path11459" />
    <path style="display:none;fill:none;fill-opacity:0.980952;stroke:#ffffff;stroke-width:1.4;stroke-linecap:round;stroke-linejoin:round;stroke-dasharray:none" d="m 5.0553488,16.987459 -1.3381805,1.635554 1.3010089,1.970099" id="path11461" />
    <path style="display:none;fill:none;fill-opacity:0.980952;stroke:#ffffff;stroke-width:1.4;stroke-linecap:round;stroke-linejoin:round;stroke-dasharray:none" d="m 13.567664,16.875944 0.854949,1.821412 -0.817777,1.9701" id="path11463" />
  </g>
  <path d="m 13.691936,6.8584286 c 0,2.118883 -1.717741,3.8365674 -3.8366152,3.8365674 -2.118884,0 -3.836581,-1.7176844 -3.836581,-3.8365674 0,-2.118884 1.717697,-3.8365777 3.836581,-3.8365777 2.1188742,0 3.8366152,1.7176937 3.8366152,3.8365777 z" fill="#ffffff" id="path19723" style="display:inline;stroke-width:1.05506" />
  <path d="m 14.459174,16.382192 c 0,1.985936 -2.061163,1.985936 -4.6038532,1.985936 -2.542658,0 -4.603893,0 -4.603893,-1.985936 0,-3.564724 2.061235,-6.4545064 4.603893,-6.4545064 2.5426902,0 4.6038532,2.8897824 4.6038532,6.4545064 z" fill="#ffffff" id="path19725" style="display:inline;stroke-width:1.05506" />
  <path style="fill:none;stroke:#ff4596;stroke-width:2.12032;stroke-linecap:round;stroke-linejoin:round;stroke-dasharray:none;stroke-dashoffset:0.236785;stroke-opacity:1" id="path2789" sodipodi:type="arc" sodipodi:cx="13.037281" sodipodi:cy="14.981825" sodipodi:rx="4.7729707" sodipodi:ry="4.7729707" sodipodi:start="3.5600983" sodipodi:end="2.1454842" sodipodi:arc-type="arc" d="m 8.6762308,13.042111 a 4.7729707,4.7729707 0 0 1 4.6703702,-2.823223 4.7729707,4.7729707 0 0 1 4.265983,3.403578 4.7729707,4.7729707 0 0 1 -1.715517,5.180729 4.7729707,4.7729707 0 0 1 -5.454243,0.18488" sodipodi:open="true" />
  <path style="fill:none;stroke:#ff4596;stroke-width:2.12032;stroke-linecap:round;stroke-linejoin:round;stroke-dasharray:none;stroke-dashoffset:0.236785;stroke-opacity:1" d="M 8.3526989,8.9714173 V 13.214058 L 12.28598,12.993087" id="path2845" sodipodi:nodetypes="ccc" />
</svg>
